<svg width="135" height="39" viewBox="0 0 135 39" fill="none" xmlns="http://www.w3.org/2000/svg">
<path d="M17.4078 23.613V23.6678H14.3596C14.2749 23.3815 14.1778 23.0528 14.0632 22.6719C13.9486 22.2909 13.8266 21.91 13.6946 21.4992H9.82204C9.58296 22.3291 9.36214 23.052 9.15959 23.6678H6.11133V23.6304L9.78717 12.3193H13.732L17.4078 23.613ZM11.7247 14.3634C11.6027 14.9734 11.4308 15.7129 11.2042 16.5868C10.9776 17.4607 10.7385 18.3496 10.487 19.2584H13.0496C12.7889 18.3504 12.544 17.4599 12.3149 16.5868C12.0883 15.7129 11.914 14.9734 11.7944 14.3634H11.7247Z" fill="#A80A18"/>
<path d="M21.5323 23.668H18.6758V11.6025H21.5323V23.668Z" fill="#A80A18"/>
<path d="M27.0006 14.8464C27.9402 14.8177 28.8783 14.9388 29.7799 15.2049C30.1134 15.3103 30.4226 15.4813 30.689 15.708C30.9555 15.9346 31.1739 16.2122 31.3314 16.5245C31.6634 17.1619 31.8295 18.0848 31.8295 19.2932V23.6677H29.2245L29.1348 22.8436H29.0801C28.8026 23.1778 28.4354 23.4257 28.0216 23.5582C27.4176 23.7589 26.7825 23.85 26.1464 23.8271C24.086 23.8271 23.0558 22.856 23.0558 20.914C23.0376 20.5494 23.1015 20.1854 23.2429 19.8489C23.3843 19.5123 23.5995 19.2118 23.8726 18.9695C24.4155 18.4964 25.273 18.2607 26.4452 18.2624H29.0975C29.0822 18.0533 29.0153 17.8513 28.9027 17.6745C28.7901 17.4976 28.6354 17.3515 28.4525 17.2491C28.1071 17.0831 27.5152 17.0001 26.6768 17.0001C26.1582 16.9999 25.6404 17.039 25.1278 17.1171C24.6297 17.1943 24.174 17.2814 23.7904 17.3785L23.7381 17.3412L23.7556 15.2622C24.0562 15.1766 24.3613 15.1076 24.6695 15.0556C25.0406 14.9908 25.4316 14.9385 25.845 14.9037C26.2584 14.8688 26.6444 14.8464 27.0006 14.8464ZM26.8935 21.7132C27.4626 21.7449 28.0317 21.6497 28.5596 21.4344C28.7316 21.359 28.8777 21.2349 28.98 21.0773C29.0822 20.9198 29.1361 20.7358 29.1348 20.548V20.0999H27.1077C26.5822 20.0999 26.2136 20.1745 26.0044 20.3239C25.907 20.3883 25.8273 20.476 25.7725 20.5791C25.7177 20.6822 25.6895 20.7973 25.6906 20.914C25.6784 21.0373 25.7026 21.1614 25.7601 21.2711C25.8177 21.3809 25.906 21.4714 26.0144 21.5315C26.2884 21.6621 26.5901 21.7245 26.8935 21.7132Z" fill="#A80A18"/>
<path d="M42.5635 18.9225C42.5635 20.5359 42.2314 21.7575 41.5673 22.5875C40.9032 23.4174 39.7858 23.8324 38.2152 23.8324C37.3303 23.8324 36.5084 23.8 35.7497 23.7353C35.0026 23.6705 34.3252 23.5884 33.7574 23.4863L33.7051 23.4489V11.6025H36.574V16.2808H36.6438C36.8072 15.8565 37.0988 15.4936 37.478 15.2426C37.9796 14.9495 38.5568 14.8117 39.1367 14.8467C41.4228 14.8467 42.5651 16.2053 42.5635 18.9225ZM36.5865 19.2263V21.3227C36.9159 21.3746 37.2491 21.3988 37.5826 21.3949C38.0269 21.4098 38.4709 21.3586 38.9001 21.243C39.0495 21.1988 39.1873 21.122 39.3035 21.0183C39.4198 20.9146 39.5116 20.7864 39.5725 20.643C39.7232 20.2295 39.79 19.7903 39.7692 19.3508C39.7692 18.6461 39.6671 18.1283 39.4654 17.7921C39.2637 17.456 38.8428 17.2942 38.2202 17.2942C38.005 17.2858 37.7903 17.3202 37.5885 17.3954C37.3867 17.4706 37.2019 17.5852 37.0447 17.7324C36.7326 18.0278 36.5765 18.5241 36.5765 19.2213L36.5865 19.2263Z" fill="#A80A18"/>
<path d="M47.4038 14.8464C48.3434 14.8177 49.2815 14.9388 50.1831 15.2049C50.5168 15.3099 50.8261 15.4808 51.0927 15.7075C51.3592 15.9341 51.5775 16.212 51.7346 16.5245C52.0667 17.1619 52.2327 18.0848 52.2327 19.2932V23.6677H49.6277L49.5381 22.8436H49.4858C49.2078 23.1773 48.8408 23.4251 48.4273 23.5582C47.828 23.7569 47.1981 23.848 46.567 23.8271C44.4967 23.8271 43.4623 22.8594 43.464 20.924C43.4458 20.5594 43.5098 20.1954 43.6511 19.8588C43.7925 19.5223 44.0077 19.2217 44.2808 18.9795C44.8237 18.5064 45.6813 18.2707 46.8534 18.2724H49.5082C49.4922 18.0635 49.425 17.8617 49.3125 17.685C49.2 17.5082 49.0457 17.3619 48.8632 17.259C48.5145 17.0847 47.9243 17.01 47.0875 17.01C46.5681 17.01 46.0495 17.0491 45.536 17.1271C45.0279 17.2051 44.583 17.2922 44.2011 17.3885L44.1463 17.3511L44.1638 15.2722C44.4645 15.1869 44.7696 15.1179 45.0777 15.0655C45.4488 15.0008 45.8398 14.9485 46.2532 14.9136C46.6666 14.8788 47.0452 14.8464 47.4038 14.8464ZM47.2967 21.7132C47.8667 21.7451 48.4366 21.6499 48.9653 21.4344C49.1366 21.3583 49.2821 21.234 49.3838 21.0766C49.4856 20.9191 49.5392 20.7354 49.5381 20.548V20.0999H47.5134C46.9854 20.0999 46.6193 20.1745 46.4101 20.3239C46.3127 20.3883 46.233 20.476 46.1782 20.5791C46.1234 20.6822 46.0952 20.7973 46.0963 20.914C46.0839 21.037 46.1077 21.161 46.1648 21.2707C46.2219 21.3804 46.3097 21.471 46.4176 21.5315C46.6917 21.6619 46.9933 21.7242 47.2967 21.7132Z" fill="#A80A18"/>
<path d="M64.9595 14.8463C65.3538 14.8286 65.7471 14.8983 66.1113 15.0502C66.4755 15.2021 66.8016 15.4326 67.0664 15.7252C67.5861 16.3111 67.8459 17.3269 67.8459 18.7727V23.6676H64.977L64.9595 19.1312C64.9948 18.6923 64.9087 18.2521 64.7105 17.8589C64.5362 17.595 64.1975 17.463 63.6969 17.463C63.1963 17.463 62.8576 17.595 62.6833 17.8589C62.484 18.2518 62.3978 18.6922 62.4343 19.1312V23.6676H59.5454L59.518 19.1312C59.5545 18.6922 59.4682 18.2518 59.269 17.8589C59.0946 17.595 58.7584 17.463 58.2554 17.463C57.7523 17.463 57.4161 17.595 57.2418 17.8589C57.0436 18.2521 56.9574 18.6923 56.9927 19.1312V23.6676H54.1113V14.9384H56.8358L56.9803 16.5343H57.0276C57.1566 16.042 57.4425 15.605 57.842 15.2895C58.3304 14.9616 58.9134 14.8041 59.5006 14.8413C60.099 14.8083 60.6926 14.9651 61.1965 15.2895C61.6091 15.5897 61.8936 16.0341 61.9935 16.5343H62.0483C62.1843 16.0214 62.5066 15.5776 62.9523 15.2895C63.4055 14.994 64.0746 14.8463 64.9595 14.8463Z" fill="#A80A18"/>
<path d="M73.1369 14.8464C74.0765 14.8177 75.0147 14.9388 75.9162 15.2049C76.2498 15.3103 76.5589 15.4813 76.8254 15.708C77.0918 15.9346 77.3103 16.2122 77.4678 16.5245C77.7998 17.1619 77.9658 18.0848 77.9658 19.2932V23.6677H75.3609L75.2712 22.8436H75.209C74.9325 23.1778 74.5661 23.4258 74.153 23.5582C73.5521 23.7575 72.9205 23.8486 72.2877 23.8271C70.219 23.8271 69.1847 22.8594 69.1847 20.924C69.1665 20.5594 69.2305 20.1954 69.3718 19.8588C69.5132 19.5223 69.7284 19.2217 70.0015 18.9795C70.5444 18.5064 71.402 18.2707 72.5741 18.2724H75.2289C75.2131 18.0631 75.1457 17.861 75.0327 17.6842C74.9197 17.5074 74.7647 17.3613 74.5814 17.259C74.236 17.093 73.645 17.01 72.8082 17.01C72.2888 17.0099 71.7702 17.049 71.2567 17.1271C70.7486 17.2051 70.3029 17.2922 69.9193 17.3885L69.867 17.3511L69.8845 15.2722C70.1851 15.1866 70.4902 15.1176 70.7984 15.0655C71.1695 15.0008 71.5605 14.9485 71.9739 14.9136C72.3873 14.8788 72.7783 14.8464 73.1369 14.8464ZM73.0299 21.7132C73.5998 21.7451 74.1698 21.6499 74.6984 21.4344C74.8698 21.3583 75.0152 21.234 75.117 21.0766C75.2187 20.9191 75.2723 20.7354 75.2712 20.548V20.0999H73.244C72.7185 20.0999 72.3525 20.1745 72.1433 20.3239C72.0459 20.3883 71.9661 20.476 71.9113 20.5791C71.8565 20.6822 71.8284 20.7973 71.8295 20.914C71.8171 21.037 71.8409 21.161 71.8979 21.2707C71.955 21.3804 72.0429 21.471 72.1507 21.5315C72.4249 21.6619 72.7265 21.7242 73.0299 21.7132Z" fill="#A80A18"/>
<path d="M88.0916 23.6679H85.2227V12.3195H90.2782C91.2051 12.2853 92.1301 12.4255 93.0052 12.7328C93.6502 12.9744 94.1768 13.4562 94.4745 14.0773C94.7734 14.6972 94.9228 15.5413 94.9228 16.6044C94.9546 17.4432 94.8016 18.2787 94.4745 19.0519C94.1737 19.6808 93.6501 20.1759 93.0052 20.4412C92.1357 20.7728 91.2081 20.9253 90.2782 20.8893H88.0916V23.6679ZM89.8125 14.6673H88.0916V18.539H89.8125C90.6625 18.539 91.2304 18.3962 91.5159 18.1107C91.8023 17.8219 91.9468 17.3215 91.9468 16.6168C91.9468 15.9122 91.8023 15.4417 91.5159 15.1379C91.2295 14.8342 90.6617 14.6673 89.8125 14.6673Z" fill="#A80A18"/>
<path d="M95.8184 19.3655C95.8184 17.7637 96.1587 16.6101 96.8394 15.9047C97.5201 15.1993 98.674 14.8465 100.301 14.8465C101.197 14.8115 102.09 14.9704 102.919 15.3121C103.559 15.606 104.067 16.1267 104.346 16.7736C104.666 17.5989 104.815 18.4808 104.784 19.3655C104.815 20.2405 104.666 21.1126 104.346 21.9275C104.066 22.5696 103.557 23.0845 102.919 23.3716C102.088 23.7076 101.196 23.8629 100.301 23.8272C98.6757 23.8272 97.5218 23.4778 96.8394 22.779C96.1571 22.0802 95.8167 20.9424 95.8184 19.3655ZM100.301 21.3723C100.993 21.3723 101.464 21.2204 101.708 20.9142C101.952 20.6079 102.077 20.0751 102.077 19.3107C102.077 18.5464 101.952 18.0658 101.708 17.7422C101.464 17.4185 100.993 17.2666 100.301 17.2666C99.6088 17.2666 99.168 17.426 98.9114 17.7422C98.6549 18.0584 98.5254 18.5812 98.5254 19.3107C98.5254 20.0402 98.6549 20.6104 98.9114 20.9142C99.168 21.2179 99.6312 21.3723 100.301 21.3723Z" fill="#A80A18"/>
<path d="M105.912 21.1932C106.923 21.4664 107.967 21.5988 109.015 21.5866C109.43 21.5933 109.846 21.5758 110.26 21.5343C110.458 21.5265 110.65 21.4645 110.815 21.355C110.863 21.3124 110.901 21.2597 110.926 21.2007C110.951 21.1417 110.962 21.0779 110.96 21.0139C110.972 20.935 110.956 20.8543 110.915 20.7857C110.874 20.7171 110.811 20.6648 110.736 20.638C110.443 20.5572 110.146 20.4915 109.847 20.4413L108.422 20.1674C107.516 19.9882 106.861 19.7043 106.46 19.3159C106.058 18.9275 105.858 18.3466 105.859 17.5731C105.859 16.5191 106.173 15.802 106.801 15.4219C107.428 15.0418 108.429 14.8501 109.804 14.8467C110.533 14.8406 111.261 14.8855 111.983 14.9812C112.517 15.0505 113.044 15.1612 113.56 15.3123L113.522 17.4834L113.47 17.5357C112.442 17.2173 111.371 17.0603 110.295 17.0701C109.9 17.0513 109.505 17.0907 109.122 17.1871C109.022 17.2134 108.934 17.2733 108.873 17.3568C108.813 17.4402 108.782 17.5422 108.788 17.6453C108.784 17.7499 108.819 17.8522 108.888 17.9316C109.022 18.0362 109.179 18.1071 109.346 18.1382C109.595 18.203 109.961 18.2826 110.474 18.3872L111.784 18.6362C112.386 18.7275 112.948 18.9952 113.398 19.4055C113.743 19.7641 113.917 20.3317 113.918 21.1086C113.946 21.6744 113.815 22.2368 113.54 22.7319C113.242 23.1659 112.791 23.4703 112.277 23.5834C111.476 23.773 110.652 23.8567 109.829 23.8324C109.101 23.8361 108.374 23.7978 107.65 23.7179C106.988 23.6407 106.392 23.5461 105.867 23.439V21.2306L105.912 21.1932Z" fill="#A80A18"/>
<path d="M115.615 21.0485V17.2865H114.539V14.9535H115.884L116.422 12.8223H118.484V14.9535H120.436V17.2865H118.484V20.4161C118.463 20.6538 118.506 20.8928 118.608 21.1083C118.693 21.2328 118.882 21.295 119.181 21.295C119.373 21.295 119.577 21.295 119.791 21.2701C120.006 21.2452 120.222 21.2303 120.436 21.2054L120.491 21.2427V23.5781C119.747 23.7646 118.981 23.8484 118.215 23.8271C117.269 23.8271 116.601 23.613 116.205 23.1823C115.809 22.7515 115.615 22.0419 115.615 21.0485Z" fill="#A80A18"/>
<path d="M125.423 14.8464C126.363 14.8177 127.301 14.9388 128.203 15.2049C128.536 15.3103 128.845 15.4813 129.112 15.708C129.378 15.9346 129.597 16.2122 129.754 16.5245C130.086 17.1619 130.252 18.0848 130.252 19.2932V23.6677H127.647L127.558 22.8436H127.508C127.23 23.1778 126.863 23.4257 126.449 23.5582C125.849 23.7575 125.219 23.8486 124.587 23.8271C122.516 23.8271 121.482 22.8594 121.483 20.924C121.465 20.5594 121.529 20.1954 121.671 19.8588C121.812 19.5223 122.027 19.2217 122.3 18.9795C122.843 18.5064 123.701 18.2707 124.873 18.2724H127.525C127.51 18.0633 127.443 17.8613 127.33 17.6844C127.218 17.5076 127.063 17.3614 126.88 17.259C126.535 17.093 125.943 17.01 125.105 17.01C124.586 17.01 124.068 17.0491 123.556 17.1271C123.045 17.2042 122.602 17.2914 122.218 17.3885L122.166 17.3511L122.183 15.2722C122.484 15.1866 122.789 15.1176 123.097 15.0655C123.468 15.0008 123.859 14.9485 124.273 14.9136C124.686 14.8788 125.065 14.8464 125.423 14.8464ZM125.316 21.7132C125.885 21.7449 126.454 21.6497 126.982 21.4344C127.154 21.359 127.3 21.2349 127.403 21.0773C127.505 20.9198 127.559 20.7358 127.558 20.548V20.0999H125.53C125.005 20.0999 124.636 20.1745 124.427 20.3239C124.33 20.3883 124.25 20.476 124.195 20.5791C124.14 20.6822 124.112 20.7973 124.113 20.914C124.101 21.0373 124.125 21.1614 124.183 21.2711C124.24 21.3809 124.329 21.4714 124.437 21.5315C124.711 21.6621 125.013 21.7245 125.316 21.7132Z" fill="#A80A18"/>
<path d="M134.998 23.668H132.129V11.6025H134.998V23.668Z" fill="#A80A18"/>
<path d="M39.239 37.8099C39.8791 37.8087 40.5083 37.6441 41.0669 37.3318C41.7037 36.9698 42.2691 36.4948 42.7355 35.9301L43.1315 36.2662C42.6456 36.9238 42.0314 37.4761 41.3259 37.8895C40.5999 38.2973 39.7777 38.5028 38.9451 38.4846H38.9302C38.2844 38.4907 37.6443 38.3636 37.0499 38.1111C36.4793 37.867 35.9641 37.5095 35.5358 37.0605C35.1013 36.6034 34.7626 36.0642 34.5396 35.4745C34.2976 34.8386 34.1776 34.1629 34.186 33.4826C34.1773 32.773 34.3102 32.0688 34.5769 31.4111C34.8243 30.8019 35.1909 30.2483 35.6553 29.7828C36.1123 29.324 36.6569 28.9616 37.2566 28.7172C37.8724 28.4659 38.5316 28.3381 39.1966 28.3412C39.6522 28.3351 40.1058 28.3997 40.5415 28.5329C40.928 28.6553 41.2965 28.8286 41.6372 29.0483L41.9286 28.4881H42.4441C42.484 28.9861 42.5388 29.484 42.6135 29.982C42.6882 30.4799 42.7729 30.963 42.8625 31.4211L42.3769 31.568C42.223 31.1006 41.9979 30.6597 41.7095 30.2608C41.4796 29.9479 41.1994 29.6753 40.8802 29.4542C40.6092 29.268 40.3085 29.1291 39.9911 29.0433C39.7153 28.9668 39.4306 28.9266 39.1444 28.9238C38.5041 28.9097 37.8778 29.1114 37.3662 29.4965C36.846 29.9096 36.4475 30.456 36.2131 31.0775C35.9328 31.8106 35.7958 32.5908 35.8097 33.3756C35.7965 34.1538 35.9335 34.9273 36.2131 35.6537C36.4524 36.2758 36.8592 36.8196 37.3886 37.2248C37.9242 37.6181 38.5746 37.8238 39.239 37.8099Z" fill="#004E8E"/>
<path d="M46.7635 37.7351L46.8656 37.8247H48.4221V38.3426H44.2656V37.8297H45.2792L45.3664 37.7401V32.1181L45.2792 32.0136H44.2656V31.5007H45.0352C45.2842 31.5007 45.5557 31.5007 45.8147 31.4783C46.0737 31.4558 46.3327 31.4484 46.5867 31.4185L46.6738 31.5081V33.114H46.7635V37.7351ZM46.7635 33.1091C47.0125 32.634 47.3507 32.2113 47.7597 31.8642C48.1426 31.5392 48.6296 31.3625 49.1319 31.3662C49.3497 31.3574 49.5659 31.4082 49.757 31.5131C49.9105 31.6017 50.0337 31.7344 50.1106 31.8941C50.1829 32.0501 50.2203 32.22 50.2202 32.392C50.2238 32.5193 50.2017 32.6461 50.155 32.7646C50.1084 32.8831 50.0382 32.991 49.9487 33.0817C49.8583 33.1741 49.7496 33.2467 49.6295 33.2947C49.5094 33.3427 49.3807 33.3651 49.2514 33.3605C49.1241 33.3645 48.9974 33.3417 48.8794 33.2937C48.7615 33.2456 48.6549 33.1734 48.5666 33.0817C48.4771 32.991 48.4069 32.8831 48.3603 32.7646C48.3136 32.6461 48.2914 32.5193 48.2951 32.392C48.2996 32.2574 48.3319 32.1252 48.3897 32.0036C48.4376 31.8876 48.505 31.7807 48.589 31.6874L48.574 32.0982C48.376 32.1626 48.19 32.2593 48.0236 32.3845C47.8009 32.5607 47.6053 32.7687 47.4434 33.002C47.1806 33.3761 46.9498 33.7718 46.7535 34.1847L46.7635 33.1091Z" fill="#004E8E"/>
<path d="M54.6227 37.87C55.086 37.882 55.5429 37.7592 55.9376 37.5164C56.2855 37.2976 56.6043 37.0358 56.8865 36.7371L57.2824 37.0757C57.0709 37.3258 56.8375 37.5566 56.5851 37.7654C56.3068 37.9929 55.9907 38.1699 55.6512 38.2882C55.2252 38.4299 54.7777 38.4965 54.3288 38.4849C53.7317 38.49 53.143 38.3435 52.6179 38.0592C52.0919 37.7744 51.6543 37.3507 51.3528 36.8342C51.0404 36.2488 50.877 35.5955 50.877 34.932C50.877 34.2685 51.0404 33.6152 51.3528 33.0298C51.6531 32.5073 52.0906 32.0769 52.6179 31.7849C53.1416 31.4962 53.7308 31.347 54.3288 31.3517C54.884 31.3374 55.4341 31.4606 55.9302 31.7102C56.3866 31.9563 56.7542 32.3395 56.9811 32.8057C57.25 33.3843 57.3788 34.018 57.3572 34.6556H52.1995V34.1427H55.7533C55.7531 33.5554 55.615 32.9763 55.3499 32.4522C55.2382 32.2608 55.0753 32.1044 54.8795 32.0006C54.6837 31.8968 54.4628 31.8497 54.2417 31.8646C54.0493 31.857 53.8574 31.8876 53.677 31.9547C53.4966 32.0218 53.3313 32.124 53.1907 32.2555C52.8983 32.5555 52.6904 32.9274 52.588 33.3336C52.4483 33.8513 52.3812 34.3859 52.3888 34.922C52.378 35.4514 52.4808 35.9769 52.6901 36.4632C52.8651 36.871 53.1442 37.2256 53.4995 37.4915C53.8231 37.7359 54.2172 37.8687 54.6227 37.87Z" fill="#004E8E"/>
<path d="M65.3779 37.7353L65.465 37.825H66.4911V38.3428H65.6991C65.4252 38.3428 65.1488 38.3553 64.8748 38.3652C64.6009 38.3752 64.3369 38.3951 64.0829 38.425L63.9932 38.3354V37.0979C63.7773 37.4754 63.4784 37.7989 63.1191 38.0441C62.7012 38.3395 62.1987 38.4915 61.6871 38.4773C61.1254 38.4871 60.5726 38.3368 60.0932 38.0441C59.6208 37.7481 59.2431 37.323 59.0049 36.8191C58.734 36.2346 58.6011 35.5957 58.6164 34.9517C58.6025 34.3039 58.7353 33.6612 59.0049 33.072C59.2435 32.5583 59.6203 32.1212 60.0932 31.8096C60.5676 31.5032 61.1224 31.3446 61.6871 31.354C62.2047 31.331 62.7164 31.4722 63.149 31.7573C63.5085 32.006 63.799 32.3418 63.9932 32.7333V28.2169L63.9061 28.1297H62.8775V27.6143H63.6794C63.9584 27.6143 64.2348 27.6143 64.5087 27.587C64.7827 27.5596 65.0467 27.5546 65.3007 27.5347L65.3903 27.6218L65.3779 37.7353ZM63.9808 36.0622V33.784C63.7853 33.2667 63.4593 32.8087 63.0344 32.4545C62.7251 32.2126 62.3462 32.0764 61.9536 32.0661C61.7026 32.0616 61.4543 32.1174 61.2294 32.2287C61.0045 32.3401 60.8096 32.5037 60.6611 32.706C60.329 33.1309 60.163 33.8239 60.163 34.7849C60.163 35.746 60.329 36.4871 60.6611 37.0083C60.7869 37.2426 60.9731 37.439 61.2003 37.5774C61.4275 37.7157 61.6876 37.7908 61.9536 37.7951C62.3473 37.7842 62.7268 37.6452 63.0344 37.3992C63.4593 37.042 63.7852 36.5816 63.9808 36.0622Z" fill="#004E8E"/>
<path d="M67.4863 38.3426V37.8297H68.4825L68.5697 37.7401V32.1182L68.4825 32.0136H67.4863V31.5007H68.2783C68.5522 31.5007 68.8262 31.4932 69.1001 31.4783C69.3765 31.4783 69.6405 31.4484 69.8946 31.4185L69.9817 31.5082V37.7326L70.0714 37.8223H71.085V38.3426H67.4863ZM69.2296 30.074C68.9891 30.0702 68.7595 29.973 68.5893 29.8029C68.4192 29.6328 68.322 29.4033 68.3181 29.1628C68.3159 29.0419 68.3388 28.922 68.3856 28.8105C68.4323 28.699 68.5018 28.5985 68.5896 28.5154C68.673 28.4307 68.7727 28.3636 68.8827 28.3182C68.9927 28.2729 69.1107 28.2502 69.2296 28.2515C69.3495 28.2505 69.4683 28.2734 69.5792 28.3189C69.6901 28.3644 69.7908 28.4315 69.8755 28.5163C69.9601 28.6012 70.027 28.7021 70.0722 28.8131C70.1174 28.9241 70.1399 29.043 70.1386 29.1628C70.1396 29.2817 70.1168 29.3996 70.0715 29.5095C70.0261 29.6194 69.9592 29.7191 69.8746 29.8027C69.7893 29.8913 69.6861 29.9609 69.5719 30.0068C69.4578 30.0527 69.3352 30.0739 69.2122 30.0691L69.2296 30.074Z" fill="#004E8E"/>
<path d="M76.3078 37.1199L76.7062 37.456C76.5299 37.7309 76.3085 37.9742 76.0513 38.1755C75.7417 38.3972 75.3655 38.5062 74.9854 38.4843C74.6869 38.4858 74.3914 38.4239 74.1187 38.3025C73.8397 38.1754 73.6048 37.9683 73.4438 37.7075C73.2536 37.3775 73.162 36.9999 73.1798 36.6194V32.1179L73.0902 32.0133H71.8574V31.5004C72.1558 31.477 72.4459 31.391 72.7089 31.2482C72.9719 31.1054 73.202 30.9088 73.384 30.6713C73.7775 30.1734 74.0017 29.4489 74.0614 28.4878H74.5745V31.5004H76.5668V32.0133H74.6716L74.5819 32.1179V36.7738C74.5625 37.0341 74.6386 37.2926 74.7961 37.5008C74.8632 37.5811 74.9475 37.6451 75.0428 37.6882C75.1381 37.7313 75.2419 37.7524 75.3465 37.7498C75.5303 37.7516 75.71 37.6949 75.8595 37.588C76.0346 37.4587 76.1862 37.3004 76.3078 37.1199Z" fill="#004E8E"/>
<path d="M87.4759 29.011V28.4956H90.4892V29.011H89.518L89.4159 29.0981V34.74C89.4339 35.4317 89.2771 36.1167 88.9601 36.7318C88.6752 37.2713 88.2435 37.7192 87.7149 38.024C87.1583 38.3345 86.5292 38.4917 85.892 38.4796C85.1293 38.5059 84.3719 38.3425 83.6879 38.0041C83.1309 37.7159 82.6729 37.2676 82.373 36.7169C82.0798 36.1609 81.9308 35.5402 81.9397 34.9118V29.0981L81.8525 29.011H80.7617V28.4956H84.6717V29.011H83.5709L83.4837 29.0981V34.7101C83.4732 35.2453 83.5706 35.777 83.7701 36.2737C83.944 36.7105 84.2429 37.0864 84.6293 37.3543C85.0568 37.6315 85.5596 37.7697 86.0688 37.7501C86.5452 37.7561 87.0146 37.6349 87.4285 37.3991C87.8426 37.1552 88.1786 36.7986 88.3973 36.3708C88.6499 35.8651 88.774 35.305 88.7584 34.74V29.0981L88.6688 29.011H87.4759Z" fill="#004E8E"/>
<path d="M98.7323 37.7351L98.8195 37.8248H99.848V38.3427H96.2344V37.8298H97.248L97.3352 37.7401V33.5349C97.36 33.1541 97.2734 32.7743 97.0861 32.4419C96.9863 32.3099 96.854 32.206 96.7022 32.1401C96.5503 32.0742 96.3841 32.0487 96.2195 32.0659C95.8181 32.0725 95.4302 32.2117 95.1162 32.4618C94.667 32.8445 94.2936 33.3082 94.0155 33.8287V37.7351L94.1026 37.8248H95.1162V38.3427H91.5176V37.8298H92.5312L92.6183 37.7401V32.1182L92.5312 32.0136H91.5176V31.5007H92.2896C92.5486 31.5007 92.8076 31.4933 93.0666 31.4783C93.3157 31.4783 93.5846 31.4484 93.8386 31.4186L93.9258 31.5082V32.8651H94.0155C94.2805 32.4337 94.6335 32.063 95.0515 31.7771C95.5271 31.4764 96.0831 31.3279 96.6453 31.3513C97.0749 31.3266 97.5036 31.4123 97.8905 31.6003C98.1764 31.7543 98.4051 31.9961 98.543 32.29C98.6784 32.593 98.7464 32.9217 98.7423 33.2535L98.7323 37.7351Z" fill="#004E8E"/>
<path d="M100.951 38.3428V37.8299H101.965L102.052 37.7403V32.1183L101.965 32.0138H100.951V31.5009H101.743L102.567 31.4785C102.841 31.4685 103.105 31.4486 103.359 31.4187L103.449 31.5083V37.7328L103.536 37.8224H104.55V38.3428H100.951ZM102.694 30.0742C102.454 30.0704 102.224 29.9731 102.054 29.8031C101.884 29.633 101.787 29.4034 101.783 29.163C101.781 29.0421 101.804 28.9221 101.85 28.8107C101.897 28.6992 101.967 28.5987 102.054 28.5156C102.138 28.4308 102.238 28.3638 102.348 28.3184C102.458 28.2731 102.576 28.2504 102.694 28.2517C102.814 28.249 102.934 28.271 103.044 28.3164C103.155 28.3618 103.256 28.4296 103.339 28.5156C103.51 28.6864 103.606 28.9179 103.606 29.1592C103.606 29.4005 103.51 29.632 103.339 29.8028C103.255 29.8906 103.153 29.9597 103.04 30.0056C102.927 30.0515 102.806 30.0732 102.684 30.0692L102.694 30.0742Z" fill="#004E8E"/>
<path d="M109.251 31.3714C109.86 31.3635 110.46 31.5127 110.995 31.8046C111.521 32.0955 111.956 32.5264 112.252 33.0495C112.561 33.636 112.723 34.2888 112.723 34.9517C112.723 35.6146 112.561 36.2675 112.252 36.8539C111.955 37.3711 111.519 37.7952 110.995 38.0789C110.46 38.3589 109.865 38.5052 109.261 38.5052C108.658 38.5052 108.063 38.3589 107.528 38.0789C107.008 37.7934 106.577 37.3694 106.283 36.8539C105.975 36.267 105.814 35.6143 105.814 34.9517C105.814 34.2891 105.975 33.6364 106.283 33.0495C106.576 32.528 107.006 32.0973 107.528 31.8046C108.056 31.5148 108.649 31.3656 109.251 31.3714ZM109.326 37.9818C109.524 37.9926 109.723 37.9631 109.91 37.8951C110.096 37.827 110.267 37.7218 110.412 37.5859C110.695 37.2857 110.893 36.9152 110.985 36.5128C111.109 36.013 111.169 35.4991 111.161 34.9841C111.173 34.4314 111.083 33.8814 110.897 33.3607C110.754 32.9456 110.509 32.5726 110.185 32.2752C109.913 32.0264 109.558 31.8872 109.189 31.8843C108.993 31.8758 108.796 31.9066 108.612 31.975C108.428 32.0435 108.259 32.148 108.116 32.2827C107.823 32.5792 107.622 32.9533 107.535 33.3607C107.418 33.8592 107.361 34.3699 107.366 34.882C107.355 35.4346 107.444 35.9847 107.63 36.5053C107.77 36.9208 108.01 37.2954 108.33 37.5959C108.604 37.8392 108.959 37.973 109.326 37.9718V37.9818Z" fill="#004E8E"/>
<path d="M121.183 37.7352L121.271 37.8248H122.299V38.3427H118.686V37.8298H119.699L119.786 37.7402V33.5349C119.811 33.1542 119.725 32.7744 119.537 32.4419C119.437 32.31 119.305 32.206 119.153 32.1402C119.002 32.0743 118.835 32.0487 118.671 32.066C118.269 32.0729 117.882 32.2121 117.567 32.4618C117.118 32.8446 116.745 33.3083 116.467 33.8287V37.7352L116.554 37.8248H117.567V38.3427H113.969V37.8298H114.982L115.07 37.7402V32.1183L114.982 32.0137H113.969V31.5008H114.741C115 31.5008 115.259 31.4933 115.518 31.4784C115.779 31.4784 116.036 31.4485 116.29 31.4186L116.379 31.5083V32.8652H116.467C116.732 32.4338 117.085 32.0631 117.503 31.7772C117.978 31.4765 118.534 31.328 119.096 31.3514C119.526 31.3264 119.955 31.4122 120.342 31.6004C120.628 31.7532 120.857 31.9953 120.994 32.2901C121.13 32.593 121.198 32.9218 121.193 33.2536L121.183 37.7352Z" fill="#004E8E"/>
<path d="M18.8486 0.273876C18.5647 0.684691 19.0827 0.746936 19.1898 0.995914C19.4388 0.995914 19.6879 0.968527 19.922 0.956078C20.0888 0.883874 20.1362 0.898813 20.054 0.956078C20.5473 0.91353 21.0436 0.990391 21.5009 1.18016L21.7225 1.21502C22.8175 1.38845 23.8938 1.66352 24.9377 2.03664L25.0497 2.07399L25.2664 2.16362L25.4831 2.25326C26.7058 2.31052 27.1915 3.47574 28.2225 3.56537L28.4018 3.68488C28.5836 3.80688 28.7604 3.93386 28.9348 4.07827L29.129 4.21272C29.1883 4.13264 29.2524 4.05615 29.3208 3.98366C29.3731 3.93884 29.1788 3.65501 29.1838 3.55043C29.251 3.48819 29.4652 3.84921 29.5374 3.82431C29.6097 3.79941 29.5374 3.4857 29.5374 3.30395L29.0966 3.00517L28.8999 2.88068L28.5263 2.67154L28.3246 2.55203C27.8539 1.81754 26.7009 2.11383 26.2401 1.50881C26.1754 1.48142 26.1057 1.44408 26.0384 1.4142C25.3144 1.09541 24.5646 0.838865 23.7971 0.647344L23.6601 0.609997C23.1371 0.472229 22.6058 0.357699 22.0662 0.266407L21.9392 0.248979C21.3714 0.248979 20.9953 0.209142 20.5271 0.164326L20.4201 0.144408C20.0503 0.153684 19.6814 0.104957 19.3268 0L19.0952 0C18.871 0 18.6494 0 18.4277 0C18.4971 0.112961 18.5325 0.24345 18.5298 0.375958C18.5124 0.415794 18.6195 0.380937 18.8486 0.273876ZM20.6965 0.637385C20.8907 0.570161 20.9455 0.57763 21.1273 0.517875C21.1124 0.537794 20.4201 0.784282 20.6965 0.637385Z" fill="#A80A18"/>
<path d="M32.0195 6.7223C32.1557 6.87169 32.2901 7.02356 32.423 7.17793C32.4028 7.13417 32.3759 7.09385 32.3433 7.05842C32.4453 6.96206 32.5692 6.89199 32.7044 6.85426C32.6361 6.59349 32.5348 6.34249 32.403 6.10732C32.3159 6.30402 32.0195 5.9679 31.8776 6.00026C31.7929 6.02018 31.8776 6.39365 31.8377 6.47083C31.7979 6.54802 31.7132 6.28161 31.6634 6.27663C31.6634 6.27663 31.6484 6.29406 31.6484 6.32393C31.7207 6.39863 31.7954 6.47083 31.8651 6.54055C31.9348 6.61026 31.9672 6.66006 32.0195 6.7223Z" fill="#A80A18"/>
<path d="M32.7309 7.58414C32.8006 7.65883 32.8678 7.73602 32.9351 7.8132C32.9234 7.79088 32.9092 7.76999 32.8927 7.75096C32.945 7.70384 33.0071 7.66896 33.0745 7.64888C33.0408 7.51895 32.9897 7.39417 32.9226 7.2779C32.8803 7.375 32.7309 7.20818 32.6611 7.22312C32.5914 7.23806 32.6611 7.41982 32.6412 7.45965C32.6213 7.49949 32.5789 7.36504 32.554 7.36006C32.5291 7.35508 32.554 7.36006 32.554 7.38496C32.5914 7.42231 32.6263 7.45965 32.6636 7.49202L32.7309 7.58414Z" fill="#A80A18"/>
<path d="M9.10633 3.85669C9.40957 3.57156 9.77946 3.36697 10.1822 3.26163C10.2519 3.22677 10.3167 3.18942 10.3839 3.15208L10.5856 3.04502L10.7923 2.93547C11.0999 2.72797 11.431 2.55748 11.7785 2.42755L11.9852 2.35037C12.7324 2.10139 13.335 1.7578 14.1544 1.63082L14.3561 1.57604C15.416 1.29506 16.4999 1.11417 17.5936 1.03576H17.6086C17.7456 0.978495 17.7431 1.00339 17.7281 1.03576C17.9423 1.02082 18.1565 1.01086 18.3731 1.00339H18.5923C18.6869 1.00339 18.7791 1.00339 18.8737 1.00339C18.6882 0.874255 18.5207 0.721036 18.3756 0.547762C18.1733 0.305422 17.9011 0.131502 17.5961 0.0498047C17.098 0.0821719 16.6199 0.136947 16.1392 0.206661L15.9375 0.248988C15.6282 0.272337 15.3205 0.313906 15.0161 0.373477C14.7172 0.652333 15.3224 0.497966 15.1082 0.746945C14.6722 0.996487 14.2214 1.21932 13.7584 1.41421C13.1981 1.39678 13.482 0.953597 12.949 0.971025L12.05 1.28972L11.8433 1.37686C11.537 1.5138 11.2506 1.66568 10.9716 1.82502C10.5856 2.22837 9.59445 2.9031 9.97548 2.95289L8.64062 3.71726C8.79005 3.73469 8.76515 3.89652 9.10633 3.85669Z" fill="#A80A18"/>
<path d="M29.4945 4.18785C29.4986 4.27548 29.4919 4.36327 29.4746 4.44928C29.6963 4.61112 29.9129 4.78042 30.1271 4.94724C29.9676 4.69184 29.8428 4.41638 29.756 4.1281C29.7386 4.18038 29.6813 4.06336 29.6464 4.03349C29.5668 4.01606 29.7087 4.18038 29.8033 4.46422C29.497 3.83928 29.7311 4.64846 29.4945 4.18785Z" fill="#A80A18"/>
<path d="M30.9002 5.61451L30.9151 5.62696C31.0048 5.32072 31.087 5.01945 31.2464 4.97962C31.1766 4.78324 31.0934 4.5919 30.9973 4.40697L30.5515 4.04346C30.5426 4.0576 30.5351 4.07262 30.5291 4.08827C30.5291 4.20529 30.6711 4.36713 30.691 4.51652C30.5067 4.60615 30.427 4.89994 30.2402 5.04684C30.4046 5.18378 30.569 5.32072 30.7383 5.46264L30.9002 5.61451Z" fill="#A80A18"/>
<path d="M18.5312 30.8735C18.5312 30.9283 18.5312 30.9781 18.5312 31.0279L18.5611 31.0503C18.5611 31.013 18.5611 30.9756 18.5611 30.9383L18.5312 30.8735Z" fill="#004E8E"/>
<path d="M23.6871 31.2243C23.6807 31.1414 23.6807 31.0582 23.6871 30.9753C23.6871 30.9753 23.6871 30.9205 23.6871 30.933C23.6871 30.9454 23.6871 30.933 23.6871 30.9753C23.6871 31.0176 23.6572 31.2716 23.6871 31.2243Z" fill="#004E8E"/>
<path d="M23.5898 31.6946C23.5898 31.6772 23.6048 31.6946 23.6098 31.6946L23.6347 31.6075C23.6222 31.5353 23.6023 31.6797 23.5898 31.6946Z" fill="#004E8E"/>
<path d="M23.6421 31.1424C23.6272 31.1175 23.6222 31.1697 23.6123 31.1847C23.6084 31.2411 23.6084 31.2976 23.6123 31.354C23.6222 31.232 23.6397 31.2519 23.6421 31.1424Z" fill="#004E8E"/>
<path d="M18.5382 31.0847C18.5369 31.0615 18.5369 31.0383 18.5382 31.015L18.5059 30.9951L18.5382 31.0847Z" fill="#004E8E"/>
<path d="M23.735 31.1795C23.735 31.0999 23.7774 31.1945 23.7798 31.0102C23.7798 30.9629 23.7798 31.0775 23.7649 31.0949C23.7649 30.9032 23.74 30.9828 23.73 31.0127C23.7201 31.0426 23.7251 31.1223 23.735 31.1795Z" fill="#004E8E"/>
<path d="M16.397 36.4405H16.3148H16.0807C16.0807 36.4405 16.0633 36.4405 16.0608 36.4405C15.5388 36.4788 15.0176 36.3573 14.5665 36.092C14.4943 36.0696 14.4221 36.0496 14.3424 36.0198C14.1681 35.9749 13.9937 35.9227 13.8219 35.8704L13.6077 36.077C13.5604 36.077 13.6401 35.9924 13.7771 35.8579C13.0491 35.641 12.3361 35.3765 11.6428 35.0662L11.5332 35.0189C10.8586 34.7863 10.2243 34.4503 9.65296 34.0229C9.5907 33.9831 9.52097 33.9358 9.45871 33.8985C9.26695 33.7789 9.08017 33.6495 8.89588 33.53L8.70661 33.4005C7.79014 32.9025 7.27712 32.1108 6.48766 31.5556L6.32578 31.3987C6.11493 31.1896 5.91071 30.9755 5.71314 30.7563L5.55874 30.587C3.73327 28.6624 2.57523 26.3171 1.84056 23.902C1.84056 23.8646 1.81814 23.8273 1.8032 23.7874C1.33183 22.1697 1.09449 20.4928 1.09842 18.8079V18.6734C1.06272 18.3684 1.05771 18.0607 1.08347 17.7547C1.08347 17.6974 1.09842 17.6402 1.10838 17.5804C1.3089 16.936 1.40393 16.2633 1.38979 15.5886C1.38979 15.5512 1.38979 15.5114 1.40972 15.4716L1.43213 15.357C1.43213 15.3197 1.44707 15.2798 1.45205 15.24C1.32504 14.3362 1.75339 13.6092 2.07715 12.9295C2.09265 12.8876 2.11096 12.8469 2.13193 12.8075C2.95834 10.4918 4.25572 8.37243 5.94226 6.58302C5.71563 6.66269 5.82521 6.50584 5.88996 6.5631C5.9276 6.55436 5.96314 6.53829 5.99456 6.5158H6.01448C6.80669 5.68853 7.67558 4.93824 8.60948 4.27499C8.39405 4.34002 8.1828 4.41818 7.97692 4.50903C8.20853 4.2227 7.72788 4.18536 7.79761 3.94385C7.54857 4.04344 7.13765 4.23515 6.88114 4.37707C6.78651 4.45425 6.69685 4.53642 6.60471 4.62605C7.16256 4.43683 6.58229 4.84764 7.01313 4.74058C6.51505 4.98956 6.8911 4.65344 6.47271 4.82523C6.53451 4.7663 6.60209 4.71375 6.67444 4.66838C6.61759 4.6771 6.56171 4.69127 6.50758 4.7107C6.24609 4.94225 5.98709 5.17878 5.73804 5.42527C5.90988 5.40535 6.12904 5.36801 6.10414 5.44021C6.07923 5.51241 5.36946 5.93817 5.60605 5.93817C4.93115 6.21702 5.32713 5.96555 5.27732 5.92572H5.25989C3.45661 7.81992 2.06889 10.0697 1.18558 12.5311C1.18558 12.571 1.16317 12.6108 1.15071 12.6481C0.709912 15.0483 -0.398319 17.4285 0.14459 19.9382C0.14459 19.983 0.14459 20.0229 0.14459 20.0627C0.255134 21.7107 0.584258 23.3366 1.12332 24.8979C1.14822 24.9701 1.17313 25.0448 1.20052 25.117C1.41909 25.7955 1.69658 26.4537 2.02983 27.0839C2.08277 26.9821 2.16185 26.8962 2.25895 26.8349C2.24151 26.6855 2.09707 26.5212 2.09956 26.4067C2.10449 26.3898 2.11206 26.3739 2.12197 26.3594C2.2714 26.4789 2.42082 26.6084 2.56776 26.7254C2.66429 26.9101 2.74752 27.1015 2.8168 27.298C2.66488 27.3354 2.5827 27.6142 2.49802 27.908C2.92139 28.6126 3.39208 29.2948 3.89016 29.9795C3.93294 29.9428 3.96915 29.899 3.99725 29.8501C4.22637 30.1165 4.64725 30.7464 4.53269 30.8186C4.68958 30.9879 4.63728 30.8734 4.66468 30.8186C4.72746 30.8997 4.77474 30.9917 4.80414 31.09L4.92119 31.0277C5.03575 31.2593 5.14533 31.4908 5.25242 31.7224C5.75418 32.2556 6.28635 32.7594 6.84628 33.2312C6.90356 33.2785 6.96083 33.3258 7.0231 33.3706C8.07903 34.0429 9.06523 34.8794 10.1535 35.5417C10.1535 35.4695 10.1535 35.4098 10.1909 35.4023C10.3304 35.3699 10.6292 35.7085 10.7164 35.5118C10.7982 35.6582 10.869 35.8105 10.9281 35.9675C11.4664 36.2395 12.0396 36.4364 12.6315 36.5526L12.751 36.5874C13.0698 36.6995 13.396 36.8015 13.7248 36.8962L13.9215 36.9534C14.4196 37.0505 14.9177 37.1426 15.3958 37.2248C15.3958 37.2074 15.4207 37.1875 15.4407 37.1626C15.8939 36.7244 15.8939 36.8563 15.742 37.0306C15.9801 36.857 16.1996 36.6593 16.397 36.4405ZM6.09417 6.40127C5.68824 6.6129 5.72808 6.49837 5.66333 6.48841C5.93728 6.38633 5.88249 6.47347 6.09417 6.40127ZM5.82521 5.94066C5.73555 5.99045 5.59111 6.06017 5.40931 6.14482C5.40931 6.13237 5.40931 6.11992 5.40931 6.10747C5.67828 5.97551 5.85509 5.90082 5.82521 5.94066ZM4.64476 7.30257C4.3484 7.38971 4.83403 7.10339 4.52771 7.19053C5.02579 7.01375 4.67464 7.24779 4.64476 7.30257ZM4.52522 7.1731C4.25874 7.2702 4.31851 7.18804 4.19897 7.20547C4.5302 7.07351 4.44801 7.16563 4.52522 7.1731Z" fill="#A80A18"/>
<path d="M25.0553 35.355C24.9654 35.3223 24.8773 35.2849 24.7913 35.2429C24.749 35.1956 24.7091 35.1458 24.6693 35.0985L24.1861 34.7773C24.2288 34.8445 24.2592 34.9187 24.2758 34.9964L24.2235 34.9541L24.104 34.857C23.7428 34.5558 23.5361 34.2196 23.0928 34.1549L22.9609 34.0752L22.8886 34.0329C22.9467 34.0367 23.0049 34.0367 23.063 34.0329L22.9708 33.9707L23.4689 32.2104C23.4701 32.1955 23.4701 32.1805 23.4689 32.1656C23.4805 32.1242 23.4864 32.0815 23.4863 32.0386C23.4863 32.1058 23.4863 32.1481 23.4863 32.1755V32.1432C23.4863 32.0336 23.4863 31.9564 23.5038 32.0386C23.5212 32.1207 23.5038 32.061 23.5038 32.1232L23.5212 32.0635C23.5212 31.9863 23.5212 31.8668 23.5212 31.8145C23.5212 31.7622 23.5212 31.934 23.5212 31.9714V31.9365C23.5212 31.8917 23.5212 31.8245 23.5212 31.7697C23.5212 31.8021 23.5212 31.8394 23.5212 31.8718V31.8369C23.5112 31.7159 23.5112 31.5944 23.5212 31.4734C23.4963 31.6975 23.4789 31.8145 23.4863 31.4311C23.4863 31.3265 23.4714 31.5182 23.4664 31.3887C23.4614 31.2593 23.4938 31.2792 23.5162 31.3464C23.5162 31.1398 23.5411 31.329 23.5461 31.1746C23.5312 31.0875 23.5038 31.2643 23.5137 31.0078C23.5052 31.0236 23.4985 31.0403 23.4938 31.0576C23.4926 31.0444 23.4926 31.031 23.4938 31.0178L23.1974 31.2493C23.1988 31.2559 23.1988 31.2627 23.1974 31.2692V31.2916V31.3165V31.339C23.1762 31.3336 23.1539 31.3336 23.1327 31.339L23.1103 31.3589C23.1103 31.3838 23.1327 31.4311 23.1352 31.4535C23.1364 31.4601 23.1364 31.4668 23.1352 31.4734C23.1215 31.4942 23.1065 31.5142 23.0904 31.5332L23.0729 31.5531L22.7118 31.8021V31.7547L22.3706 32.0311L22.0444 32.2477H22.007L21.8999 32.3349L21.8775 32.3498L21.8352 32.3797L21.2674 32.8278L20.9835 32.6386L20.9262 32.6785C20.8938 32.6959 20.9262 32.6785 20.9262 32.6959H20.9038C20.8345 32.584 20.745 32.4861 20.6398 32.4071L20.6224 32.3946L20.341 32.2079H20.321L20.2214 32.1531H20.2065H20.194L20.1691 32.1183L20.0247 32.0037L19.671 31.7672V31.8419C19.5935 31.8164 19.522 31.7751 19.4612 31.7207C19.4003 31.6663 19.3514 31.5999 19.3174 31.5257L18.5703 31.0277C18.5854 31.1286 18.607 31.2284 18.635 31.3265L18.7795 31.7124C18.8897 31.9252 19.0136 32.1307 19.1505 32.3274C19.102 32.3359 19.0529 32.3409 19.0036 32.3423L19.6511 34.0852L19.5092 34.1972C19.5107 34.2008 19.5116 34.2046 19.5116 34.2084C19.5116 34.2123 19.5107 34.2161 19.5092 34.2196C19.5104 34.2304 19.5104 34.2413 19.5092 34.252C19.313 34.4261 19.0964 34.5758 18.8641 34.6977L18.2814 35.1583C18.3561 35.2629 18.4856 35.3923 18.4507 35.4322C18.4159 35.472 18.1569 35.3351 18.1394 35.3973C18.1743 35.462 18.3885 35.5591 18.3885 35.6064C18.3723 35.6735 18.3614 35.7418 18.3561 35.8106H18.1917C18.0373 35.7907 17.8829 35.7782 17.731 35.7708H17.5816L17.5094 35.8006L17.0586 36.1567L20.3733 36.0197L20.9162 37.4813L20.976 37.4489C21.0333 37.4763 21.0681 37.5086 21.0457 37.5609C21.0233 37.6132 21.0034 37.6107 20.9735 37.6356L21.0009 37.7153C21.0657 37.7153 21.1379 37.7153 21.1354 37.7302C21.1329 37.7452 21.0756 37.7825 21.0358 37.8074L21.0582 37.8672C21.1454 37.8672 21.2898 37.8672 21.3072 37.9095C21.3072 37.9095 21.3072 37.9219 21.3072 37.9269L21.1304 38.0215L21.494 39L21.5239 38.883L21.5438 38.8108C21.7007 38.8432 21.626 38.4722 21.6683 38.4L21.6833 38.3203C21.7206 38.2058 21.7555 38.0937 21.7953 37.9867L21.8128 37.912L21.8725 37.663C21.8725 37.6456 21.8726 37.6182 21.8875 37.5983C21.9547 37.4339 21.9149 37.0281 22.0743 37.0281L22.0967 36.9733C22.134 36.8812 22.1714 36.7891 22.2063 36.6945L22.2312 36.6322L22.2486 36.6049L22.4379 35.9301L24.5423 35.843C24.7557 35.8015 24.9724 35.7782 25.1898 35.7733H25.2471L25.6082 35.706L25.0553 35.355Z" fill="#A80A18"/>
</svg>
