<svg width="163" height="47" viewBox="0 0 163 47" fill="none" xmlns="http://www.w3.org/2000/svg">
<path d="M20.9756 28.457V28.523H17.3029C17.2009 28.1779 17.0839 27.7819 16.9459 27.3228C16.8078 26.8637 16.6608 26.4046 16.5018 25.9096H11.836C11.5479 26.9097 11.2819 27.7809 11.0379 28.523H7.36523V28.478L11.794 14.8467H16.5468L20.9756 28.457ZM14.1284 17.3101C13.9814 18.0452 13.7743 18.9364 13.5013 19.9896C13.2282 21.0427 12.9402 22.1139 12.6371 23.2091H15.7247C15.4106 22.1149 15.1156 21.0417 14.8395 19.9896C14.5665 18.9364 14.3564 18.0452 14.2124 17.3101H14.1284Z" fill="white"/>
<path d="M25.9435 28.5229H22.502V13.9824H25.9435V28.5229Z" fill="white"/>
<path d="M32.5338 17.8917C33.6658 17.8571 34.7962 18.003 35.8824 18.3238C36.2843 18.4507 36.6567 18.6569 36.9777 18.93C37.2988 19.2031 37.5619 19.5377 37.7517 19.914C38.1518 20.6822 38.3518 21.7944 38.3518 23.2506V28.5225H35.2133L35.1052 27.5293H35.0392C34.7049 27.9321 34.2625 28.2309 33.764 28.3905C33.0362 28.6324 32.271 28.7421 31.5046 28.7145C29.0222 28.7145 27.781 27.5443 27.781 25.2039C27.7591 24.7646 27.8362 24.3259 28.0065 23.9203C28.1768 23.5147 28.4361 23.1525 28.7652 22.8605C29.4193 22.2904 30.4524 22.0064 31.8647 22.0084H35.0602C35.0418 21.7564 34.9612 21.513 34.8255 21.2999C34.6899 21.0867 34.5035 20.9106 34.2831 20.7872C33.867 20.5871 33.1539 20.4871 32.1437 20.4871C31.519 20.4869 30.8951 20.5341 30.2774 20.6282C29.6773 20.7212 29.1282 20.8262 28.6661 20.9432L28.6031 20.8982L28.6241 18.3928C28.9864 18.2896 29.354 18.2065 29.7253 18.1437C30.1724 18.0657 30.6435 18.0027 31.1416 17.9607C31.6396 17.9187 32.1047 17.8917 32.5338 17.8917ZM32.4048 26.1671C33.0905 26.2053 33.7762 26.0905 34.4121 25.831C34.6194 25.7402 34.7955 25.5906 34.9186 25.4007C35.0418 25.2109 35.1067 24.9892 35.1052 24.7629V24.2228H32.6628C32.0297 24.2228 31.5856 24.3128 31.3336 24.4928C31.2163 24.5704 31.1202 24.6761 31.0542 24.8003C30.9881 24.9245 30.9542 25.0633 30.9555 25.2039C30.9409 25.3525 30.97 25.5021 31.0393 25.6343C31.1086 25.7665 31.2151 25.8756 31.3456 25.9481C31.6758 26.1055 32.0392 26.1807 32.4048 26.1671Z" fill="white"/>
<path d="M51.2841 22.8039C51.2841 24.7483 50.8841 26.2205 50.0839 27.2207C49.2838 28.2208 47.9376 28.7209 46.0453 28.7209C44.9791 28.7209 43.9889 28.6819 43.0747 28.6039C42.1746 28.5259 41.3585 28.4269 40.6743 28.3039L40.6113 28.2589V13.9824H44.0679V19.6204H44.1519C44.3489 19.109 44.7002 18.6717 45.1571 18.3692C45.7614 18.016 46.4568 17.8499 47.1554 17.8921C49.9099 17.8921 51.2861 19.5294 51.2841 22.8039ZM44.0829 23.17V25.6964C44.4798 25.7591 44.8813 25.7882 45.2831 25.7834C45.8184 25.8015 46.3533 25.7398 46.8704 25.6004C47.0504 25.5471 47.2164 25.4546 47.3565 25.3296C47.4966 25.2046 47.6072 25.0501 47.6805 24.8773C47.8621 24.3791 47.9426 23.8497 47.9176 23.32C47.9176 22.4709 47.7945 21.8468 47.5515 21.4417C47.3085 21.0366 46.8014 20.8416 46.0513 20.8416C45.792 20.8315 45.5333 20.8729 45.2902 20.9636C45.047 21.0542 44.8243 21.1923 44.635 21.3697C44.2589 21.7257 44.0709 22.3238 44.0709 23.164L44.0829 23.17Z" fill="white"/>
<path d="M57.1157 17.8917C58.2477 17.8571 59.3781 18.003 60.4643 18.3238C60.8664 18.4503 61.239 18.6562 61.5601 18.9294C61.8812 19.2026 62.1442 19.5374 62.3336 19.914C62.7336 20.6822 62.9337 21.7944 62.9337 23.2506V28.5225H59.7951L59.6871 27.5293H59.6241C59.2893 27.9314 58.847 28.2301 58.3489 28.3905C57.6268 28.63 56.8679 28.7397 56.1075 28.7145C53.6131 28.7145 52.3669 27.5483 52.3689 25.2159C52.347 24.7766 52.424 24.3379 52.5944 23.9323C52.7647 23.5267 53.024 23.1645 53.353 22.8725C54.0072 22.3024 55.0403 22.0184 56.4526 22.0204H59.6511C59.6319 21.7686 59.5509 21.5255 59.4154 21.3125C59.2799 21.0995 59.0939 20.9232 58.874 20.7992C58.4539 20.5891 57.7428 20.4991 56.7346 20.4991C56.1089 20.499 55.484 20.5462 54.8653 20.6402C54.2532 20.7342 53.7171 20.8392 53.257 20.9552L53.191 20.9102L53.212 18.4048C53.5743 18.302 53.9419 18.2189 54.3132 18.1557C54.7603 18.0777 55.2314 18.0147 55.7295 17.9727C56.2275 17.9307 56.6836 17.8917 57.1157 17.8917ZM56.9867 26.1671C57.6734 26.2055 58.3601 26.0907 58.997 25.831C59.2035 25.7394 59.3787 25.5895 59.5013 25.3998C59.6239 25.2101 59.6884 24.9887 59.6871 24.7629V24.2228H57.2477C56.6116 24.2228 56.1705 24.3128 55.9185 24.4928C55.8011 24.5704 55.7051 24.6761 55.6391 24.8003C55.573 24.9245 55.5391 25.0633 55.5404 25.2039C55.5255 25.3522 55.5541 25.5016 55.6229 25.6338C55.6917 25.766 55.7975 25.8752 55.9275 25.9481C56.2578 26.1052 56.6211 26.1803 56.9867 26.1671Z" fill="white"/>
<path d="M78.2675 17.8923C78.7425 17.8711 79.2163 17.955 79.6551 18.1381C80.094 18.3212 80.4869 18.5989 80.8059 18.9515C81.432 19.6576 81.7451 20.8818 81.7451 22.6241V28.5231H78.2885L78.2675 23.0562C78.31 22.5273 78.2062 21.9968 77.9674 21.523C77.7574 21.2049 77.3493 21.0459 76.7462 21.0459C76.1431 21.0459 75.7351 21.2049 75.525 21.523C75.2849 21.9964 75.181 22.5272 75.225 23.0562V28.5231H71.7444L71.7114 23.0562C71.7553 22.5272 71.6514 21.9964 71.4113 21.523C71.2013 21.2049 70.7962 21.0459 70.1901 21.0459C69.584 21.0459 69.1789 21.2049 68.9689 21.523C68.7301 21.9968 68.6263 22.5273 68.6689 23.0562V28.5231H65.1973V18.0034H68.4798L68.6539 19.9267H68.7109C68.8663 19.3333 69.2107 18.8067 69.692 18.4264C70.2805 18.0313 70.983 17.8415 71.6904 17.8863C72.4114 17.8466 73.1265 18.0356 73.7337 18.4264C74.2308 18.7882 74.5735 19.3238 74.6939 19.9267H74.7599C74.9238 19.3086 75.3121 18.7737 75.8491 18.4264C76.3952 18.0704 77.2013 17.8923 78.2675 17.8923Z" fill="white"/>
<path d="M88.1209 17.8917C89.253 17.8571 90.3833 18.003 91.4695 18.3238C91.8714 18.4507 92.2438 18.6569 92.5649 18.93C92.8859 19.2031 93.1491 19.5377 93.3388 19.914C93.7389 20.6822 93.9389 21.7944 93.9389 23.2506V28.5225H90.8004L90.6924 27.5293H90.6173C90.2843 27.9321 89.8428 28.2309 89.3451 28.3905C88.6211 28.6307 87.8601 28.7404 87.0977 28.7145C84.6053 28.7145 83.3591 27.5483 83.3591 25.2159C83.3372 24.7766 83.4143 24.3379 83.5846 23.9323C83.755 23.5267 84.0142 23.1645 84.3433 22.8725C84.9974 22.3024 86.0306 22.0184 87.4428 22.0204H90.6413C90.6223 21.7682 90.5411 21.5247 90.405 21.3116C90.2689 21.0985 90.082 20.9224 89.8612 20.7992C89.4451 20.5991 88.733 20.4991 87.7248 20.4991C87.0991 20.4989 86.4742 20.5461 85.8555 20.6402C85.2434 20.7342 84.7063 20.8392 84.2443 20.9552L84.1812 20.9102L84.2023 18.4048C84.5645 18.3017 84.9321 18.2185 85.3034 18.1557C85.7505 18.0777 86.2216 18.0147 86.7197 17.9727C87.2178 17.9307 87.6888 17.8917 88.1209 17.8917ZM87.9919 26.1671C88.6786 26.2055 89.3653 26.0907 90.0022 25.831C90.2087 25.7394 90.384 25.5895 90.5065 25.3998C90.6291 25.2101 90.6937 24.9887 90.6924 24.7629V24.2228H88.2499C87.6168 24.2228 87.1758 24.3128 86.9237 24.4928C86.8064 24.5704 86.7103 24.6761 86.6443 24.8003C86.5783 24.9245 86.5443 25.0633 86.5457 25.2039C86.5307 25.3522 86.5594 25.5016 86.6281 25.6338C86.6969 25.766 86.8028 25.8752 86.9327 25.9481C87.263 26.1052 87.6264 26.1803 87.9919 26.1671Z" fill="white"/>
<path d="M106.136 28.5227H102.68V14.8464H108.771C109.887 14.8052 111.002 14.9742 112.056 15.3445C112.833 15.6357 113.468 16.2163 113.827 16.9647C114.187 17.7119 114.367 18.729 114.367 20.0103C114.405 21.0211 114.221 22.0281 113.827 22.9598C113.464 23.7178 112.833 24.3144 112.056 24.6341C111.009 25.0338 109.891 25.2175 108.771 25.1741H106.136V28.5227ZM108.21 17.6759H106.136V22.3417H108.21C109.234 22.3417 109.918 22.1696 110.262 21.8256C110.607 21.4775 110.781 20.8744 110.781 20.0253C110.781 19.1761 110.607 18.609 110.262 18.243C109.917 17.8769 109.233 17.6759 108.21 17.6759Z" fill="white"/>
<path d="M115.445 23.3379C115.445 21.4076 115.855 20.0173 116.676 19.1672C117.496 18.317 118.886 17.892 120.846 17.892C121.926 17.8498 123.001 18.0412 124 18.4531C124.771 18.8072 125.384 19.4347 125.719 20.2144C126.105 21.2089 126.285 22.2716 126.247 23.3379C126.285 24.3924 126.105 25.4434 125.719 26.4254C125.383 27.1992 124.769 27.8198 124 28.1657C123 28.5706 121.924 28.7578 120.846 28.7148C118.888 28.7148 117.498 28.2937 116.676 27.4516C115.853 26.6094 115.443 25.2382 115.445 23.3379ZM120.846 25.7563C121.68 25.7563 122.247 25.5733 122.542 25.2042C122.836 24.8351 122.986 24.193 122.986 23.2719C122.986 22.3507 122.836 21.7716 122.542 21.3816C122.247 20.9915 121.68 20.8085 120.846 20.8085C120.012 20.8085 119.481 21.0005 119.172 21.3816C118.863 21.7626 118.707 22.3927 118.707 23.2719C118.707 24.151 118.863 24.8381 119.172 25.2042C119.481 25.5703 120.039 25.7563 120.846 25.7563Z" fill="white"/>
<path d="M127.606 25.5406C128.824 25.8698 130.083 26.0293 131.345 26.0147C131.846 26.0227 132.346 26.0017 132.845 25.9516C133.083 25.9422 133.315 25.8675 133.514 25.7356C133.572 25.6842 133.617 25.6207 133.647 25.5496C133.677 25.4785 133.691 25.4017 133.688 25.3245C133.703 25.2294 133.684 25.1321 133.634 25.0494C133.585 24.9668 133.509 24.9038 133.418 24.8715C133.065 24.7741 132.708 24.695 132.347 24.6344L130.631 24.3044C129.538 24.0883 128.75 23.7463 128.266 23.2782C127.782 22.8101 127.541 22.11 127.543 21.1778C127.543 19.9076 127.921 19.0435 128.677 18.5854C129.433 18.1273 130.64 17.8963 132.296 17.8923C133.174 17.8849 134.051 17.939 134.921 18.0543C135.564 18.1378 136.199 18.2712 136.821 18.4534L136.776 21.0698L136.713 21.1328C135.474 20.7491 134.183 20.5598 132.887 20.5717C132.411 20.549 131.935 20.5965 131.474 20.7128C131.353 20.7444 131.248 20.8166 131.174 20.9172C131.101 21.0178 131.065 21.1406 131.072 21.2648C131.066 21.3909 131.109 21.5142 131.192 21.6099C131.353 21.7359 131.542 21.8214 131.744 21.8589C132.044 21.937 132.485 22.033 133.103 22.159L134.681 22.459C135.407 22.5691 136.083 22.8917 136.626 23.3862C137.042 23.8183 137.251 24.5024 137.253 25.4386C137.286 26.1205 137.128 26.7982 136.797 27.3949C136.438 27.9179 135.894 28.2848 135.275 28.4211C134.309 28.6495 133.318 28.7504 132.326 28.7211C131.449 28.7255 130.572 28.6795 129.7 28.5831C128.902 28.4901 128.185 28.3761 127.552 28.247V25.5856L127.606 25.5406Z" fill="white"/>
<path d="M139.298 25.3663V20.8326H138.002V18.0211H139.622L140.27 15.4526H142.755V18.0211H145.107V20.8326H142.755V24.6042C142.729 24.8906 142.781 25.1787 142.905 25.4383C143.007 25.5884 143.235 25.6634 143.595 25.6634C143.826 25.6634 144.072 25.6634 144.33 25.6334C144.588 25.6034 144.849 25.5854 145.107 25.5554L145.173 25.6004V28.4148C144.277 28.6395 143.354 28.7405 142.431 28.7149C141.291 28.7149 140.486 28.4569 140.009 27.9378C139.532 27.4187 139.298 26.5635 139.298 25.3663Z" fill="white"/>
<path d="M151.116 17.8917C152.248 17.8571 153.378 18.003 154.464 18.3238C154.866 18.4507 155.239 18.6569 155.56 18.93C155.881 19.2031 156.144 19.5377 156.334 19.914C156.734 20.6822 156.934 21.7944 156.934 23.2506V28.5225H153.795L153.687 27.5293H153.627C153.293 27.9321 152.85 28.2309 152.352 28.3905C151.629 28.6307 150.869 28.7405 150.108 28.7145C147.613 28.7145 146.367 27.5483 146.369 25.2159C146.347 24.7766 146.424 24.3379 146.594 23.9323C146.765 23.5267 147.024 23.1645 147.353 22.8725C148.007 22.3024 149.04 22.0184 150.453 22.0204H153.648C153.63 21.7684 153.549 21.525 153.413 21.3119C153.278 21.0987 153.091 20.9226 152.871 20.7992C152.455 20.5991 151.742 20.4991 150.732 20.4991C150.107 20.499 149.483 20.5462 148.865 20.6402C148.25 20.7332 147.716 20.8382 147.254 20.9552L147.191 20.9102L147.212 18.4048C147.574 18.3017 147.942 18.2185 148.313 18.1557C148.76 18.0777 149.231 18.0147 149.729 17.9727C150.228 17.9307 150.684 17.8917 151.116 17.8917ZM150.987 26.1671C151.672 26.2053 152.358 26.0905 152.994 25.831C153.201 25.7402 153.377 25.5906 153.501 25.4007C153.624 25.2109 153.689 24.9892 153.687 24.7629V24.2228H151.245C150.612 24.2228 150.168 24.3128 149.915 24.4928C149.798 24.5704 149.702 24.6761 149.636 24.8003C149.57 24.9245 149.536 25.0633 149.537 25.2039C149.523 25.3525 149.552 25.5021 149.621 25.6343C149.69 25.7665 149.797 25.8756 149.927 25.9481C150.258 26.1055 150.621 26.1807 150.987 26.1671Z" fill="white"/>
<path d="M162.652 28.5229H159.195V13.9824H162.652V28.5229Z" fill="white"/>
<path d="M47.276 45.5662C48.0472 45.5647 48.8053 45.3665 49.4784 44.9901C50.2456 44.5538 50.9268 43.9814 51.4887 43.3008L51.9658 43.7059C51.3804 44.4984 50.6404 45.1639 49.7905 45.6622C48.9157 46.1536 47.9251 46.4012 46.922 46.3793H46.904C46.1259 46.3867 45.3547 46.2335 44.6386 45.9293C43.951 45.635 43.3304 45.2043 42.8143 44.6631C42.2908 44.1123 41.8828 43.4625 41.6141 42.7517C41.3225 41.9855 41.178 41.1711 41.188 40.3513C41.1776 39.4961 41.3377 38.6475 41.6591 37.8549C41.957 37.1207 42.3988 36.4535 42.9583 35.8926C43.5089 35.3396 44.165 34.9029 44.8876 34.6083C45.6295 34.3055 46.4237 34.1515 47.225 34.1553C47.7738 34.1479 48.3204 34.2258 48.8453 34.3863C49.311 34.5338 49.755 34.7426 50.1655 35.0074L50.5166 34.3323H51.1377C51.1857 34.9324 51.2517 35.5325 51.3417 36.1326C51.4317 36.7327 51.5337 37.3148 51.6418 37.8669L51.0567 38.0439C50.8712 37.4806 50.6 36.9493 50.2525 36.4687C49.9756 36.0915 49.638 35.763 49.2534 35.4965C48.9269 35.2721 48.5647 35.1047 48.1822 35.0014C47.8498 34.9092 47.5069 34.8608 47.162 34.8574C46.3907 34.8403 45.636 35.0834 45.0196 35.5475C44.3929 36.0454 43.9128 36.7038 43.6304 37.4528C43.2926 38.3364 43.1276 39.2765 43.1443 40.2223C43.1284 41.1602 43.2934 42.0924 43.6304 42.9678C43.9187 43.7175 44.4088 44.3728 45.0466 44.8611C45.6919 45.3351 46.4755 45.583 47.276 45.5662Z" fill="white"/>
<path d="M56.3435 45.4763L56.4665 45.5843H58.3418V46.2084H53.334V45.5903H54.5552L54.6602 45.4823V38.7071L54.5552 38.5811H53.334V37.963H54.2611C54.5612 37.963 54.8882 37.963 55.2003 37.936C55.5124 37.909 55.8244 37.9 56.1305 37.864L56.2355 37.972V39.9073H56.3435V45.4763ZM56.3435 39.9013C56.6435 39.3288 57.051 38.8194 57.5437 38.4011C58.0051 38.0095 58.5918 37.7965 59.197 37.801C59.4595 37.7904 59.7199 37.8516 59.9501 37.978C60.135 38.0847 60.2835 38.2447 60.3762 38.4371C60.4633 38.6252 60.5084 38.8299 60.5082 39.0372C60.5126 39.1906 60.4859 39.3434 60.4297 39.4862C60.3735 39.6291 60.2889 39.759 60.1812 39.8683C60.0722 39.9797 59.9412 40.0672 59.7966 40.1251C59.6519 40.1829 59.4967 40.21 59.341 40.2044C59.1876 40.2091 59.0349 40.1817 58.8928 40.1238C58.7507 40.0659 58.6223 39.9789 58.5159 39.8683C58.4081 39.759 58.3235 39.6291 58.2673 39.4862C58.2111 39.3434 58.1844 39.1906 58.1888 39.0372C58.1943 38.875 58.2331 38.7157 58.3028 38.5691C58.3605 38.4293 58.4417 38.3005 58.5429 38.1881L58.5249 38.6831C58.2863 38.7607 58.0622 38.8773 57.8618 39.0282C57.5933 39.2405 57.3578 39.4912 57.1626 39.7723C56.846 40.2232 56.568 40.7 56.3315 41.1976L56.3435 39.9013Z" fill="white"/>
<path d="M65.8118 45.6384C66.37 45.653 66.9204 45.5049 67.3961 45.2123C67.8151 44.9487 68.1992 44.6331 68.5393 44.2732L69.0163 44.6813C68.7614 44.9826 68.4803 45.2607 68.1762 45.5124C67.8408 45.7866 67.46 45.9998 67.051 46.1425C66.5377 46.3132 65.9986 46.3934 65.4577 46.3795C64.7383 46.3857 64.029 46.2091 63.3964 45.8665C62.7627 45.5233 62.2354 45.0126 61.8721 44.3902C61.4957 43.6847 61.2988 42.8974 61.2988 42.0978C61.2988 41.2982 61.4957 40.5109 61.8721 39.8054C62.234 39.1758 62.7611 38.657 63.3964 38.3052C64.0274 37.9572 64.7372 37.7774 65.4577 37.7831C66.1266 37.7659 66.7894 37.9143 67.3871 38.2151C67.937 38.5117 68.3799 38.9735 68.6533 39.5354C68.9772 40.2326 69.1324 40.9964 69.1064 41.7648H62.8923V41.1466H67.174C67.1738 40.4388 67.0073 39.741 66.6879 39.1093C66.5534 38.8787 66.3571 38.6902 66.1212 38.5651C65.8853 38.44 65.6191 38.3832 65.3527 38.4012C65.121 38.392 64.8897 38.4289 64.6724 38.5098C64.455 38.5906 64.2559 38.7139 64.0865 38.8723C63.7343 39.2338 63.4838 39.682 63.3604 40.1715C63.192 40.7954 63.1112 41.4397 63.1203 42.0858C63.1073 42.7237 63.2311 43.357 63.4834 43.9431C63.6941 44.4346 64.0305 44.8619 64.4586 45.1823C64.8484 45.4769 65.3232 45.6369 65.8118 45.6384Z" fill="white"/>
<path d="M78.7709 45.4752L78.8759 45.5832H80.1121V46.2073H79.1579C78.8279 46.2073 78.4948 46.2223 78.1648 46.2344C77.8347 46.2464 77.5167 46.2704 77.2106 46.3064L77.1026 46.1983V44.7071C76.8424 45.162 76.4823 45.5519 76.0494 45.8473C75.5459 46.2034 74.9405 46.3865 74.3241 46.3694C73.6474 46.3812 72.9814 46.2001 72.4038 45.8473C71.8346 45.4907 71.3795 44.9783 71.0926 44.371C70.7661 43.6667 70.606 42.8967 70.6245 42.1207C70.6077 41.3399 70.7677 40.5654 71.0926 39.8553C71.3799 39.2363 71.834 38.7095 72.4038 38.334C72.9753 37.9647 73.6437 37.7736 74.3241 37.7849C74.9478 37.7573 75.5642 37.9274 76.0854 38.271C76.5186 38.5707 76.8685 38.9754 77.1026 39.4472V34.0043L76.9976 33.8993H75.7584V33.2781H76.7245C77.0606 33.2781 77.3936 33.2781 77.7237 33.2451C78.0538 33.2121 78.3718 33.2061 78.6779 33.1821L78.7859 33.2871L78.7709 45.4752ZM77.0876 43.4589V40.7134C76.852 40.0899 76.4593 39.538 75.9474 39.1111C75.5747 38.8196 75.1182 38.6555 74.6452 38.6431C74.3428 38.6377 74.0436 38.7049 73.7727 38.8391C73.5017 38.9733 73.2669 39.1705 73.0879 39.4142C72.6878 39.9263 72.4878 40.7614 72.4878 41.9196C72.4878 43.0778 72.6878 43.971 73.0879 44.5991C73.2396 44.8814 73.4639 45.1182 73.7376 45.2849C74.0114 45.4515 74.3247 45.5421 74.6452 45.5472C75.1196 45.5341 75.5768 45.3666 75.9474 45.0702C76.4593 44.6397 76.852 44.0848 77.0876 43.4589Z" fill="white"/>
<path d="M81.3125 46.2075V45.5894H82.5127L82.6177 45.4814V38.7062L82.5127 38.5802H81.3125V37.9621H82.2667C82.5967 37.9621 82.9268 37.9531 83.2568 37.9351C83.5899 37.9351 83.9079 37.8991 84.214 37.8631L84.319 37.9711V45.4724L84.427 45.5804H85.6482V46.2075H81.3125ZM83.4129 36.2428C83.123 36.2382 82.8464 36.121 82.6414 35.916C82.4365 35.7111 82.3193 35.4344 82.3147 35.1446C82.3119 34.999 82.3396 34.8544 82.3959 34.7201C82.4522 34.5858 82.536 34.4646 82.6417 34.3645C82.7422 34.2623 82.8624 34.1815 82.9949 34.1269C83.1274 34.0722 83.2695 34.0449 83.4129 34.0465C83.5573 34.0452 83.7005 34.0729 83.8341 34.1277C83.9677 34.1825 84.089 34.2633 84.191 34.3656C84.293 34.4679 84.3736 34.5894 84.428 34.7232C84.4824 34.857 84.5096 35.0002 84.508 35.1446C84.5093 35.2879 84.4818 35.43 84.4272 35.5624C84.3725 35.6949 84.2919 35.815 84.19 35.9158C84.0872 36.0226 83.9629 36.1064 83.8253 36.1618C83.6877 36.2171 83.54 36.2427 83.3919 36.2368L83.4129 36.2428Z" fill="white"/>
<path d="M91.942 44.7338L92.4221 45.1389C92.2096 45.4702 91.9429 45.7634 91.6329 46.006C91.26 46.2732 90.8067 46.4045 90.3487 46.3781C89.9891 46.38 89.6331 46.3053 89.3045 46.1591C88.9684 46.0059 88.6854 45.7563 88.4914 45.4419C88.2622 45.0443 88.1518 44.5892 88.1733 44.1307V38.7058L88.0653 38.5798H86.5801V37.9617C86.9396 37.9334 87.2891 37.8298 87.606 37.6577C87.9229 37.4856 88.2 37.2487 88.4194 36.9625C88.8935 36.3624 89.1635 35.4893 89.2355 34.3311H89.8536V37.9617H92.254V38.5798H89.9707L89.8626 38.7058V44.3168C89.8392 44.6305 89.931 44.942 90.1207 45.1929C90.2015 45.2896 90.3031 45.3668 90.4179 45.4188C90.5327 45.4707 90.6578 45.4961 90.7838 45.493C91.0053 45.4952 91.2218 45.4269 91.4019 45.2979C91.6128 45.1421 91.7955 44.9513 91.942 44.7338Z" fill="white"/>
<path d="M105.398 34.9619V34.3408H109.029V34.9619H107.858L107.735 35.0669V41.8661C107.757 42.6997 107.568 43.5253 107.186 44.2665C106.843 44.9166 106.323 45.4564 105.686 45.8238C105.015 46.198 104.257 46.3874 103.49 46.3729C102.571 46.4045 101.658 46.2076 100.834 45.7998C100.163 45.4525 99.6113 44.9122 99.2499 44.2485C98.8967 43.5785 98.7172 42.8305 98.7278 42.0731V35.0669L98.6228 34.9619H97.3086V34.3408H102.019V34.9619H100.693L100.588 35.0669V41.8301C100.575 42.475 100.693 43.1159 100.933 43.7144C101.143 44.2409 101.503 44.6938 101.968 45.0166C102.483 45.3507 103.089 45.5174 103.703 45.4937C104.277 45.5008 104.842 45.3548 105.341 45.0706C105.84 44.7768 106.245 44.347 106.508 43.8314C106.813 43.222 106.962 42.547 106.943 41.8661V35.0669L106.835 34.9619H105.398Z" fill="white"/>
<path d="M118.96 45.4757L119.065 45.5837H120.304V46.2078H115.951V45.5897H117.172L117.277 45.4817V40.4138C117.307 39.9549 117.202 39.4973 116.977 39.0966C116.856 38.9376 116.697 38.8123 116.514 38.7329C116.331 38.6536 116.131 38.6228 115.933 38.6435C115.449 38.6514 114.982 38.8192 114.603 39.1206C114.062 39.5819 113.612 40.1406 113.277 40.7679V45.4757L113.382 45.5837H114.603V46.2078H110.268V45.5897H111.489L111.594 45.4817V38.7065L111.489 38.5805H110.268V37.9624H111.198C111.51 37.9624 111.822 37.9534 112.134 37.9354C112.434 37.9354 112.758 37.8994 113.064 37.8634L113.169 37.9714V39.6067H113.277C113.596 39.0868 114.022 38.64 114.525 38.2955C115.098 37.9331 115.768 37.7541 116.446 37.7824C116.963 37.7526 117.48 37.8559 117.946 38.0824C118.29 38.268 118.566 38.5594 118.732 38.9136C118.895 39.2787 118.977 39.6749 118.972 40.0748L118.96 45.4757Z" fill="white"/>
<path d="M121.631 46.2077V45.5896H122.852L122.957 45.4816V38.7065L122.852 38.5804H121.631V37.9623H122.585L123.578 37.9353C123.908 37.9233 124.226 37.8993 124.532 37.8633L124.64 37.9713V45.4726L124.745 45.5806H125.967V46.2077H121.631ZM123.731 36.243C123.441 36.2384 123.165 36.1212 122.96 35.9163C122.755 35.7113 122.638 35.4347 122.633 35.1448C122.63 34.9992 122.658 34.8546 122.714 34.7203C122.771 34.586 122.854 34.4649 122.96 34.3647C123.061 34.2625 123.181 34.1817 123.313 34.1271C123.446 34.0724 123.588 34.0451 123.731 34.0467C123.876 34.0434 124.019 34.0699 124.153 34.1246C124.287 34.1794 124.408 34.2611 124.508 34.3647C124.714 34.5706 124.829 34.8495 124.829 35.1403C124.829 35.4312 124.714 35.7101 124.508 35.916C124.407 36.0218 124.284 36.1051 124.148 36.1604C124.012 36.2157 123.866 36.2418 123.719 36.237L123.731 36.243Z" fill="white"/>
<path d="M131.631 37.8065C132.364 37.797 133.088 37.9768 133.731 38.3286C134.365 38.6791 134.89 39.1984 135.247 39.8289C135.619 40.5356 135.814 41.3224 135.814 42.1212C135.814 42.9201 135.619 43.7069 135.247 44.4136C134.888 45.0369 134.364 45.5481 133.731 45.8899C133.087 46.2274 132.37 46.4037 131.643 46.4037C130.916 46.4037 130.199 46.2274 129.555 45.8899C128.928 45.5458 128.409 45.0349 128.054 44.4136C127.684 43.7064 127.49 42.9198 127.49 42.1212C127.49 41.3227 127.684 40.5361 128.054 39.8289C128.407 39.2004 128.926 38.6813 129.555 38.3286C130.191 37.9793 130.906 37.7995 131.631 37.8065ZM131.721 45.7729C131.96 45.7859 132.199 45.7504 132.424 45.6684C132.649 45.5864 132.855 45.4596 133.029 45.2958C133.371 44.934 133.609 44.4875 133.719 44.0026C133.87 43.4002 133.941 42.781 133.932 42.1603C133.946 41.4943 133.838 40.8314 133.614 40.2039C133.441 39.7036 133.146 39.2541 132.756 38.8957C132.428 38.5959 132.001 38.4281 131.556 38.4246C131.319 38.4144 131.083 38.4515 130.861 38.534C130.639 38.6164 130.436 38.7425 130.263 38.9047C129.91 39.262 129.668 39.7129 129.564 40.2039C129.422 40.8046 129.354 41.4202 129.36 42.0372C129.346 42.7032 129.454 43.3661 129.678 43.9936C129.846 44.4943 130.136 44.9457 130.521 45.3078C130.852 45.6011 131.279 45.7623 131.721 45.7609V45.7729Z" fill="white"/>
<path d="M146.009 45.4758L146.114 45.5838H147.353V46.2079H142.999V45.5898H144.221L144.326 45.4818V40.4139C144.355 39.955 144.251 39.4973 144.026 39.0967C143.905 38.9376 143.746 38.8124 143.563 38.733C143.38 38.6536 143.18 38.6228 142.981 38.6436C142.498 38.6519 142.031 38.8197 141.652 39.1207C141.111 39.582 140.661 40.1407 140.326 40.768V45.4758L140.431 45.5838H141.652V46.2079H137.316V45.5898H138.538L138.643 45.4818V38.7066L138.538 38.5806H137.316V37.9625H138.247C138.559 37.9625 138.871 37.9535 139.183 37.9355C139.498 37.9355 139.807 37.8995 140.113 37.8635L140.221 37.9715V39.6068H140.326C140.645 39.0869 141.071 38.6401 141.574 38.2955C142.147 37.9332 142.817 37.7542 143.494 37.7824C144.012 37.7524 144.529 37.8557 144.995 38.0825C145.34 38.2667 145.616 38.5585 145.781 38.9136C145.944 39.2788 146.026 39.675 146.021 40.0748L146.009 45.4758Z" fill="white"/>
<path d="M22.7102 0.330056C22.3682 0.82514 22.9923 0.900153 23.1213 1.2002C23.4213 1.2002 23.7214 1.1672 24.0034 1.1522C24.2045 1.06518 24.2615 1.08318 24.1625 1.1522C24.7568 1.10092 25.3548 1.19355 25.9058 1.42224L26.1728 1.46425C27.492 1.67326 28.7888 2.00475 30.0465 2.45442L30.1815 2.49943L30.4425 2.60744L30.7036 2.71546C32.1768 2.78447 32.7619 4.18871 34.0041 4.29673L34.2202 4.44076C34.4392 4.58778 34.6522 4.74081 34.8623 4.91484L35.0963 5.07686C35.1678 4.98036 35.245 4.88818 35.3274 4.80082C35.3904 4.74681 35.1563 4.40475 35.1623 4.27873C35.2433 4.20372 35.5014 4.63879 35.5884 4.60878C35.6754 4.57878 35.5884 4.20072 35.5884 3.98168L35.0573 3.62162L34.8203 3.47159L34.3702 3.21955L34.1272 3.07552C33.5601 2.19037 32.1708 2.54743 31.6157 1.81831C31.5377 1.7853 31.4537 1.7403 31.3727 1.70429C30.5004 1.32011 29.597 1.01094 28.6722 0.780133L28.5072 0.735125C27.8771 0.569097 27.237 0.431073 26.5869 0.321055L26.4338 0.300051C25.7497 0.300051 25.2967 0.252043 24.7326 0.198034L24.6035 0.17403C24.1581 0.185209 23.7136 0.126486 23.2863 0L23.0073 0C22.7372 0 22.4702 0 22.2031 0C22.2867 0.136133 22.3294 0.293388 22.3261 0.453077C22.3051 0.501085 22.4342 0.459078 22.7102 0.330056ZM24.9366 0.768131C25.1706 0.687117 25.2366 0.696118 25.4557 0.624106C25.4377 0.64811 24.6035 0.945161 24.9366 0.768131Z" fill="white"/>
<path d="M38.5799 8.10085C38.7439 8.28088 38.9059 8.46391 39.066 8.64994C39.0417 8.59721 39.0093 8.54861 38.97 8.50591C39.0929 8.38979 39.2422 8.30534 39.405 8.25987C39.3227 7.94561 39.2007 7.64313 39.042 7.35972C38.9369 7.59676 38.5799 7.19169 38.4089 7.2307C38.3068 7.2547 38.4089 7.70478 38.3609 7.79779C38.3128 7.89081 38.2108 7.56975 38.1508 7.56375C38.1508 7.56375 38.1328 7.58476 38.1328 7.62076C38.2198 7.71078 38.3098 7.79779 38.3939 7.88181C38.4779 7.96582 38.5169 8.02583 38.5799 8.10085Z" fill="white"/>
<path d="M39.4393 9.13935C39.5233 9.22936 39.6043 9.32238 39.6853 9.4154C39.6713 9.38849 39.6542 9.36332 39.6343 9.34038C39.6973 9.2836 39.7721 9.24157 39.8533 9.21736C39.8127 9.06079 39.7511 8.91041 39.6703 8.77029C39.6193 8.88731 39.4393 8.68627 39.3553 8.70428C39.2712 8.72228 39.3553 8.94132 39.3312 8.98932C39.3072 9.03733 39.2562 8.8753 39.2262 8.8693C39.1962 8.8633 39.2262 8.8693 39.2262 8.89931C39.2712 8.94432 39.3132 8.98932 39.3582 9.02833L39.4393 9.13935Z" fill="white"/>
<path d="M10.9713 4.64784C11.3366 4.30422 11.7823 4.05767 12.2675 3.93072C12.3515 3.88871 12.4295 3.8437 12.5105 3.79869L12.7536 3.66967L13.0026 3.53765C13.3732 3.28759 13.772 3.08213 14.1908 2.92555L14.4398 2.83253C15.34 2.53248 16.0661 2.11841 17.0533 1.96538L17.2963 1.89937C18.5733 1.56075 19.8793 1.34275 21.197 1.24826H21.215C21.38 1.17925 21.377 1.20925 21.359 1.24826C21.6171 1.23026 21.8751 1.21826 22.1362 1.20925H22.4002C22.5142 1.20925 22.6252 1.20925 22.7393 1.20925C22.5158 1.05363 22.314 0.868978 22.1392 0.660161C21.8954 0.368111 21.5674 0.158514 21.2 0.0600586C20.5999 0.0990652 20.0238 0.165076 19.4447 0.249091L19.2017 0.300099C18.829 0.328239 18.4583 0.378334 18.0915 0.450125C17.7314 0.786182 18.4605 0.60015 18.2025 0.900202C17.6772 1.20093 17.1341 1.46947 16.5762 1.70434C15.9011 1.68333 16.2431 1.14924 15.601 1.17025L14.5179 1.55431L14.2688 1.65933C13.8998 1.82436 13.5547 2.00739 13.2186 2.19942C12.7536 2.68551 11.5594 3.49864 12.0184 3.55865L10.4102 4.47981C10.5902 4.50081 10.5602 4.69585 10.9713 4.64784Z" fill="white"/>
<path d="M35.5377 5.04644C35.5425 5.15204 35.5345 5.25784 35.5137 5.36149C35.7807 5.55652 36.0418 5.76056 36.2998 5.96159C36.1077 5.65381 35.9573 5.32184 35.8527 4.97442C35.8317 5.03744 35.7627 4.89641 35.7207 4.86041C35.6247 4.8394 35.7957 5.03744 35.9097 5.37949C35.5407 4.62637 35.8227 5.60153 35.5377 5.04644Z" fill="white"/>
<path d="M37.2326 6.76637L37.2506 6.78137C37.3587 6.41231 37.4577 6.04925 37.6497 6.00124C37.5657 5.76458 37.4654 5.534 37.3497 5.31112L36.8126 4.87305C36.8018 4.8901 36.7927 4.90819 36.7856 4.92706C36.7856 5.06808 36.9566 5.26311 36.9806 5.44314C36.7586 5.55116 36.6625 5.90522 36.4375 6.08225C36.6355 6.24728 36.8336 6.41231 37.0376 6.58334L37.2326 6.76637Z" fill="white"/>
<path d="M22.3281 37.2061C22.3281 37.2721 22.3281 37.3321 22.3281 37.3921L22.3641 37.4191C22.3641 37.3741 22.3641 37.3291 22.3641 37.2841L22.3281 37.2061Z" fill="white"/>
<path d="M28.5394 37.6292C28.5317 37.5293 28.5317 37.429 28.5394 37.3291C28.5394 37.3291 28.5394 37.2631 28.5394 37.2781C28.5394 37.2931 28.5394 37.2781 28.5394 37.3291C28.5394 37.3801 28.5034 37.6862 28.5394 37.6292Z" fill="white"/>
<path d="M28.4219 38.1966C28.4219 38.1756 28.4399 38.1966 28.4459 38.1966L28.4759 38.0916C28.4609 38.0046 28.4369 38.1786 28.4219 38.1966Z" fill="white"/>
<path d="M28.4867 37.5309C28.4687 37.5009 28.4627 37.5639 28.4507 37.5819C28.4461 37.6499 28.4461 37.718 28.4507 37.786C28.4627 37.6389 28.4837 37.6629 28.4867 37.5309Z" fill="white"/>
<path d="M22.3359 37.4615C22.3343 37.4336 22.3343 37.4055 22.3359 37.3775L22.2969 37.3535L22.3359 37.4615Z" fill="white"/>
<path d="M28.5985 37.5759C28.5985 37.4799 28.6495 37.5939 28.6525 37.3719C28.6525 37.3148 28.6525 37.4529 28.6345 37.4739C28.6345 37.2428 28.6045 37.3388 28.5925 37.3749C28.5805 37.4109 28.5865 37.5069 28.5985 37.5759Z" fill="white"/>
<path d="M19.7579 43.9156H19.6589H19.3768C19.3768 43.9156 19.3558 43.9156 19.3528 43.9156C18.724 43.9618 18.096 43.8152 17.5525 43.4955C17.4655 43.4685 17.3785 43.4445 17.2825 43.4085C17.0724 43.3545 16.8624 43.2915 16.6554 43.2285L16.3973 43.4775C16.3403 43.4775 16.4363 43.3755 16.6014 43.2135C15.7242 42.952 14.8653 42.6333 14.0299 42.2593L13.8979 42.2023C13.0851 41.9221 12.3209 41.5172 11.6325 41.0021C11.5575 40.9541 11.4735 40.8971 11.3985 40.8521C11.1674 40.708 10.9424 40.552 10.7204 40.408L10.4923 40.252C9.38813 39.6519 8.77002 38.6977 7.81886 38.0286L7.62383 37.8396C7.36978 37.5875 7.12374 37.3295 6.8857 37.0654L6.69967 36.8614C4.5003 34.542 3.10506 31.7155 2.21991 28.805C2.21991 28.76 2.1929 28.715 2.1749 28.667C1.60698 26.7174 1.32103 24.6966 1.32575 22.666V22.504C1.28274 22.1364 1.27671 21.7655 1.30775 21.3968C1.30775 21.3277 1.32575 21.2587 1.33776 21.1867C1.57935 20.4101 1.69384 19.5995 1.67681 18.7863C1.67681 18.7413 1.67681 18.6933 1.70082 18.6453L1.72782 18.5073C1.72782 18.4623 1.74583 18.4143 1.75183 18.3662C1.5988 17.2771 2.11489 16.4009 2.50496 15.5818C2.52364 15.5313 2.54569 15.4822 2.57097 15.4347C3.56665 12.6441 5.12977 10.0899 7.16175 7.93347C6.8887 8.02949 7.02072 7.84046 7.09874 7.90947C7.14408 7.89893 7.18691 7.87956 7.22476 7.85246H7.24876C8.20324 6.8555 9.2501 5.9513 10.3753 5.152C10.1157 5.23037 9.86121 5.32456 9.61317 5.43405C9.89221 5.08899 9.31312 5.04398 9.39713 4.75293C9.09708 4.87295 8.60199 5.10399 8.29294 5.27502C8.17892 5.36803 8.0709 5.46705 7.95988 5.57507C8.632 5.34703 7.93288 5.84212 8.45197 5.71309C7.85187 6.01314 8.30494 5.60807 7.80086 5.81511C7.87531 5.74409 7.95674 5.68076 8.0439 5.62608C7.97541 5.63659 7.90808 5.65368 7.84286 5.67709C7.52781 5.95613 7.21576 6.24118 6.91571 6.53823C7.12274 6.51423 7.38679 6.46922 7.35678 6.55624C7.32678 6.64325 6.47163 7.15634 6.75668 7.15634C5.94354 7.4924 6.42062 7.18934 6.36061 7.14134H6.33961C4.16697 9.4241 2.49501 12.1354 1.43077 15.1017C1.43077 15.1497 1.40377 15.1977 1.38877 15.2427C0.857675 18.1352 -0.477552 21.0037 0.176559 24.0282C0.176559 24.0822 0.176559 24.1302 0.176559 24.1782C0.309745 26.1642 0.706284 28.1237 1.35576 30.0052C1.38577 30.0922 1.41577 30.1823 1.44878 30.2693C1.71211 31.087 2.04644 31.8802 2.44795 32.6397C2.51174 32.517 2.60701 32.4134 2.72399 32.3396C2.70299 32.1596 2.52896 31.9616 2.53196 31.8235C2.53791 31.8032 2.54702 31.784 2.55896 31.7665C2.739 31.9106 2.91903 32.0666 3.09606 32.2076C3.21237 32.4302 3.31264 32.6608 3.39611 32.8977C3.21308 32.9427 3.11406 33.2788 3.01204 33.6328C3.52213 34.482 4.08923 35.3041 4.68933 36.1293C4.74086 36.0849 4.78449 36.0322 4.81835 35.9732C5.0944 36.2943 5.60148 37.0534 5.46346 37.1404C5.65249 37.3445 5.58948 37.2065 5.62249 37.1404C5.69813 37.2382 5.75509 37.3491 5.79051 37.4675L5.93154 37.3925C6.06956 37.6715 6.20159 37.9506 6.33061 38.2296C6.93514 38.8722 7.57632 39.4793 8.25093 40.0479C8.31995 40.1049 8.38896 40.162 8.46397 40.216C9.73619 41.0261 10.9244 42.0343 12.2356 42.8324C12.2356 42.7454 12.2356 42.6734 12.2806 42.6644C12.4486 42.6254 12.8087 43.0334 12.9137 42.7964C13.0123 42.9728 13.0976 43.1564 13.1688 43.3455C13.8174 43.6734 14.508 43.9106 15.2211 44.0506L15.3651 44.0926C15.7492 44.2276 16.1423 44.3507 16.5383 44.4647L16.7754 44.5337C17.3755 44.6507 17.9756 44.7617 18.5517 44.8608C18.5517 44.8398 18.5817 44.8157 18.6057 44.7857C19.1518 44.2577 19.1518 44.4167 18.9688 44.6267C19.2556 44.4175 19.5201 44.1792 19.7579 43.9156ZM7.34478 7.71443C6.8557 7.96948 6.9037 7.83145 6.82569 7.81945C7.15575 7.69643 7.08974 7.80145 7.34478 7.71443ZM7.02072 7.15934C6.91271 7.21935 6.73868 7.30336 6.51964 7.40538C6.51964 7.39038 6.51964 7.37538 6.51964 7.36037C6.84369 7.20135 7.05673 7.11133 7.02072 7.15934ZM5.59848 8.80062C5.24142 8.90564 5.82652 8.56058 5.45746 8.6656C6.05756 8.45256 5.63449 8.73461 5.59848 8.80062ZM5.45446 8.64459C5.1334 8.76161 5.20542 8.6626 5.06139 8.6836C5.46046 8.52457 5.36144 8.63559 5.45446 8.64459Z" fill="white"/>
<path d="M30.1913 42.6075C30.083 42.5682 29.9768 42.5231 29.8732 42.4725C29.8222 42.4155 29.7742 42.3555 29.7262 42.2985L29.1441 41.9114C29.1956 41.9923 29.2321 42.0817 29.2521 42.1755L29.1891 42.1245L29.0451 42.0074C28.61 41.6444 28.361 41.2393 27.8269 41.1613L27.6679 41.0653L27.5808 41.0143C27.6508 41.0189 27.7209 41.0189 27.7909 41.0143L27.6799 40.9393L28.28 38.8179C28.2814 38.7999 28.2814 38.7819 28.28 38.7639C28.294 38.7141 28.301 38.6626 28.301 38.6109C28.301 38.6919 28.301 38.7429 28.301 38.7759V38.7369C28.301 38.6049 28.301 38.5118 28.322 38.6109C28.343 38.7099 28.322 38.6379 28.322 38.7129L28.343 38.6409C28.343 38.5479 28.343 38.4038 28.343 38.3408C28.343 38.2778 28.343 38.4848 28.343 38.5299V38.4878C28.343 38.4338 28.343 38.3528 28.343 38.2868C28.343 38.3258 28.343 38.3708 28.343 38.4098V38.3678C28.331 38.222 28.331 38.0755 28.343 37.9297C28.313 38.1998 28.292 38.3408 28.301 37.8787C28.301 37.7527 28.283 37.9838 28.277 37.8277C28.271 37.6717 28.31 37.6957 28.337 37.7767C28.337 37.5277 28.367 37.7557 28.373 37.5697C28.355 37.4647 28.322 37.6777 28.334 37.3687C28.3237 37.3877 28.3156 37.4078 28.31 37.4287C28.3085 37.4127 28.3085 37.3966 28.31 37.3807L27.9529 37.6597C27.9545 37.6676 27.9545 37.6758 27.9529 37.6837V37.7107V37.7407V37.7677C27.9273 37.7612 27.9005 37.7612 27.8749 37.7677L27.8479 37.7917C27.8479 37.8217 27.8749 37.8787 27.8779 37.9057C27.8794 37.9137 27.8794 37.9218 27.8779 37.9297C27.8613 37.9548 27.8433 37.9789 27.8239 38.0018L27.8029 38.0258L27.3678 38.3258V38.2688L26.9567 38.6019L26.5637 38.8629H26.5187L26.3896 38.9679L26.3626 38.9859L26.3116 39.0219L25.6275 39.562L25.2854 39.334L25.2164 39.382C25.1774 39.403 25.2164 39.382 25.2164 39.403H25.1894C25.106 39.2682 24.9981 39.1502 24.8714 39.0549L24.8504 39.0399L24.5113 38.8149H24.4873L24.3673 38.7489H24.3493H24.3343L24.3043 38.7069L24.1302 38.5689L23.7042 38.2838V38.3738C23.6107 38.3431 23.5247 38.2934 23.4513 38.2278C23.378 38.1622 23.319 38.0822 23.2781 37.9928L22.378 37.3927C22.3961 37.5142 22.4222 37.6345 22.456 37.7527L22.63 38.2178C22.7628 38.4743 22.9121 38.7218 23.0771 38.9589C23.0186 38.9692 22.9594 38.9752 22.9 38.9769L23.6802 41.0773L23.5091 41.2123C23.511 41.2166 23.512 41.2212 23.512 41.2258C23.512 41.2305 23.511 41.2351 23.5091 41.2393C23.5107 41.2523 23.5107 41.2654 23.5091 41.2783C23.2728 41.4882 23.0119 41.6685 22.732 41.8154L22.0299 42.3705C22.1199 42.4965 22.2759 42.6526 22.2339 42.7006C22.1919 42.7486 21.8799 42.5835 21.8589 42.6586C21.9009 42.7366 22.1589 42.8536 22.1589 42.9106C22.1394 42.9914 22.1263 43.0737 22.1199 43.1566H21.9219C21.7358 43.1326 21.5498 43.1176 21.3668 43.1086H21.1867L21.0997 43.1446L20.5566 43.5737L24.5503 43.4087L25.2044 45.17L25.2764 45.131C25.3455 45.164 25.3875 45.203 25.3605 45.266C25.3335 45.329 25.3094 45.326 25.2734 45.356L25.3064 45.452C25.3845 45.452 25.4715 45.452 25.4685 45.47C25.4655 45.488 25.3965 45.533 25.3485 45.563L25.3755 45.6351C25.4805 45.6351 25.6545 45.6351 25.6755 45.6861C25.6755 45.6861 25.6755 45.7011 25.6755 45.7071L25.4625 45.8211L25.9005 47.0003L25.9366 46.8593L25.9606 46.7723C26.1496 46.8113 26.0596 46.3642 26.1106 46.2772L26.1286 46.1812C26.1736 46.0431 26.2156 45.9081 26.2636 45.7791L26.2846 45.6891L26.3566 45.389C26.3566 45.368 26.3566 45.335 26.3746 45.311C26.4556 45.113 26.4076 44.6239 26.5997 44.6239L26.6267 44.5579C26.6717 44.4469 26.7167 44.3358 26.7587 44.2218L26.7887 44.1468L26.8097 44.1138L27.0377 43.3007L29.5732 43.1956C29.8304 43.1457 30.0914 43.1176 30.3533 43.1116H30.4223L30.8574 43.0306L30.1913 42.6075Z" fill="white"/>
</svg>
