<svg width="145" height="110" viewBox="0 0 145 110" fill="none" xmlns="http://www.w3.org/2000/svg">
<mask id="mask0_6196_18325" style="mask-type:alpha" maskUnits="userSpaceOnUse" x="12" y="47" width="121" height="63">
<path d="M73.2037 107.763C72.814 108.149 72.1862 108.149 71.7964 107.763L13.8719 50.4051C13.2371 49.7766 13.6822 48.6945 14.5755 48.6945L130.425 48.6946C131.318 48.6946 131.763 49.7766 131.128 50.4051L73.2037 107.763Z" stroke="white" stroke-width="2"/>
</mask>
<g mask="url(#mask0_6196_18325)">
<path d="M150.52 111.762L5.01794 111.762L5.01796 71.0243L150.52 71.0243L150.52 111.762Z" fill="white"/>
</g>
<mask id="mask1_6196_18325" style="mask-type:alpha" maskUnits="userSpaceOnUse" x="12" y="0" width="121" height="63">
<path d="M71.7963 2.10408C72.186 1.71818 72.8138 1.71818 73.2036 2.10408L131.128 59.4621C131.763 60.0906 131.318 61.1727 130.425 61.1727L14.5753 61.1726C13.682 61.1726 13.237 60.0906 13.8717 59.4621L71.7963 2.10408Z" stroke="white" stroke-width="2"/>
</mask>
<g mask="url(#mask1_6196_18325)">
<path d="M-5.51953 -1.89551L139.982 -1.89546L139.982 38.8424L-5.51955 38.8424L-5.51953 -1.89551Z" fill="white"/>
</g>
<mask id="mask2_6196_18325" style="mask-type:alpha" maskUnits="userSpaceOnUse" x="32" y="59" width="79" height="39">
<path d="M109.45 59.5802L71.2919 97.3653L33.1335 59.5802L109.45 59.5802Z" stroke="white" stroke-width="0.7"/>
</mask>
<g mask="url(#mask2_6196_18325)">
<rect x="119.693" y="99.0142" width="90.286" height="21.4747" transform="rotate(-180 119.693 99.0142)" fill="white"/>
</g>
<mask id="mask3_6196_18325" style="mask-type:alpha" maskUnits="userSpaceOnUse" x="33" y="12" width="79" height="39">
<path d="M33.8622 50.287L72.0206 12.5019L110.179 50.287L33.8622 50.287Z" stroke="white" stroke-width="0.7"/>
</mask>
<g mask="url(#mask3_6196_18325)">
<rect x="23.6191" y="10.853" width="90.286" height="21.4747" fill="white"/>
</g>
<path d="M12.1218 64.1733H10.1508V64.4117C10.8499 64.4752 10.9169 64.5388 10.9169 65.1109V65.7703C10.9169 66.0802 10.8351 66.1914 10.6863 66.2788C10.545 66.3583 10.3218 66.398 10.0838 66.398C8.67064 66.398 8.09048 65.1665 8.09048 63.8873C8.09048 62.4015 8.83427 61.615 9.93508 61.615C10.1657 61.615 10.4185 61.6388 10.5896 61.7024C11.0582 61.8692 11.2888 62.195 11.4673 62.8624L11.6979 62.8068C11.6458 62.3221 11.6012 61.8057 11.5863 61.5037C11.3408 61.4878 10.8276 61.3051 10.0466 61.3051C8.54419 61.3051 7.25 62.2506 7.25 63.9906C7.25 65.5955 8.33593 66.6999 10.0095 66.6999C10.6268 66.6999 11.2218 66.5251 11.6755 66.4218C11.6384 66.2073 11.6309 65.9451 11.6309 65.667V65.0076C11.6309 64.5229 11.6681 64.4832 12.1218 64.4117V64.1733ZM14.5332 66.3503C13.968 66.3026 13.9308 66.2629 13.9308 65.7465V64.2528C14.087 63.8635 14.3473 63.6489 14.4961 63.6489C14.6299 63.6489 14.7192 63.7363 14.8308 63.8555C14.8903 63.9032 14.9572 63.9191 15.0316 63.8714C15.1655 63.7999 15.3068 63.6092 15.3068 63.3947C15.3068 63.1802 15.1432 62.9974 14.868 62.9974C14.5109 62.9974 14.206 63.4026 13.9308 63.8396C13.9308 63.5854 13.9308 63.2358 13.9308 62.9736C13.5589 63.1325 13.2093 63.2278 12.83 63.2914V63.498C13.2465 63.5615 13.2762 63.5854 13.2762 64.0859V65.7544C13.2762 66.2629 13.2316 66.3026 12.7779 66.3503V66.5807H14.5332V66.3503ZM18.3408 65.6988C18.0731 65.9689 17.783 66.0961 17.4855 66.0961C16.9574 66.0961 16.3772 65.667 16.3921 64.6421C17.2475 64.6103 18.2144 64.5388 18.3631 64.507C18.4747 64.4752 18.497 64.3878 18.497 64.2369C18.5045 63.6013 18.0061 62.9974 17.3442 62.9974C16.9574 62.9974 16.5483 63.1961 16.2285 63.5695C15.9235 63.9191 15.7301 64.4276 15.7301 64.9678C15.7301 65.8895 16.288 66.6761 17.2103 66.6761C17.4632 66.6761 17.9913 66.541 18.4673 65.8895L18.3408 65.6988ZM17.8053 64.1018C17.8053 64.2289 17.7607 64.2607 17.6342 64.2607C17.2177 64.2846 16.8235 64.2846 16.4293 64.2846C16.5185 63.6489 16.8384 63.2994 17.1731 63.2994C17.5673 63.2994 17.8127 63.6887 17.8053 64.1018ZM22.1955 66.2709L22.1211 66.0404C22.0393 66.0881 21.9501 66.1278 21.8608 66.1278C21.7269 66.1278 21.6079 66.0166 21.6079 65.6511C21.6079 65.2221 21.6079 64.5706 21.6079 64.1415C21.6079 63.7284 21.4889 63.4503 21.2212 63.212C21.0426 63.0689 20.8046 62.9974 20.5666 62.9974C20.1501 63.0928 19.7113 63.3709 19.4807 63.5536C19.3245 63.6648 19.2278 63.7602 19.2278 63.8794C19.2278 64.078 19.4286 64.2369 19.5774 64.2369C19.6964 64.2369 19.7708 64.1813 19.808 64.0383C19.8749 63.8078 19.927 63.641 20.0088 63.5218C20.0832 63.4265 20.1873 63.347 20.3509 63.347C20.7228 63.347 20.9683 63.6569 20.9683 64.1892V64.3878C20.8046 64.5309 20.2394 64.7374 19.7856 64.9043C19.384 65.0552 19.1832 65.3015 19.1832 65.6909C19.1832 66.1994 19.5625 66.6761 20.1129 66.6761C20.3286 66.6761 20.6931 66.39 20.9831 66.1835C21.0203 66.3106 21.065 66.4218 21.1691 66.5251C21.2435 66.6125 21.4071 66.6761 21.5335 66.6761L22.1955 66.2709ZM20.9683 65.9133C20.8269 66.0643 20.5889 66.1755 20.4104 66.1755C20.1873 66.1755 19.8898 65.9848 19.8898 65.5637C19.8898 65.2698 20.0534 65.1268 20.3286 64.9917C20.4922 64.9122 20.8121 64.7533 20.9683 64.6739C20.9683 65.0473 20.9683 65.5399 20.9683 65.9133ZM24.5769 66.2947L24.5099 66.0802C24.3984 66.1358 24.2422 66.1993 24.0785 66.1993C23.8926 66.1993 23.6546 66.0881 23.6546 65.4446V63.4265H24.4356C24.5248 63.355 24.5471 63.1722 24.4802 63.0928H23.6546C23.6546 62.6717 23.662 62.2188 23.6769 61.901L23.5653 61.8772C23.4017 62.044 23.1562 62.2585 23.0001 62.4254V63.0928H22.6653L22.4571 63.3311L22.4943 63.4265H23.0001V65.7226C23.0001 66.3741 23.2678 66.6761 23.7587 66.6761C23.8331 66.6761 23.9521 66.6522 24.0785 66.5807L24.5769 66.2947ZM27.5945 65.6988C27.3267 65.9689 27.0367 66.0961 26.7391 66.0961C26.2111 66.0961 25.6309 65.667 25.6458 64.6421C26.5011 64.6103 27.4681 64.5388 27.6168 64.507C27.7284 64.4752 27.7507 64.3878 27.7507 64.2369C27.7581 63.6013 27.2598 62.9974 26.5978 62.9974C26.2111 62.9974 25.802 63.1961 25.4821 63.5695C25.1772 63.9191 24.9838 64.4276 24.9838 64.9678C24.9838 65.8895 25.5416 66.6761 26.4639 66.6761C26.7168 66.6761 27.2449 66.541 27.7209 65.8895L27.5945 65.6988ZM27.059 64.1018C27.059 64.2289 27.0143 64.2607 26.8879 64.2607C26.4714 64.2846 26.0772 64.2846 25.683 64.2846C25.7722 63.6489 26.092 63.2994 26.4268 63.2994C26.821 63.2994 27.0664 63.6887 27.059 64.1018ZM30.1039 66.3503C29.5386 66.3026 29.5014 66.2629 29.5014 65.7465V64.2528C29.6576 63.8635 29.9179 63.6489 30.0667 63.6489C30.2006 63.6489 30.2898 63.7363 30.4014 63.8555C30.4609 63.9032 30.5278 63.9191 30.6022 63.8714C30.7361 63.7999 30.8774 63.6092 30.8774 63.3947C30.8774 63.1802 30.7138 62.9974 30.4386 62.9974C30.0815 62.9974 29.7766 63.4026 29.5014 63.8396C29.5014 63.5854 29.5014 63.2358 29.5014 62.9736C29.1295 63.1325 28.7799 63.2278 28.4006 63.2914V63.498C28.8171 63.5615 28.8469 63.5854 28.8469 64.0859V65.7544C28.8469 66.2629 28.8022 66.3026 28.3485 66.3503V66.5807H30.1039V66.3503ZM37.5346 65.2062C37.1553 66.0166 36.776 66.39 36.047 66.39C34.9314 66.39 34.1281 65.4048 34.1281 63.8794C34.1281 62.6637 34.7603 61.615 35.9801 61.615C36.2479 61.615 36.5156 61.6547 36.7016 61.75C37.0884 61.9169 37.2817 62.2506 37.4379 62.7988L37.676 62.7432C37.6164 62.3539 37.5644 61.8533 37.5346 61.4958C37.3041 61.464 36.776 61.3051 36.1586 61.3051C34.4628 61.3051 33.2876 62.3618 33.2876 64.0541C33.2876 65.381 34.1801 66.6999 35.995 66.6999C36.5603 66.6999 37.1479 66.5489 37.3561 66.5092C37.4751 66.255 37.6685 65.6829 37.7726 65.2936L37.5346 65.2062ZM41.1869 65.6988C40.9192 65.9689 40.6291 66.0961 40.3316 66.0961C39.8035 66.0961 39.2233 65.667 39.2382 64.6421C40.0936 64.6103 41.0605 64.5388 41.2093 64.507C41.3208 64.4752 41.3431 64.3878 41.3431 64.2369C41.3506 63.6013 40.8522 62.9974 40.1903 62.9974C39.8035 62.9974 39.3944 63.1961 39.0746 63.5695C38.7696 63.9191 38.5762 64.4276 38.5762 64.9678C38.5762 65.8895 39.1341 66.6761 40.0564 66.6761C40.3093 66.6761 40.8374 66.541 41.3134 65.8895L41.1869 65.6988ZM40.6514 64.1018C40.6514 64.2289 40.6068 64.2607 40.4803 64.2607C40.0638 64.2846 39.6696 64.2846 39.2754 64.2846C39.3647 63.6489 39.6845 63.2994 40.0192 63.2994C40.4134 63.2994 40.6589 63.6887 40.6514 64.1018ZM45.645 66.5807V66.3503C45.2285 66.3026 45.1839 66.2788 45.1839 65.7465V64.2369C45.1839 63.4662 44.8046 62.9974 44.2095 62.9974C43.9938 62.9974 43.8079 63.0848 43.5996 63.2278C43.4137 63.355 43.25 63.4741 43.1013 63.5854C43.1013 63.4026 43.1013 63.1404 43.1013 62.9736C42.774 63.1166 42.3798 63.2199 42.0005 63.2835V63.498C42.3947 63.5695 42.4467 63.5933 42.4467 64.1018V65.7465C42.4467 66.2709 42.4021 66.2947 41.9261 66.3503V66.5807H43.555V66.3503C43.1385 66.3026 43.1013 66.2867 43.1013 65.7465V63.8794C43.3244 63.6648 43.5922 63.498 43.8748 63.498C44.3285 63.498 44.5294 63.8396 44.5294 64.3958V65.7147C44.5294 66.255 44.4847 66.3026 44.0756 66.3503V66.5807H45.645ZM48.164 66.2947L48.0971 66.0802C47.9855 66.1358 47.8293 66.1993 47.6657 66.1993C47.4797 66.1993 47.2417 66.0881 47.2417 65.4446V63.4265H48.0227C48.1119 63.355 48.1342 63.1722 48.0673 63.0928H47.2417C47.2417 62.6717 47.2491 62.2188 47.264 61.901L47.1524 61.8772C46.9888 62.044 46.7434 62.2585 46.5872 62.4254V63.0928H46.2525L46.0442 63.3311L46.0814 63.4265H46.5872V65.7226C46.5872 66.3741 46.8549 66.6761 47.3458 66.6761C47.4202 66.6761 47.5392 66.6522 47.6657 66.5807L48.164 66.2947ZM51.1816 65.6988C50.9139 65.9689 50.6238 66.0961 50.3263 66.0961C49.7982 66.0961 49.218 65.667 49.2329 64.6421C50.0882 64.6103 51.0552 64.5388 51.2039 64.507C51.3155 64.4752 51.3378 64.3878 51.3378 64.2369C51.3453 63.6013 50.8469 62.9974 50.1849 62.9974C49.7982 62.9974 49.3891 63.1961 49.0693 63.5695C48.7643 63.9191 48.5709 64.4276 48.5709 64.9678C48.5709 65.8895 49.1288 66.6761 50.0511 66.6761C50.3039 66.6761 50.832 66.541 51.3081 65.8895L51.1816 65.6988ZM50.6461 64.1018C50.6461 64.2289 50.6015 64.2607 50.475 64.2607C50.0585 64.2846 49.6643 64.2846 49.2701 64.2846C49.3593 63.6489 49.6792 63.2994 50.0139 63.2994C50.4081 63.2994 50.6535 63.6887 50.6461 64.1018ZM55.6397 66.5807V66.3503C55.2232 66.3026 55.1786 66.2788 55.1786 65.7465V64.2369C55.1786 63.4662 54.7992 62.9974 54.2042 62.9974C53.9885 62.9974 53.8025 63.0848 53.5943 63.2278C53.4083 63.355 53.2447 63.4741 53.0959 63.5854C53.0959 63.4026 53.0959 63.1404 53.0959 62.9736C52.7687 63.1166 52.3745 63.2199 51.9951 63.2835V63.498C52.3893 63.5695 52.4414 63.5933 52.4414 64.1018V65.7465C52.4414 66.2709 52.3968 66.2947 51.9208 66.3503V66.5807H53.5497V66.3503C53.1331 66.3026 53.0959 66.2867 53.0959 65.7465V63.8794C53.3191 63.6648 53.5868 63.498 53.8695 63.498C54.3232 63.498 54.524 63.8396 54.524 64.3958V65.7147C54.524 66.255 54.4794 66.3026 54.0703 66.3503V66.5807H55.6397ZM59.9277 66.5807V66.3503C59.5111 66.3026 59.4665 66.2788 59.4665 65.7465V64.2369C59.4665 63.4662 59.0872 62.9974 58.4921 62.9974C58.2764 62.9974 58.0905 63.0848 57.8822 63.2278C57.6963 63.355 57.5326 63.4741 57.3839 63.5854C57.3839 63.4026 57.3839 63.1404 57.3839 62.9736C57.0566 63.1166 56.6624 63.2199 56.2831 63.2835V63.498C56.6773 63.5695 56.7294 63.5933 56.7294 64.1018V65.7465C56.7294 66.2709 56.6847 66.2947 56.2087 66.3503V66.5807H57.8376V66.3503C57.4211 66.3026 57.3839 66.2867 57.3839 65.7465V63.8794C57.607 63.6648 57.8748 63.498 58.1574 63.498C58.6111 63.498 58.812 63.8396 58.812 64.3958V65.7147C58.812 66.255 58.7673 66.3026 58.3583 66.3503V66.5807H59.9277ZM61.6728 61.8057C61.6728 61.5435 61.4868 61.3448 61.2637 61.3448C61.0331 61.3448 60.8397 61.5435 60.8397 61.8057C60.8397 62.044 61.0331 62.2506 61.2562 62.2506C61.4868 62.2506 61.6728 62.044 61.6728 61.8057ZM62.1488 66.5807V66.3503C61.6728 66.3026 61.6281 66.2629 61.6281 65.7226V63.9747C61.6281 63.6489 61.6281 63.3152 61.6281 62.9815C61.2934 63.1166 60.9215 63.2199 60.5199 63.2914V63.498C60.9513 63.5695 60.9736 63.6013 60.9736 64.1018V65.7226C60.9736 66.2629 60.9215 66.3026 60.4678 66.3503V66.5807H62.1488ZM65.7503 66.2709L65.6759 66.0404C65.5941 66.0881 65.5048 66.1278 65.4156 66.1278C65.2817 66.1278 65.1627 66.0166 65.1627 65.6511C65.1627 65.2221 65.1627 64.5706 65.1627 64.1415C65.1627 63.7284 65.0437 63.4503 64.7759 63.212C64.5974 63.0689 64.3594 62.9974 64.1214 62.9974C63.7049 63.0928 63.266 63.3709 63.0355 63.5536C62.8793 63.6648 62.7826 63.7602 62.7826 63.8794C62.7826 64.078 62.9834 64.2369 63.1321 64.2369C63.2512 64.2369 63.3255 64.1813 63.3627 64.0383C63.4297 63.8078 63.4817 63.641 63.5635 63.5218C63.6379 63.4265 63.7421 63.347 63.9057 63.347C64.2776 63.347 64.523 63.6569 64.523 64.1892V64.3878C64.3594 64.5309 63.7941 64.7374 63.3404 64.9043C62.9388 65.0552 62.7379 65.3015 62.7379 65.6909C62.7379 66.1994 63.1173 66.6761 63.6677 66.6761C63.8834 66.6761 64.2478 66.39 64.5379 66.1835C64.5751 66.3106 64.6197 66.4218 64.7239 66.5251C64.7982 66.6125 64.9619 66.6761 65.0883 66.6761L65.7503 66.2709ZM64.523 65.9133C64.3817 66.0643 64.1437 66.1755 63.9652 66.1755C63.7421 66.1755 63.4445 65.9848 63.4445 65.5637C63.4445 65.2698 63.6082 65.1268 63.8834 64.9917C64.047 64.9122 64.3668 64.7533 64.523 64.6739C64.523 65.0473 64.523 65.5399 64.523 65.9133ZM67.788 66.5807V66.3503C67.3194 66.3026 67.2747 66.2629 67.2747 65.7385V62.0202C67.2747 61.6468 67.2747 61.2654 67.2747 60.8999C67.0144 60.9952 66.5458 61.1224 66.1219 61.17V61.3846C66.583 61.4481 66.6202 61.4958 66.6202 61.9725V65.7385C66.6202 66.2629 66.5681 66.3026 66.107 66.3503V66.5807H67.788ZM73.8257 62.6399C73.7885 62.2426 73.7587 61.6626 73.7513 61.4004C73.6248 61.4084 73.3496 61.4163 72.6877 61.4163H70.3001V61.6547C70.8877 61.7183 70.9621 61.75 70.9621 62.4492V65.5558C70.9621 66.247 70.8951 66.3026 70.3001 66.3503V66.5807H72.4199V66.3503C71.7431 66.2867 71.6761 66.255 71.6761 65.5558V64.1654H72.5761C73.0819 64.1654 73.1488 64.2925 73.2381 64.8487H73.4761V63.1643H73.2455C73.1339 63.7204 73.0968 63.8237 72.5761 63.8237H71.6761V62.0043C71.6761 61.7659 71.6984 61.75 71.9216 61.75H72.6728C73.0819 61.75 73.1935 61.8057 73.3348 62.0599C73.4389 62.2267 73.5133 62.4333 73.5802 62.6717L73.8257 62.6399ZM77.0305 65.6988C76.7627 65.9689 76.4726 66.0961 76.1751 66.0961C75.647 66.0961 75.0669 65.667 75.0814 64.6421C75.9371 64.6103 76.904 64.5388 77.0528 64.507C77.1644 64.4752 77.1867 64.3878 77.1867 64.2369C77.1941 63.6013 76.6958 62.9974 76.0338 62.9974C75.647 62.9974 75.2379 63.1961 74.9181 63.5695C74.6132 63.9191 74.4198 64.4276 74.4198 64.9678C74.4198 65.8895 74.9776 66.6761 75.8999 66.6761C76.1528 66.6761 76.6809 66.541 77.1569 65.8895L77.0305 65.6988ZM76.4949 64.1018C76.4949 64.2289 76.4503 64.2607 76.3239 64.2607C75.9074 64.2846 75.5131 64.2846 75.1189 64.2846C75.2082 63.6489 75.528 63.2994 75.8627 63.2994C76.2569 63.2994 76.5024 63.6887 76.4949 64.1018ZM81.531 66.1517L81.3079 66.1358C81.0252 66.104 80.9806 66.0643 80.9806 65.6511V61.8613C80.9806 61.5276 80.9806 61.1939 80.9806 60.8999C80.6831 61.0032 80.1476 61.1144 79.7534 61.17V61.3846C80.274 61.4322 80.3186 61.4561 80.3186 61.9487V63.0689C80.1699 63.0054 79.9467 62.9974 79.8501 62.9974C78.8088 62.9974 77.9013 63.8237 77.9013 64.9281C77.9013 66.0563 78.7121 66.6761 79.3145 66.6761C79.4038 66.6761 79.5897 66.6363 79.8649 66.4615C79.9988 66.3741 80.1848 66.2629 80.3186 66.1755C80.3186 66.3424 80.3186 66.5172 80.3186 66.684C80.7872 66.5092 81.3674 66.4139 81.531 66.3821V66.1517ZM80.3186 65.9054C80.1476 66.0404 79.8872 66.1676 79.6418 66.1676C79.1955 66.1596 78.6377 65.675 78.6377 64.6977C78.6377 63.5536 79.2476 63.3152 79.5823 63.3152C79.8724 63.3152 80.1699 63.4503 80.3186 63.7125V65.9054ZM84.6838 65.6988C84.416 65.9689 84.1259 66.0961 83.8284 66.0961C83.3003 66.0961 82.7202 65.667 82.735 64.6421C83.5904 64.6103 84.5573 64.5388 84.7061 64.507C84.8176 64.4752 84.84 64.3878 84.84 64.2369C84.8474 63.6013 84.349 62.9974 83.6871 62.9974C83.3003 62.9974 82.8912 63.1961 82.5714 63.5695C82.2664 63.9191 82.0731 64.4276 82.0731 64.9678C82.0731 65.8895 82.6309 66.6761 83.5532 66.6761C83.8061 66.6761 84.3342 66.541 84.8102 65.8895L84.6838 65.6988ZM84.1482 64.1018C84.1482 64.2289 84.1036 64.2607 83.9772 64.2607C83.5606 64.2846 83.1664 64.2846 82.7722 64.2846C82.8615 63.6489 83.1813 63.2994 83.516 63.2994C83.9102 63.2994 84.1557 63.6887 84.1482 64.1018ZM87.1931 66.3503C86.6278 66.3026 86.5907 66.2629 86.5907 65.7465V64.2528C86.7468 63.8635 87.0072 63.6489 87.1559 63.6489C87.2898 63.6489 87.3791 63.7363 87.4906 63.8555C87.5501 63.9032 87.6171 63.9191 87.6915 63.8714C87.8253 63.7999 87.9667 63.6092 87.9667 63.3947C87.9667 63.1802 87.803 62.9974 87.5278 62.9974C87.1708 62.9974 86.8659 63.4026 86.5907 63.8396C86.5907 63.5854 86.5907 63.2358 86.5907 62.9736C86.2188 63.1325 85.8692 63.2278 85.4898 63.2914V63.498C85.9064 63.5615 85.9361 63.5854 85.9361 64.0859V65.7544C85.9361 66.2629 85.8915 66.3026 85.4378 66.3503V66.5807H87.1931V66.3503ZM91.468 66.2709L91.3937 66.0404C91.3119 66.0881 91.2226 66.1278 91.1333 66.1278C90.9995 66.1278 90.8804 66.0166 90.8804 65.6511C90.8804 65.2221 90.8804 64.5706 90.8804 64.1415C90.8804 63.7284 90.7614 63.4503 90.4937 63.212C90.3152 63.0689 90.0772 62.9974 89.8391 62.9974C89.4226 63.0928 88.9838 63.3709 88.7532 63.5536C88.597 63.6648 88.5003 63.7602 88.5003 63.8794C88.5003 64.078 88.7012 64.2369 88.8499 64.2369C88.9689 64.2369 89.0433 64.1813 89.0805 64.0383C89.1474 63.8078 89.1995 63.641 89.2813 63.5218C89.3557 63.4265 89.4598 63.347 89.6234 63.347C89.9953 63.347 90.2408 63.6569 90.2408 64.1892V64.3878C90.0772 64.5309 89.5119 64.7374 89.0582 64.9043C88.6565 65.0552 88.4557 65.3015 88.4557 65.6909C88.4557 66.1994 88.835 66.6761 89.3854 66.6761C89.6011 66.6761 89.9656 66.39 90.2557 66.1835C90.2929 66.3106 90.3375 66.4218 90.4416 66.5251C90.516 66.6125 90.6796 66.6761 90.8061 66.6761L91.468 66.2709ZM90.2408 65.9133C90.0995 66.0643 89.8615 66.1755 89.683 66.1755C89.4598 66.1755 89.1623 65.9848 89.1623 65.5637C89.1623 65.2698 89.3259 65.1268 89.6011 64.9917C89.7648 64.9122 90.0846 64.7533 90.2408 64.6739C90.2408 65.0473 90.2408 65.5399 90.2408 65.9133ZM93.5057 66.5807V66.3503C93.0371 66.3026 92.9925 66.2629 92.9925 65.7385V62.0202C92.9925 61.6468 92.9925 61.2654 92.9925 60.8999C92.7322 60.9952 92.2636 61.1224 91.8396 61.17V61.3846C92.3008 61.4481 92.338 61.4958 92.338 61.9725V65.7385C92.338 66.2629 92.2859 66.3026 91.8248 66.3503V66.5807H93.5057ZM100.273 65.2062C99.893 66.0166 99.5137 66.39 98.7851 66.39C97.6694 66.39 96.8661 65.4048 96.8661 63.8794C96.8661 62.6637 97.4983 61.615 98.7181 61.615C98.9859 61.615 99.2537 61.6547 99.4396 61.75C99.8264 61.9169 100.02 62.2506 100.176 62.7988L100.414 62.7432C100.354 62.3539 100.302 61.8533 100.273 61.4958C100.042 61.464 99.5137 61.3051 98.8967 61.3051C97.2008 61.3051 96.0256 62.3618 96.0256 64.0541C96.0256 65.381 96.9182 66.6999 98.733 66.6999C99.2983 66.6999 99.8859 66.5489 100.094 66.5092C100.213 66.255 100.407 65.6829 100.511 65.2936L100.273 65.2062ZM102.924 66.3503C102.358 66.3026 102.321 66.2629 102.321 65.7465V64.2528C102.477 63.8635 102.738 63.6489 102.886 63.6489C103.02 63.6489 103.11 63.7363 103.221 63.8555C103.281 63.9032 103.348 63.9191 103.422 63.8714C103.556 63.7999 103.697 63.6092 103.697 63.3947C103.697 63.1802 103.534 62.9974 103.258 62.9974C102.901 62.9974 102.596 63.4026 102.321 63.8396C102.321 63.5854 102.321 63.2358 102.321 62.9736C101.949 63.1325 101.6 63.2278 101.22 63.2914V63.498C101.637 63.5615 101.667 63.5854 101.667 64.0859V65.7544C101.667 66.2629 101.622 66.3026 101.168 66.3503V66.5807H102.924V66.3503ZM106.731 65.6988C106.463 65.9689 106.173 66.0961 105.876 66.0961C105.347 66.0961 104.767 65.667 104.782 64.6421C105.638 64.6103 106.604 64.5388 106.753 64.507C106.865 64.4752 106.887 64.3878 106.887 64.2369C106.895 63.6013 106.396 62.9974 105.734 62.9974C105.347 62.9974 104.938 63.1961 104.619 63.5695C104.314 63.9191 104.12 64.4276 104.12 64.9678C104.12 65.8895 104.678 66.6761 105.6 66.6761C105.853 66.6761 106.381 66.541 106.857 65.8895L106.731 65.6988ZM106.195 64.1018C106.195 64.2289 106.151 64.2607 106.024 64.2607C105.608 64.2846 105.214 64.2846 104.819 64.2846C104.909 63.6489 105.228 63.2994 105.563 63.2994C105.957 63.2994 106.203 63.6887 106.195 64.1018ZM111.232 66.1517L111.009 66.1358C110.726 66.104 110.681 66.0643 110.681 65.6511V61.8613C110.681 61.5276 110.681 61.1939 110.681 60.8999C110.384 61.0032 109.848 61.1144 109.454 61.17V61.3846C109.975 61.4322 110.019 61.4561 110.019 61.9487V63.0689C109.871 63.0054 109.648 62.9974 109.551 62.9974C108.51 62.9974 107.602 63.8237 107.602 64.9281C107.602 66.0563 108.413 66.6761 109.015 66.6761C109.105 66.6761 109.29 66.6363 109.566 66.4615C109.7 66.3741 109.886 66.2629 110.019 66.1755C110.019 66.3424 110.019 66.5172 110.019 66.684C110.488 66.5092 111.068 66.4139 111.232 66.3821V66.1517ZM110.019 65.9054C109.848 66.0404 109.588 66.1676 109.343 66.1676C108.896 66.1596 108.338 65.675 108.338 64.6977C108.338 63.5536 108.948 63.3152 109.283 63.3152C109.573 63.3152 109.871 63.4503 110.019 63.7125V65.9054ZM112.934 61.8057C112.934 61.5435 112.748 61.3448 112.525 61.3448C112.294 61.3448 112.101 61.5435 112.101 61.8057C112.101 62.044 112.294 62.2506 112.518 62.2506C112.748 62.2506 112.934 62.044 112.934 61.8057ZM113.41 66.5807V66.3503C112.934 66.3026 112.889 66.2629 112.889 65.7226V63.9747C112.889 63.6489 112.889 63.3152 112.889 62.9815C112.555 63.1166 112.183 63.2199 111.781 63.2914V63.498C112.213 63.5695 112.235 63.6013 112.235 64.1018V65.7226C112.235 66.2629 112.183 66.3026 111.729 66.3503V66.5807H113.41ZM115.882 66.2947L115.815 66.0802C115.704 66.1358 115.548 66.1993 115.384 66.1993C115.198 66.1993 114.96 66.0881 114.96 65.4446V63.4265H115.741C115.83 63.355 115.853 63.1722 115.786 63.0928H114.96C114.96 62.6717 114.967 62.2188 114.982 61.901L114.871 61.8772C114.707 62.044 114.462 62.2585 114.305 62.4254V63.0928H113.971L113.763 63.3311L113.8 63.4265H114.305V65.7226C114.305 66.3741 114.573 66.6761 115.064 66.6761C115.139 66.6761 115.258 66.6522 115.384 66.5807L115.882 66.2947ZM123.392 61.4163H121.592V61.6547C122.143 61.6865 122.321 61.8136 122.343 62.1711C122.358 62.3936 122.381 62.6876 122.381 63.3867V64.2289C122.381 65.524 122.038 66.2232 121.012 66.2232C120.134 66.2232 119.643 65.5955 119.643 64.4911V62.481C119.643 61.758 119.703 61.6944 120.291 61.6547V61.4163H118.275V61.6547C118.862 61.7103 118.922 61.758 118.922 62.481V64.4991C118.922 65.4207 119.138 65.961 119.576 66.3265C119.911 66.5966 120.38 66.6999 120.819 66.6999C121.339 66.6999 121.845 66.5728 122.195 66.1835C122.626 65.6988 122.715 65.0632 122.715 64.2766V63.3867C122.715 62.6876 122.73 62.3618 122.738 62.1711C122.76 61.8215 122.924 61.6865 123.392 61.6547V61.4163ZM127.29 66.5807V66.3503C126.874 66.3026 126.829 66.2788 126.829 65.7465V64.2369C126.829 63.4662 126.45 62.9974 125.855 62.9974C125.639 62.9974 125.453 63.0848 125.245 63.2278C125.059 63.355 124.895 63.4741 124.746 63.5854C124.746 63.4026 124.746 63.1404 124.746 62.9736C124.419 63.1166 124.025 63.2199 123.646 63.2835V63.498C124.04 63.5695 124.092 63.5933 124.092 64.1018V65.7465C124.092 66.2709 124.047 66.2947 123.571 66.3503V66.5807H125.2V66.3503C124.784 66.3026 124.746 66.2867 124.746 65.7465V63.8794C124.97 63.6648 125.237 63.498 125.52 63.498C125.974 63.498 126.174 63.8396 126.174 64.3958V65.7147C126.174 66.255 126.13 66.3026 125.721 66.3503V66.5807H127.29ZM129.035 61.8057C129.035 61.5435 128.849 61.3448 128.626 61.3448C128.395 61.3448 128.202 61.5435 128.202 61.8057C128.202 62.044 128.395 62.2506 128.618 62.2506C128.849 62.2506 129.035 62.044 129.035 61.8057ZM129.511 66.5807V66.3503C129.035 66.3026 128.99 66.2629 128.99 65.7226V63.9747C128.99 63.6489 128.99 63.3152 128.99 62.9815C128.656 63.1166 128.284 63.2199 127.882 63.2914V63.498C128.314 63.5695 128.336 63.6013 128.336 64.1018V65.7226C128.336 66.2629 128.284 66.3026 127.83 66.3503V66.5807H129.511ZM130.078 64.8963C130.078 65.7941 130.71 66.6761 131.751 66.6761C132.51 66.6761 133.395 66.0643 133.395 64.7772C133.395 63.7681 132.711 62.9974 131.759 62.9974C131.022 62.9974 130.078 63.6172 130.078 64.8963ZM132.629 64.9599C132.629 66.0643 132.257 66.39 131.826 66.39C131.246 66.39 130.844 65.6591 130.844 64.65C130.844 63.7204 131.238 63.2755 131.67 63.2755C132.287 63.2755 132.629 63.9985 132.629 64.9599ZM137.75 66.5807V66.3503C137.333 66.3026 137.289 66.2788 137.289 65.7465V64.2369C137.289 63.4662 136.909 62.9974 136.314 62.9974C136.099 62.9974 135.913 63.0848 135.704 63.2278C135.518 63.355 135.355 63.4741 135.206 63.5854C135.206 63.4026 135.206 63.1404 135.206 62.9736C134.879 63.1166 134.484 63.2199 134.105 63.2835V63.498C134.499 63.5695 134.551 63.5933 134.551 64.1018V65.7465C134.551 66.2709 134.507 66.2947 134.031 66.3503V66.5807H135.66V66.3503C135.243 66.3026 135.206 66.2867 135.206 65.7465V63.8794C135.429 63.6648 135.697 63.498 135.98 63.498C136.433 63.498 136.634 63.8396 136.634 64.3958V65.7147C136.634 66.255 136.589 66.3026 136.18 66.3503V66.5807H137.75Z" fill="white"/>
<path d="M49.1362 50.5533H43.4856V51.2345C45.5963 51.399 45.7722 51.5869 45.7722 53.3017V55.2044C45.7722 56.1675 45.5083 56.4729 45.0466 56.7548C44.6069 56.9897 43.9253 57.1306 43.1777 57.1306C38.8683 57.1306 37.0874 53.4426 37.0874 49.6842C37.0874 45.2445 39.3081 42.919 42.672 42.919C43.3976 42.919 44.1452 42.9894 44.6508 43.1773C46.036 43.6706 46.6956 44.5868 47.2233 46.5834L47.8829 46.4425C47.707 44.9626 47.5971 43.5062 47.5531 42.6371C46.8715 42.5901 45.3105 42.0498 42.9799 42.0498C38.5825 42.0498 34.8008 44.8687 34.8008 49.9661C34.8008 54.6876 37.9889 57.9998 42.8919 57.9998C44.7388 57.9998 46.4538 57.483 47.8169 57.1541C47.707 56.5199 47.685 55.7447 47.685 54.9225V52.9493C47.685 51.5634 47.773 51.4225 49.1362 51.2345V50.5533ZM64.0979 53.654C62.9766 56.0031 61.8992 57.1071 59.6566 57.1071C56.3146 57.1071 53.874 54.1943 53.874 49.6607C53.874 46.0667 55.7869 42.919 59.4807 42.919C60.3162 42.919 61.1077 43.0364 61.6793 43.3183C62.8007 43.8116 63.3723 44.8452 63.8121 46.419L64.4936 46.2546C64.3178 45.0801 64.1638 43.6472 64.0759 42.5901C63.3503 42.4961 61.8333 42.0498 60.0303 42.0498C55.0613 42.0498 51.5874 45.127 51.5874 50.154C51.5874 54.1239 54.2698 57.9998 59.5246 57.9998C61.1956 57.9998 62.9106 57.5535 63.5482 57.436C63.878 56.7078 64.4497 55.0165 64.7575 53.889L64.0979 53.654ZM77.3966 45.9492C77.2867 44.8217 77.1987 43.1773 77.1768 42.3317C76.803 42.3552 76.0554 42.3787 74.0766 42.3787H67.1068V43.0364C68.8658 43.2243 69.0856 43.3183 69.0856 45.3619V54.6641C69.0856 56.6843 68.8878 56.8487 67.1068 56.9897V57.6474H73.2191V56.9897C71.2183 56.8018 70.9985 56.7078 70.9985 54.6641V50.4594H73.7248C75.2859 50.4594 75.4398 50.8352 75.7256 52.4795H76.4072V47.57H75.7476C75.4178 49.2144 75.3079 49.4963 73.7248 49.4963H70.9985V44.07C70.9985 43.3888 71.0644 43.3183 71.7021 43.3183H74.0546C75.2859 43.3183 75.6157 43.5062 76.0335 44.3049C76.3413 44.8217 76.5172 45.3854 76.715 46.0432L77.3966 45.9492ZM92.1532 53.654C91.0319 56.0031 89.9546 57.1071 87.7119 57.1071C84.3699 57.1071 81.9294 54.1943 81.9294 49.6607C81.9294 46.0667 83.8422 42.919 87.536 42.919C88.3715 42.919 89.1631 43.0364 89.7347 43.3183C90.856 43.8116 91.4277 44.8452 91.8674 46.419L92.549 46.2546C92.3731 45.0801 92.2192 43.6472 92.1313 42.5901C91.4057 42.4961 89.8886 42.0498 88.0857 42.0498C83.1167 42.0498 79.6428 45.127 79.6428 50.154C79.6428 54.1239 82.3252 57.9998 87.58 57.9998C89.251 57.9998 90.966 57.5535 91.6036 57.436C91.9334 56.7078 92.505 55.0165 92.8128 53.889L92.1532 53.654ZM110.201 42.3787H104.924V43.0364C106.551 43.1304 107.057 43.5297 107.122 44.5868C107.166 45.221 107.232 46.1136 107.232 48.2748V50.6708C107.232 54.5702 106.243 56.6373 103.121 56.6373C100.482 56.6373 98.9654 54.7581 98.9654 51.3285V45.4559C98.9654 43.3418 99.1413 43.1539 100.9 43.0364V42.3787H95.1177V43.0364C96.8767 43.2008 97.0526 43.3418 97.0526 45.4559V51.446C97.0526 54.1943 97.6902 55.8152 99.0094 56.8957C99.9768 57.6944 101.34 57.9763 102.615 57.9763C104.132 57.9763 105.627 57.6239 106.661 56.4729C107.936 55.04 108.2 53.2077 108.2 50.8117V48.2748C108.2 46.1136 108.244 45.127 108.266 44.5868C108.31 43.5062 108.815 43.1304 110.201 43.0364V42.3787Z" fill="white"/>
</svg>
