<svg width="87" height="63" viewBox="0 0 87 63" fill="none" xmlns="http://www.w3.org/2000/svg">
<mask id="mask0_6127_42725" style="mask-type:alpha" maskUnits="userSpaceOnUse" x="8" y="27" width="71" height="35">
<path d="M44.1843 60.4372C43.7996 60.7981 43.2007 60.7981 42.816 60.4372L10.1992 29.8395C9.53817 29.2194 9.97701 28.1102 10.8834 28.1102L76.1169 28.1102C77.0233 28.1102 77.4621 29.2194 76.8011 29.8395L44.1843 60.4372Z" stroke="white" stroke-width="2"/>
</mask>
<g mask="url(#mask0_6127_42725)">
<path d="M90.3105 63.5273L3.00981 63.5273L3.00982 40.3712L90.3106 40.3712L90.3105 63.5273Z" fill="#48803D"/>
</g>
<mask id="mask1_6127_42725" style="mask-type:alpha" maskUnits="userSpaceOnUse" x="8" y="0" width="71" height="36">
<path d="M42.8157 2.01298C43.2004 1.65207 43.7993 1.65207 44.184 2.01298L76.8008 32.6107C77.4618 33.2308 77.023 34.34 76.1166 34.34L10.8831 34.34C9.97669 34.34 9.53785 33.2308 10.1989 32.6107L42.8157 2.01298Z" stroke="white" stroke-width="2"/>
</mask>
<g mask="url(#mask1_6127_42725)">
<path d="M-3.31055 -1.07764L83.9902 -1.07761L83.9902 22.0785L-3.31056 22.0785L-3.31055 -1.07764Z" fill="#48803D"/>
</g>
<mask id="mask2_6127_42725" style="mask-type:alpha" maskUnits="userSpaceOnUse" x="19" y="33" width="48" height="23">
<path d="M65.2972 34.0174L42.7764 55.1441L20.2555 34.0173L65.2972 34.0174Z" stroke="white" stroke-width="0.7"/>
</mask>
<g mask="url(#mask2_6127_42725)">
<rect x="71.8184" y="56.2812" width="54.1715" height="12.2066" transform="rotate(-180 71.8184 56.2812)" fill="#48803D"/>
</g>
<mask id="mask3_6127_42725" style="mask-type:alpha" maskUnits="userSpaceOnUse" x="19" y="6" width="48" height="23">
<path d="M20.691 28.4328L43.2119 7.30608L65.7327 28.4329L20.691 28.4328Z" stroke="white" stroke-width="0.7"/>
</mask>
<g mask="url(#mask3_6127_42725)">
<rect x="14.1699" y="6.16895" width="54.1715" height="12.2066" fill="#48803D"/>
</g>
<path d="M7.27269 36.4774H6.09007V36.6129C6.50957 36.649 6.54973 36.6851 6.54973 37.0103V37.3851C6.54973 37.5613 6.50064 37.6245 6.41139 37.6742C6.3266 37.7193 6.19271 37.7419 6.04991 37.7419C5.20199 37.7419 4.8539 37.0419 4.8539 36.3148C4.8539 35.4703 5.30017 35.0232 5.96065 35.0232C6.099 35.0232 6.25073 35.0367 6.35337 35.0728C6.63452 35.1677 6.77287 35.3528 6.87997 35.7322L7.01832 35.7006C6.98708 35.4251 6.9603 35.1315 6.95138 34.9599C6.80411 34.9509 6.49618 34.847 6.02759 34.847C5.12612 34.847 4.34961 35.3845 4.34961 36.3735C4.34961 37.2858 5.00117 37.9135 6.00528 37.9135C6.37569 37.9135 6.7327 37.8142 7.00493 37.7554C6.98262 37.6335 6.97815 37.4845 6.97815 37.3264V36.9516C6.97815 36.6761 7.00047 36.6535 7.27269 36.6129V36.4774ZM8.71955 37.7148C8.38038 37.6877 8.35807 37.6651 8.35807 37.3716V36.5225C8.45178 36.3012 8.60798 36.1793 8.69723 36.1793C8.77756 36.1793 8.83112 36.229 8.89806 36.2967C8.93376 36.3238 8.97392 36.3329 9.01855 36.3058C9.09888 36.2651 9.18367 36.1567 9.18367 36.0348C9.18367 35.9128 9.08549 35.809 8.92037 35.809C8.70616 35.809 8.52319 36.0393 8.35807 36.2877C8.35807 36.1432 8.35807 35.9445 8.35807 35.7954C8.13493 35.8857 7.92518 35.9399 7.69758 35.9761V36.0935C7.9475 36.1296 7.96535 36.1432 7.96535 36.4277V37.3761C7.96535 37.6651 7.93857 37.6877 7.66634 37.7148V37.8458H8.71955V37.7148ZM11.0041 37.3445C10.8434 37.498 10.6694 37.5703 10.4909 37.5703C10.174 37.5703 9.82593 37.3264 9.83486 36.7438C10.3481 36.7258 10.9282 36.6851 11.0175 36.667C11.0844 36.649 11.0978 36.5993 11.0978 36.5135C11.1023 36.1522 10.8033 35.809 10.4061 35.809C10.174 35.809 9.92858 35.9219 9.73668 36.1341C9.55371 36.3328 9.43767 36.6219 9.43767 36.929C9.43767 37.4529 9.77238 37.9 10.3258 37.9C10.4775 37.9 10.7943 37.8232 11.08 37.4529L11.0041 37.3445ZM10.6828 36.4367C10.6828 36.509 10.656 36.527 10.5801 36.527C10.3302 36.5406 10.0937 36.5406 9.85717 36.5406C9.91072 36.1793 10.1026 35.9806 10.3034 35.9806C10.54 35.9806 10.6872 36.2019 10.6828 36.4367ZM13.3169 37.6696L13.2723 37.5387C13.2232 37.5658 13.1696 37.5883 13.1161 37.5883C13.0357 37.5883 12.9643 37.5251 12.9643 37.3174C12.9643 37.0735 12.9643 36.7032 12.9643 36.4593C12.9643 36.2245 12.8929 36.0664 12.7323 35.9309C12.6252 35.8496 12.4824 35.809 12.3396 35.809C12.0897 35.8632 11.8264 36.0212 11.688 36.1251C11.5943 36.1883 11.5363 36.2425 11.5363 36.3103C11.5363 36.4232 11.6568 36.5135 11.746 36.5135C11.8174 36.5135 11.8621 36.4819 11.8844 36.4006C11.9245 36.2696 11.9558 36.1748 12.0049 36.107C12.0495 36.0528 12.112 36.0077 12.2101 36.0077C12.4333 36.0077 12.5805 36.1838 12.5805 36.4864V36.5993C12.4824 36.6806 12.1432 36.798 11.871 36.8929C11.63 36.9787 11.5095 37.1187 11.5095 37.34C11.5095 37.629 11.7371 37.9 12.0673 37.9C12.1968 37.9 12.4154 37.7374 12.5895 37.62C12.6118 37.6922 12.6386 37.7555 12.701 37.8142C12.7457 37.8638 12.8439 37.9 12.9197 37.9L13.3169 37.6696ZM12.5805 37.4664C12.4958 37.5522 12.353 37.6154 12.2458 37.6154C12.112 37.6154 11.9335 37.5071 11.9335 37.2677C11.9335 37.1006 12.0316 37.0193 12.1968 36.9425C12.2949 36.8974 12.4868 36.807 12.5805 36.7619C12.5805 36.9741 12.5805 37.2542 12.5805 37.4664ZM14.7457 37.6832L14.7056 37.5613C14.6386 37.5929 14.5449 37.629 14.4467 37.629C14.3351 37.629 14.1923 37.5658 14.1923 37.2V36.0528H14.6609C14.7145 36.0122 14.7279 35.9083 14.6877 35.8632H14.1923C14.1923 35.6238 14.1968 35.3664 14.2057 35.1857L14.1388 35.1722C14.0406 35.267 13.8933 35.389 13.7996 35.4838V35.8632H13.5988L13.4738 35.9987L13.4962 36.0528H13.7996V37.358C13.7996 37.7284 13.9603 37.9 14.2548 37.9C14.2994 37.9 14.3708 37.8864 14.4467 37.8458L14.7457 37.6832ZM16.5563 37.3445C16.3956 37.498 16.2216 37.5703 16.0431 37.5703C15.7262 37.5703 15.3781 37.3264 15.387 36.7438C15.9003 36.7258 16.4804 36.6851 16.5697 36.667C16.6366 36.649 16.65 36.5993 16.65 36.5135C16.6545 36.1522 16.3555 35.809 15.9583 35.809C15.7262 35.809 15.4808 35.9219 15.2889 36.1341C15.1059 36.3328 14.9899 36.6219 14.9899 36.929C14.9899 37.4529 15.3246 37.9 15.8779 37.9C16.0297 37.9 16.3465 37.8232 16.6321 37.4529L16.5563 37.3445ZM16.235 36.4367C16.235 36.509 16.2082 36.527 16.1323 36.527C15.8824 36.5406 15.6459 36.5406 15.4094 36.5406C15.4629 36.1793 15.6548 35.9806 15.8556 35.9806C16.0922 35.9806 16.2394 36.2019 16.235 36.4367ZM18.0619 37.7148C17.7227 37.6877 17.7004 37.6651 17.7004 37.3716V36.5225C17.7941 36.3012 17.9503 36.1793 18.0396 36.1793C18.1199 36.1793 18.1735 36.229 18.2404 36.2967C18.2761 36.3238 18.3163 36.3329 18.3609 36.3058C18.4412 36.2651 18.526 36.1567 18.526 36.0348C18.526 35.9128 18.4278 35.809 18.2627 35.809C18.0485 35.809 17.8655 36.0393 17.7004 36.2877C17.7004 36.1432 17.7004 35.9445 17.7004 35.7954C17.4773 35.8857 17.2675 35.9399 17.0399 35.9761V36.0935C17.2898 36.1296 17.3077 36.1432 17.3077 36.4277V37.3761C17.3077 37.6651 17.2809 37.6877 17.0087 37.7148V37.8458H18.0619V37.7148ZM22.5203 37.0645C22.2927 37.5251 22.0651 37.7374 21.6278 37.7374C20.9584 37.7374 20.4764 37.1774 20.4764 36.3103C20.4764 35.6193 20.8557 35.0232 21.5876 35.0232C21.7483 35.0232 21.9089 35.0457 22.0205 35.0999C22.2526 35.1948 22.3686 35.3844 22.4623 35.6961L22.6051 35.6645C22.5694 35.4432 22.5382 35.1586 22.5203 34.9554C22.382 34.9374 22.0651 34.847 21.6947 34.847C20.6772 34.847 19.9721 35.4477 19.9721 36.4096C19.9721 37.1638 20.5077 37.9135 21.5966 37.9135C21.9357 37.9135 22.2883 37.8277 22.4132 37.8051C22.4846 37.6606 22.6007 37.3354 22.6632 37.1142L22.5203 37.0645ZM24.7117 37.3445C24.5511 37.498 24.377 37.5703 24.1985 37.5703C23.8817 37.5703 23.5336 37.3264 23.5425 36.7438C24.0557 36.7258 24.6359 36.6851 24.7251 36.667C24.7921 36.649 24.8054 36.5993 24.8054 36.5135C24.8099 36.1522 24.5109 35.809 24.1137 35.809C23.8817 35.809 23.6362 35.9219 23.4443 36.1341C23.2613 36.3328 23.1453 36.6219 23.1453 36.929C23.1453 37.4529 23.48 37.9 24.0334 37.9C24.1851 37.9 24.502 37.8232 24.7876 37.4529L24.7117 37.3445ZM24.3904 36.4367C24.3904 36.509 24.3636 36.527 24.2878 36.527C24.0379 36.5406 23.8013 36.5406 23.5648 36.5406C23.6184 36.1793 23.8103 35.9806 24.0111 35.9806C24.2476 35.9806 24.3949 36.2019 24.3904 36.4367ZM27.3866 37.8458V37.7148C27.1367 37.6877 27.1099 37.6742 27.1099 37.3716V36.5135C27.1099 36.0754 26.8823 35.809 26.5253 35.809C26.3958 35.809 26.2843 35.8587 26.1593 35.9399C26.0478 36.0122 25.9496 36.0799 25.8603 36.1432C25.8603 36.0393 25.8603 35.8903 25.8603 35.7954C25.664 35.8767 25.4274 35.9354 25.1998 35.9716V36.0935C25.4364 36.1341 25.4676 36.1477 25.4676 36.4367V37.3716C25.4676 37.6696 25.4408 37.6832 25.1552 37.7148V37.8458H26.1325V37.7148C25.8826 37.6877 25.8603 37.6787 25.8603 37.3716V36.3103C25.9942 36.1883 26.1549 36.0935 26.3244 36.0935C26.5967 36.0935 26.7172 36.2877 26.7172 36.6038V37.3535C26.7172 37.6606 26.6904 37.6877 26.4449 37.7148V37.8458H27.3866ZM28.898 37.6832L28.8578 37.5613C28.7908 37.5929 28.6971 37.629 28.5989 37.629C28.4874 37.629 28.3446 37.5658 28.3446 37.2V36.0528H28.8132C28.8667 36.0122 28.8801 35.9083 28.8399 35.8632H28.3446C28.3446 35.6238 28.349 35.3664 28.358 35.1857L28.291 35.1722C28.1928 35.267 28.0456 35.389 27.9519 35.4838V35.8632H27.751L27.6261 35.9987L27.6484 36.0528H27.9519V37.358C27.9519 37.7284 28.1125 37.9 28.407 37.9C28.4517 37.9 28.5231 37.8864 28.5989 37.8458L28.898 37.6832ZM30.7085 37.3445C30.5479 37.498 30.3738 37.5703 30.1953 37.5703C29.8784 37.5703 29.5304 37.3264 29.5393 36.7438C30.0525 36.7258 30.6326 36.6851 30.7219 36.667C30.7888 36.649 30.8022 36.5993 30.8022 36.5135C30.8067 36.1522 30.5077 35.809 30.1105 35.809C29.8784 35.809 29.633 35.9219 29.4411 36.1341C29.2581 36.3328 29.1421 36.6219 29.1421 36.929C29.1421 37.4529 29.4768 37.9 30.0302 37.9C30.1819 37.9 30.4988 37.8232 30.7844 37.4529L30.7085 37.3445ZM30.3872 36.4367C30.3872 36.509 30.3604 36.527 30.2846 36.527C30.0346 36.5406 29.7981 36.5406 29.5616 36.5406C29.6151 36.1793 29.807 35.9806 30.0079 35.9806C30.2444 35.9806 30.3917 36.2019 30.3872 36.4367ZM33.3834 37.8458V37.7148C33.1335 37.6877 33.1067 37.6742 33.1067 37.3716V36.5135C33.1067 36.0754 32.8791 35.809 32.5221 35.809C32.3926 35.809 32.2811 35.8587 32.1561 35.9399C32.0445 36.0122 31.9464 36.0799 31.8571 36.1432C31.8571 36.0393 31.8571 35.8903 31.8571 35.7954C31.6608 35.8767 31.4242 35.9354 31.1966 35.9716V36.0935C31.4332 36.1341 31.4644 36.1477 31.4644 36.4367V37.3716C31.4644 37.6696 31.4376 37.6832 31.152 37.7148V37.8458H32.1293V37.7148C31.8794 37.6877 31.8571 37.6787 31.8571 37.3716V36.3103C31.991 36.1883 32.1517 36.0935 32.3212 36.0935C32.5935 36.0935 32.714 36.2877 32.714 36.6038V37.3535C32.714 37.6606 32.6872 37.6877 32.4417 37.7148V37.8458H33.3834ZM35.9561 37.8458V37.7148C35.7062 37.6877 35.6794 37.6742 35.6794 37.3716V36.5135C35.6794 36.0754 35.4518 35.809 35.0948 35.809C34.9654 35.809 34.8538 35.8587 34.7289 35.9399C34.6173 36.0122 34.5191 36.0799 34.4299 36.1432C34.4299 36.0393 34.4299 35.8903 34.4299 35.7954C34.2335 35.8767 33.997 35.9354 33.7694 35.9716V36.0935C34.0059 36.1341 34.0372 36.1477 34.0372 36.4367V37.3716C34.0372 37.6696 34.0104 37.6832 33.7248 37.7148V37.8458H34.7021V37.7148C34.4522 37.6877 34.4299 37.6787 34.4299 37.3716V36.3103C34.5638 36.1883 34.7244 36.0935 34.894 36.0935C35.1662 36.0935 35.2867 36.2877 35.2867 36.6038V37.3535C35.2867 37.6606 35.2599 37.6877 35.0145 37.7148V37.8458H35.9561ZM37.0032 35.1315C37.0032 34.9825 36.8916 34.8696 36.7577 34.8696C36.6194 34.8696 36.5034 34.9825 36.5034 35.1315C36.5034 35.267 36.6194 35.3845 36.7533 35.3845C36.8916 35.3845 37.0032 35.267 37.0032 35.1315ZM37.2888 37.8458V37.7148C37.0032 37.6877 36.9764 37.6651 36.9764 37.358V36.3645C36.9764 36.1793 36.9764 35.9896 36.9764 35.7999C36.7756 35.8767 36.5525 35.9354 36.3115 35.9761V36.0935C36.5703 36.1341 36.5837 36.1522 36.5837 36.4367V37.358C36.5837 37.6651 36.5525 37.6877 36.2802 37.7148V37.8458H37.2888ZM39.4497 37.6696L39.4051 37.5387C39.356 37.5658 39.3024 37.5883 39.2489 37.5883C39.1685 37.5883 39.0971 37.5251 39.0971 37.3174C39.0971 37.0735 39.0971 36.7032 39.0971 36.4593C39.0971 36.2245 39.0257 36.0664 38.8651 35.9309C38.758 35.8496 38.6152 35.809 38.4724 35.809C38.2224 35.8632 37.9591 36.0212 37.8208 36.1251C37.7271 36.1883 37.6691 36.2425 37.6691 36.3103C37.6691 36.4232 37.7896 36.5135 37.8788 36.5135C37.9502 36.5135 37.9948 36.4819 38.0172 36.4006C38.0573 36.2696 38.0886 36.1748 38.1377 36.107C38.1823 36.0528 38.2448 36.0077 38.3429 36.0077C38.5661 36.0077 38.7133 36.1838 38.7133 36.4864V36.5993C38.6152 36.6806 38.276 36.798 38.0038 36.8929C37.7628 36.9787 37.6423 37.1187 37.6423 37.34C37.6423 37.629 37.8699 37.9 38.2001 37.9C38.3296 37.9 38.5482 37.7374 38.7223 37.62C38.7446 37.6922 38.7714 37.7555 38.8338 37.8142C38.8785 37.8638 38.9766 37.9 39.0525 37.9L39.4497 37.6696ZM38.7133 37.4664C38.6286 37.5522 38.4857 37.6154 38.3786 37.6154C38.2448 37.6154 38.0662 37.5071 38.0662 37.2677C38.0662 37.1006 38.1644 37.0193 38.3295 36.9425C38.4277 36.8974 38.6196 36.807 38.7133 36.7619C38.7133 36.9741 38.7133 37.2542 38.7133 37.4664ZM40.6723 37.8458V37.7148C40.3911 37.6877 40.3644 37.6651 40.3644 37.3671V35.2535C40.3644 35.0412 40.3644 34.8244 40.3644 34.6167C40.2082 34.6709 39.927 34.7432 39.6726 34.7703V34.8922C39.9493 34.9283 39.9716 34.9554 39.9716 35.2264V37.3671C39.9716 37.6651 39.9404 37.6877 39.6637 37.7148V37.8458H40.6723ZM44.2949 35.6057C44.2726 35.3799 44.2547 35.0503 44.2503 34.9012C44.1744 34.9057 44.0093 34.9103 43.6121 34.9103H42.1796V35.0457C42.5321 35.0819 42.5768 35.0999 42.5768 35.4974V37.2632C42.5768 37.6561 42.5366 37.6877 42.1796 37.7148V37.8458H43.4515V37.7148C43.0454 37.6787 43.0052 37.6606 43.0052 37.2632V36.4729H43.5452C43.8486 36.4729 43.8888 36.5451 43.9424 36.8612H44.0852V35.9038H43.9468C43.8799 36.2199 43.8576 36.2787 43.5452 36.2787H43.0052V35.2444C43.0052 35.109 43.0186 35.0999 43.1525 35.0999H43.6032C43.8486 35.0999 43.9156 35.1315 44.0004 35.2761C44.0629 35.3709 44.1075 35.4883 44.1476 35.6238L44.2949 35.6057ZM46.2178 37.3445C46.0571 37.498 45.8831 37.5703 45.7046 37.5703C45.3877 37.5703 45.0396 37.3264 45.0484 36.7438C45.5618 36.7258 46.1419 36.6851 46.2312 36.667C46.2981 36.649 46.3115 36.5993 46.3115 36.5135C46.316 36.1522 46.017 35.809 45.6198 35.809C45.3877 35.809 45.1423 35.9219 44.9504 36.1341C44.7674 36.3328 44.6514 36.6219 44.6514 36.929C44.6514 37.4529 44.9861 37.9 45.5395 37.9C45.6912 37.9 46.008 37.8232 46.2937 37.4529L46.2178 37.3445ZM45.8965 36.4367C45.8965 36.509 45.8697 36.527 45.7938 36.527C45.5439 36.5406 45.3074 36.5406 45.0709 36.5406C45.1244 36.1793 45.3163 35.9806 45.5171 35.9806C45.7537 35.9806 45.9009 36.2019 45.8965 36.4367ZM48.9181 37.6019L48.7842 37.5929C48.6147 37.5748 48.5879 37.5522 48.5879 37.3174V35.1632C48.5879 34.9735 48.5879 34.7838 48.5879 34.6167C48.4094 34.6754 48.088 34.7386 47.8515 34.7703V34.8922C48.1639 34.9193 48.1907 34.9328 48.1907 35.2128V35.8496C48.1014 35.8135 47.9676 35.809 47.9095 35.809C47.2848 35.809 46.7403 36.2787 46.7403 36.9064C46.7403 37.5477 47.2267 37.9 47.5882 37.9C47.6418 37.9 47.7533 37.8774 47.9185 37.778C47.9988 37.7284 48.1104 37.6651 48.1907 37.6154C48.1907 37.7103 48.1907 37.8096 48.1907 37.9045C48.4718 37.8051 48.8199 37.7509 48.9181 37.7329V37.6019ZM48.1907 37.4619C48.088 37.5387 47.9319 37.6109 47.7846 37.6109C47.5168 37.6064 47.1821 37.3309 47.1821 36.7754C47.1821 36.1251 47.5481 35.9896 47.7489 35.9896C47.9229 35.9896 48.1014 36.0664 48.1907 36.2154V37.4619ZM50.8097 37.3445C50.6491 37.498 50.475 37.5703 50.2965 37.5703C49.9797 37.5703 49.6316 37.3264 49.6405 36.7438C50.1537 36.7258 50.7339 36.6851 50.8231 36.667C50.8901 36.649 50.9035 36.5993 50.9035 36.5135C50.9079 36.1522 50.6089 35.809 50.2117 35.809C49.9797 35.809 49.7342 35.9219 49.5423 36.1341C49.3594 36.3328 49.2433 36.6219 49.2433 36.929C49.2433 37.4529 49.578 37.9 50.1314 37.9C50.2832 37.9 50.6 37.8232 50.8856 37.4529L50.8097 37.3445ZM50.4884 36.4367C50.4884 36.509 50.4617 36.527 50.3858 36.527C50.1359 36.5406 49.8994 36.5406 49.6628 36.5406C49.7164 36.1793 49.9083 35.9806 50.1091 35.9806C50.3456 35.9806 50.4929 36.2019 50.4884 36.4367ZM52.3154 37.7148C51.9762 37.6877 51.9539 37.6651 51.9539 37.3716V36.5225C52.0476 36.3012 52.2038 36.1793 52.2931 36.1793C52.3734 36.1793 52.4269 36.229 52.4939 36.2967C52.5296 36.3238 52.5697 36.3329 52.6144 36.3058C52.6947 36.2651 52.7795 36.1567 52.7795 36.0348C52.7795 35.9128 52.6813 35.809 52.5162 35.809C52.302 35.809 52.119 36.0393 51.9539 36.2877C51.9539 36.1432 51.9539 35.9445 51.9539 35.7954C51.7307 35.8857 51.521 35.9399 51.2934 35.9761V36.0935C51.5433 36.1296 51.5612 36.1432 51.5612 36.4277V37.3761C51.5612 37.6651 51.5344 37.6877 51.2622 37.7148V37.8458H52.3154V37.7148ZM54.8803 37.6696L54.8357 37.5387C54.7866 37.5658 54.733 37.5883 54.6795 37.5883C54.5992 37.5883 54.5278 37.5251 54.5278 37.3174C54.5278 37.0735 54.5278 36.7032 54.5278 36.4593C54.5278 36.2245 54.4564 36.0664 54.2957 35.9309C54.1886 35.8496 54.0458 35.809 53.903 35.809C53.6531 35.8632 53.3898 36.0212 53.2514 36.1251C53.1577 36.1883 53.0997 36.2425 53.0997 36.3103C53.0997 36.4232 53.2202 36.5135 53.3094 36.5135C53.3808 36.5135 53.4255 36.4819 53.4478 36.4006C53.4879 36.2696 53.5192 36.1748 53.5683 36.107C53.6129 36.0528 53.6754 36.0077 53.7736 36.0077C53.9967 36.0077 54.144 36.1838 54.144 36.4864V36.5993C54.0458 36.6806 53.7066 36.798 53.4344 36.8929C53.1934 36.9787 53.0729 37.1187 53.0729 37.34C53.0729 37.629 53.3005 37.9 53.6308 37.9C53.7602 37.9 53.9788 37.7374 54.1529 37.62C54.1752 37.6922 54.202 37.7555 54.2645 37.8142C54.3091 37.8638 54.4073 37.9 54.4831 37.9L54.8803 37.6696ZM54.144 37.4664C54.0592 37.5522 53.9164 37.6154 53.8093 37.6154C53.6754 37.6154 53.4969 37.5071 53.4969 37.2677C53.4969 37.1006 53.5951 37.0193 53.7602 36.9425C53.8583 36.8974 54.0502 36.807 54.144 36.7619C54.144 36.9741 54.144 37.2542 54.144 37.4664ZM56.1029 37.8458V37.7148C55.8218 37.6877 55.795 37.6651 55.795 37.3671V35.2535C55.795 35.0412 55.795 34.8244 55.795 34.6167C55.6388 34.6709 55.3576 34.7432 55.1033 34.7703V34.8922C55.38 34.9283 55.4023 34.9554 55.4023 35.2264V37.3671C55.4023 37.6651 55.371 37.6877 55.0943 37.7148V37.8458H56.1029ZM60.1631 37.0645C59.9353 37.5251 59.7077 37.7374 59.2705 37.7374C58.6011 37.7374 58.1191 37.1774 58.1191 36.3103C58.1191 35.6193 58.4985 35.0232 59.2304 35.0232C59.391 35.0232 59.5517 35.0457 59.6632 35.0999C59.8953 35.1948 60.0113 35.3844 60.1051 35.6961L60.2479 35.6645C60.2122 35.4432 60.1809 35.1586 60.1631 34.9554C60.0247 34.9374 59.7077 34.847 59.3375 34.847C58.32 34.847 57.6149 35.4477 57.6149 36.4096C57.6149 37.1638 58.1504 37.9135 59.2393 37.9135C59.5784 37.9135 59.931 37.8277 60.056 37.8051C60.1274 37.6606 60.2434 37.3354 60.3059 37.1142L60.1631 37.0645ZM61.7537 37.7148C61.4145 37.6877 61.3922 37.6651 61.3922 37.3716V36.5225C61.4859 36.3012 61.6421 36.1793 61.7313 36.1793C61.8117 36.1793 61.8652 36.229 61.9322 36.2967C61.9679 36.3238 62.008 36.3329 62.0527 36.3058C62.133 36.2651 62.2178 36.1567 62.2178 36.0348C62.2178 35.9128 62.1196 35.809 61.9545 35.809C61.7403 35.809 61.5573 36.0393 61.3922 36.2877C61.3922 36.1432 61.3922 35.9445 61.3922 35.7954C61.169 35.8857 60.9593 35.9399 60.7317 35.9761V36.0935C60.9816 36.1296 60.9995 36.1432 60.9995 36.4277V37.3761C60.9995 37.6651 60.9727 37.6877 60.7005 37.7148V37.8458H61.7537V37.7148ZM64.038 37.3445C63.8774 37.498 63.7033 37.5703 63.5248 37.5703C63.2079 37.5703 62.8599 37.3264 62.8688 36.7438C63.382 36.7258 63.9621 36.6851 64.0514 36.667C64.1183 36.649 64.1317 36.5993 64.1317 36.5135C64.1362 36.1522 63.8372 35.809 63.44 35.809C63.208 35.809 62.9625 35.9219 62.7706 36.1341C62.5876 36.3328 62.4716 36.6219 62.4716 36.929C62.4716 37.4529 62.8063 37.9 63.3597 37.9C63.5114 37.9 63.8283 37.8232 64.1139 37.4529L64.038 37.3445ZM63.7167 36.4367C63.7167 36.509 63.6899 36.527 63.6141 36.527C63.3641 36.5406 63.1276 36.5406 62.8911 36.5406C62.9446 36.1793 63.1365 35.9806 63.3374 35.9806C63.5739 35.9806 63.7212 36.2019 63.7167 36.4367ZM66.7385 37.6019L66.6046 37.5929C66.4351 37.5748 66.4083 37.5522 66.4083 37.3174V35.1632C66.4083 34.9735 66.4083 34.7838 66.4083 34.6167C66.2298 34.6754 65.9085 34.7386 65.6719 34.7703V34.8922C65.9843 34.9193 66.0111 34.9328 66.0111 35.2128V35.8496C65.9218 35.8135 65.788 35.809 65.7299 35.809C65.1052 35.809 64.5607 36.2787 64.5607 36.9064C64.5607 37.5477 65.0471 37.9 65.4086 37.9C65.4622 37.9 65.5738 37.8774 65.7389 37.778C65.8192 37.7284 65.9308 37.6651 66.0111 37.6154C66.0111 37.7103 66.0111 37.8096 66.0111 37.9045C66.2923 37.8051 66.6403 37.7509 66.7385 37.7329V37.6019ZM66.0111 37.4619C65.9085 37.5387 65.7523 37.6109 65.605 37.6109C65.3372 37.6064 65.0025 37.3309 65.0025 36.7754C65.0025 36.1251 65.3685 35.9896 65.5693 35.9896C65.7433 35.9896 65.9218 36.0664 66.0111 36.2154V37.4619ZM67.7599 35.1315C67.7599 34.9825 67.6484 34.8696 67.5145 34.8696C67.3761 34.8696 67.2601 34.9825 67.2601 35.1315C67.2601 35.267 67.3761 35.3845 67.51 35.3845C67.6484 35.3845 67.7599 35.267 67.7599 35.1315ZM68.0455 37.8458V37.7148C67.7599 37.6877 67.7332 37.6651 67.7332 37.358V36.3645C67.7332 36.1793 67.7332 35.9896 67.7332 35.7999C67.5323 35.8767 67.3092 35.9354 67.0682 35.9761V36.0935C67.327 36.1341 67.3404 36.1522 67.3404 36.4367V37.358C67.3404 37.6651 67.3092 37.6877 67.037 37.7148V37.8458H68.0455ZM69.5288 37.6832L69.4887 37.5613C69.4217 37.5929 69.328 37.629 69.2298 37.629C69.1183 37.629 68.9755 37.5658 68.9755 37.2V36.0528H69.4441C69.4976 36.0122 69.511 35.9083 69.4708 35.8632H68.9755C68.9755 35.6238 68.9799 35.3664 68.9889 35.1857L68.9219 35.1722C68.8237 35.267 68.6765 35.389 68.5827 35.4838V35.8632H68.3819L68.257 35.9987L68.2793 36.0528H68.5827V37.358C68.5827 37.7284 68.7434 37.9 69.0379 37.9C69.0826 37.9 69.154 37.8864 69.2298 37.8458L69.5288 37.6832ZM74.0347 34.9103H72.9547V35.0457C73.285 35.0638 73.3921 35.1361 73.4055 35.3393C73.4144 35.4657 73.4278 35.6328 73.4278 36.0303V36.509C73.4278 37.2451 73.2225 37.6425 72.6066 37.6425C72.08 37.6425 71.7855 37.2858 71.7855 36.658V35.5154C71.7855 35.1044 71.8212 35.0683 72.1738 35.0457V34.9103H70.9644V35.0457C71.3169 35.0774 71.3526 35.1044 71.3526 35.5154V36.6625C71.3526 37.1864 71.482 37.4935 71.7453 37.7013C71.9462 37.8548 72.2273 37.9135 72.4906 37.9135C72.803 37.9135 73.1065 37.8413 73.3162 37.62C73.5751 37.3445 73.6286 36.9832 73.6286 36.5361V36.0303C73.6286 35.6328 73.6375 35.4477 73.642 35.3393C73.6554 35.1406 73.7536 35.0638 74.0347 35.0457V34.9103ZM76.3736 37.8458V37.7148C76.1236 37.6877 76.0969 37.6742 76.0969 37.3716V36.5135C76.0969 36.0754 75.8693 35.809 75.5122 35.809C75.3828 35.809 75.2713 35.8587 75.1463 35.9399C75.0347 36.0122 74.9365 36.0799 74.8473 36.1432C74.8473 36.0393 74.8473 35.8903 74.8473 35.7954C74.6509 35.8767 74.4144 35.9354 74.1868 35.9716V36.0935C74.4233 36.1341 74.4546 36.1477 74.4546 36.4367V37.3716C74.4546 37.6696 74.4278 37.6832 74.1422 37.7148V37.8458H75.1195V37.7148C74.8696 37.6877 74.8473 37.6787 74.8473 37.3716V36.3103C74.9812 36.1883 75.1418 36.0935 75.3114 36.0935C75.5836 36.0935 75.7041 36.2877 75.7041 36.6038V37.3535C75.7041 37.6606 75.6774 37.6877 75.4319 37.7148V37.8458H76.3736ZM77.4204 35.1315C77.4204 34.9825 77.3089 34.8696 77.175 34.8696C77.0366 34.8696 76.9206 34.9825 76.9206 35.1315C76.9206 35.267 77.0366 35.3845 77.1705 35.3845C77.3089 35.3845 77.4204 35.267 77.4204 35.1315ZM77.706 37.8458V37.7148C77.4204 37.6877 77.3937 37.6651 77.3937 37.358V36.3645C77.3937 36.1793 77.3937 35.9896 77.3937 35.7999C77.1928 35.8767 76.9697 35.9354 76.7287 35.9761V36.0935C76.9875 36.1341 77.0009 36.1522 77.0009 36.4367V37.358C77.0009 37.6651 76.9697 37.6877 76.6975 37.7148V37.8458H77.706ZM78.0461 36.8883C78.0461 37.3987 78.4255 37.9 79.0503 37.9C79.5055 37.9 80.0365 37.5522 80.0365 36.8206C80.0365 36.247 79.6259 35.809 79.0547 35.809C78.6129 35.809 78.0461 36.1612 78.0461 36.8883ZM79.5769 36.9245C79.5769 37.5522 79.3537 37.7374 79.0949 37.7374C78.7468 37.7374 78.5058 37.3219 78.5058 36.7483C78.5058 36.2199 78.7423 35.967 79.0012 35.967C79.3716 35.967 79.5769 36.378 79.5769 36.9245ZM82.6493 37.8458V37.7148C82.3994 37.6877 82.3726 37.6742 82.3726 37.3716V36.5135C82.3726 36.0754 82.145 35.809 81.788 35.809C81.6585 35.809 81.547 35.8587 81.422 35.9399C81.3104 36.0122 81.2123 36.0799 81.123 36.1432C81.123 36.0393 81.123 35.8903 81.123 35.7954C80.9267 35.8767 80.6901 35.9354 80.4625 35.9716V36.0935C80.6991 36.1341 80.7303 36.1477 80.7303 36.4367V37.3716C80.7303 37.6696 80.7035 37.6832 80.4179 37.7148V37.8458H81.3952V37.7148C81.1453 37.6877 81.123 37.6787 81.123 37.3716V36.3103C81.2569 36.1883 81.4175 36.0935 81.5871 36.0935C81.8594 36.0935 81.9798 36.2877 81.9798 36.6038V37.3535C81.9798 37.6606 81.9531 37.6877 81.7076 37.7148V37.8458H82.6493Z" fill="#48803D"/>
<path d="M29.4821 28.7359H26.0917V29.1231C27.3581 29.2166 27.4637 29.3234 27.4637 30.2981V31.3797C27.4637 31.9271 27.3054 32.1007 27.0283 32.2609C26.7645 32.3944 26.3555 32.4745 25.907 32.4745C23.3214 32.4745 22.2528 30.3782 22.2528 28.2419C22.2528 25.7183 23.5852 24.3964 25.6036 24.3964C26.0389 24.3964 26.4875 24.4364 26.7909 24.5433C27.622 24.8237 28.0177 25.3444 28.3344 26.4793L28.7301 26.3992C28.6246 25.558 28.5586 24.7302 28.5322 24.2362C28.1233 24.2094 27.1866 23.9023 25.7883 23.9023C23.1499 23.9023 20.8809 25.5046 20.8809 28.4021C20.8809 31.0859 22.7937 32.9686 25.7355 32.9686C26.8437 32.9686 27.8726 32.6748 28.6905 32.4879C28.6246 32.1274 28.6114 31.6868 28.6114 31.2194V30.0978C28.6114 29.31 28.6642 29.2299 29.4821 29.1231V28.7359ZM38.4591 30.4984C37.7863 31.8336 37.1399 32.4612 35.7943 32.4612C33.7891 32.4612 32.3248 30.8055 32.3248 28.2285C32.3248 26.1856 33.4725 24.3964 35.6888 24.3964C36.1901 24.3964 36.665 24.4631 37.008 24.6234C37.6808 24.9038 38.0237 25.4913 38.2876 26.3859L38.6965 26.2924C38.591 25.6248 38.4987 24.8103 38.4459 24.2094C38.0106 24.156 37.1003 23.9023 36.0186 23.9023C33.0372 23.9023 30.9528 25.6515 30.9528 28.5089C30.9528 30.7654 32.5622 32.9686 35.7151 32.9686C36.7177 32.9686 37.7467 32.7149 38.1293 32.6481C38.3272 32.2342 38.6702 31.2728 38.8548 30.6319L38.4591 30.4984ZM46.4383 26.1188C46.3723 25.4779 46.3196 24.5433 46.3064 24.0626C46.0821 24.0759 45.6336 24.0893 44.4463 24.0893H40.2644V24.4631C41.3198 24.57 41.4517 24.6234 41.4517 25.785V31.0726C41.4517 32.2209 41.333 32.3143 40.2644 32.3944V32.7683H43.9318V32.3944C42.7313 32.2876 42.5994 32.2342 42.5994 31.0726V28.6825H44.2352C45.1719 28.6825 45.2642 28.8961 45.4357 29.8308H45.8447V27.0401H45.4489C45.251 27.9748 45.1851 28.135 44.2352 28.135H42.5994V25.0506C42.5994 24.6634 42.639 24.6234 43.0216 24.6234H44.4331C45.1719 24.6234 45.3698 24.7302 45.6204 25.1842C45.8051 25.4779 45.9106 25.7984 46.0294 26.1722L46.4383 26.1188ZM55.2923 30.4984C54.6195 31.8336 53.9731 32.4612 52.6275 32.4612C50.6223 32.4612 49.158 30.8055 49.158 28.2285C49.158 26.1856 50.3057 24.3964 52.5219 24.3964C53.0232 24.3964 53.4981 24.4631 53.8411 24.6234C54.5139 24.9038 54.8569 25.4913 55.1208 26.3859L55.5297 26.2924C55.4242 25.6248 55.3318 24.8103 55.2791 24.2094C54.8437 24.156 53.9335 23.9023 52.8517 23.9023C49.8703 23.9023 47.786 25.6515 47.786 28.5089C47.786 30.7654 49.3954 32.9686 52.5483 32.9686C53.5509 32.9686 54.5799 32.7149 54.9625 32.6481C55.1603 32.2342 55.5033 31.2728 55.688 30.6319L55.2923 30.4984ZM66.1207 24.0893H62.9546V24.4631C63.9308 24.5166 64.2342 24.7435 64.2738 25.3444C64.3002 25.7049 64.3397 26.2123 64.3397 27.4407V28.8027C64.3397 31.0191 63.7461 32.1941 61.8728 32.1941C60.2898 32.1941 59.3795 31.126 59.3795 29.1765V25.8384C59.3795 24.6367 59.4851 24.5299 60.5404 24.4631V24.0893H57.0709V24.4631C58.1263 24.5566 58.2318 24.6367 58.2318 25.8384V29.2433C58.2318 30.8055 58.6144 31.7268 59.4059 32.341C59.9864 32.795 60.8043 32.9552 61.5694 32.9552C62.4797 32.9552 63.3767 32.7549 63.9967 32.1007C64.7619 31.2862 64.9202 30.2447 64.9202 28.8828V27.4407C64.9202 26.2123 64.9466 25.6515 64.9598 25.3444C64.9861 24.7302 65.2896 24.5166 66.1207 24.4631V24.0893Z" fill="#20CF50"/>
</svg>
