<svg width="785" height="218" viewBox="0 0 785 218" fill="none" xmlns="http://www.w3.org/2000/svg">
<path d="M124.14 100.57V100.82L124.26 101.03L133.53 118.2L127.53 143.47L127.47 143.73V143.99L129.47 158.67L126.2 174L126.11 174.42L126.26 174.82L129.75 183.74H28.75V192.51L29.13 192.92L36.76 201.14L34.94 207.14L34.6 208.29L35.67 208.83L38.43 210.2L35.36 215.69C34.6882 215.762 34.0207 215.869 33.36 216.01L31.11 216.51L30.11 216.75C28.99 217 27.9 217.23 26.91 217.37C26.1173 217.504 25.3105 217.534 24.51 217.46C23.84 217.36 23.39 216.83 22.9 215.4C22.83 215.2 22.75 214.94 22.67 214.67C22.52 214.21 22.36 213.67 22.21 213.32C21.9539 212.504 21.4286 211.799 20.72 211.32C20.6735 211.236 20.643 211.145 20.63 211.05C20.5522 210.581 20.5354 210.104 20.58 209.63C20.58 209.04 20.71 208.43 20.79 207.83V207.75C20.8744 207.234 20.9278 206.713 20.95 206.19C20.9258 204.688 20.6902 203.196 20.25 201.76C19.9645 200.818 19.4803 199.949 18.83 199.21C18.4417 198.783 17.9598 198.451 17.422 198.241C16.8842 198.031 16.3051 197.949 15.73 198C14.7799 198.038 13.869 198.389 13.14 199C12.5015 199.578 12.0725 200.352 11.92 201.2C11.7706 202.004 11.7169 202.823 11.76 203.64C11.76 204.21 11.82 204.84 11.87 205.47C11.87 205.76 11.87 206.05 11.92 206.33C11.9167 208.169 11.4525 209.977 10.57 211.59C10.218 212.311 9.77432 212.983 9.25001 213.59C9.07224 213.805 8.85918 213.987 8.62001 214.13C8.33001 214.13 8.05001 214.04 7.08001 213.39C5.95316 212.546 4.61981 212.021 3.22001 211.87H3.15001C2.7137 211.845 2.27632 211.845 1.84001 211.87L0.220006 162.07V162C0.224042 161.927 0.224042 161.853 0.220006 161.78C0.220006 161.58 0.220006 161.28 0.220006 160.89C0.220006 160.1 0.150006 158.89 0.120006 157.43C0.0600058 154.43 0.0100058 150.02 0.120006 144.53C0.290006 133.53 0.960006 118.15 3.00001 100.53C5.04001 82.91 7.77001 59.29 10 40.12C11 30.53 12 22.05 12.71 16L13.54 8.83L13.76 6.9L13.82 6.4V6.27L12.43 6L13.84 6.17L13.9 5.67L13.63 5.24L10.28 0L108.68 0.65L124.14 100.57Z" fill="#186EB6"/>
<path d="M186.73 175.45C190.881 175.444 194.963 174.381 198.59 172.36C202.713 170.004 206.375 166.921 209.4 163.26L211.98 165.45C208.83 169.715 204.854 173.303 200.29 176C195.582 178.638 190.255 179.971 184.86 179.86H184.76C180.572 179.899 176.422 179.072 172.57 177.43C168.871 175.844 165.531 173.528 162.75 170.62C159.931 167.648 157.735 164.143 156.29 160.31C153.159 151.808 153.241 142.456 156.52 134.01C158.13 130.058 160.509 126.465 163.52 123.44C166.481 120.464 170.011 118.114 173.9 116.53C177.892 114.899 182.167 114.074 186.48 114.1C189.43 114.057 192.369 114.476 195.19 115.34C197.692 116.135 200.079 117.254 202.29 118.67L204.2 115.05H207.53C207.783 118.29 208.15 121.53 208.63 124.77C209.1 128.01 209.63 131.12 210.29 134.11L207.15 135.06C206.147 132.027 204.683 129.167 202.81 126.58C201.323 124.544 199.504 122.772 197.43 121.34C195.671 120.137 193.724 119.235 191.67 118.67C189.882 118.188 188.041 117.932 186.19 117.91C182.037 117.814 177.973 119.125 174.66 121.63C171.278 124.296 168.691 127.838 167.18 131.87C165.363 136.627 164.474 141.688 164.56 146.78C164.475 151.823 165.365 156.834 167.18 161.54C168.721 165.583 171.36 169.115 174.8 171.74C178.261 174.253 182.454 175.557 186.73 175.45Z" fill="#186EB6"/>
<path d="M235.51 175L236.18 175.57H246.29V178.9H219.29V175.57H225.87L226.44 175V138.59L225.87 137.92H219.29V134.58C220.94 134.58 222.61 134.58 224.29 134.58C225.97 134.58 227.66 134.5 229.29 134.43C230.92 134.36 232.64 134.24 234.29 134.05L234.86 134.62V145H235.43L235.51 175ZM235.51 145C237.143 141.918 239.361 139.184 242.04 136.95C244.513 134.817 247.673 133.648 250.94 133.66C252.339 133.628 253.72 133.973 254.94 134.66C255.932 135.241 256.729 136.104 257.23 137.14C257.7 138.155 257.942 139.261 257.94 140.38C257.96 141.206 257.815 142.029 257.513 142.798C257.211 143.568 256.757 144.269 256.18 144.86C255.591 145.459 254.884 145.929 254.104 146.24C253.325 146.552 252.489 146.698 251.65 146.67C250.826 146.688 250.008 146.537 249.246 146.226C248.484 145.914 247.794 145.45 247.22 144.86C246.642 144.269 246.189 143.568 245.886 142.798C245.584 142.029 245.439 141.206 245.46 140.38C245.488 139.506 245.699 138.648 246.08 137.86C246.382 137.104 246.819 136.409 247.37 135.81L247.27 138.47C245.988 138.897 244.783 139.525 243.7 140.33C242.254 141.468 240.986 142.817 239.94 144.33C238.237 146.758 236.738 149.324 235.46 152L235.51 145Z" fill="#186EB6"/>
<path d="M286.48 175.83C289.481 175.912 292.441 175.12 295 173.55C297.251 172.128 299.317 170.432 301.15 168.5L303.72 170.69C302.349 172.318 300.833 173.818 299.19 175.17C297.398 176.632 295.368 177.775 293.19 178.55C290.43 179.476 287.53 179.912 284.62 179.84C280.745 179.866 276.927 178.914 273.52 177.07C270.111 175.222 267.278 172.472 265.33 169.12C263.294 165.325 262.229 161.086 262.229 156.78C262.229 152.474 263.294 148.235 265.33 144.44C267.288 141.083 270.118 138.319 273.52 136.44C276.918 134.569 280.74 133.601 284.62 133.63C288.209 133.557 291.761 134.371 294.96 136C297.917 137.59 300.3 140.071 301.77 143.09C303.511 146.844 304.344 150.955 304.2 155.09H270.76V151.75H293.76C293.513 146.99 292.64 143.34 291.14 140.8C289.64 138.26 287.26 136.993 284 137C282.754 136.947 281.51 137.142 280.341 137.575C279.172 138.008 278.101 138.669 277.19 139.52C275.291 141.467 273.942 143.882 273.28 146.52C272.376 149.874 271.945 153.337 272 156.81C271.942 160.248 272.624 163.658 274 166.81C275.132 169.451 276.939 171.748 279.24 173.47C281.337 175.014 283.875 175.842 286.48 175.83Z" fill="#186EB6"/>
<path d="M356.21 175L356.78 175.57H363.36V178.9C361.7 178.9 359.99 178.9 358.21 178.95C356.43 179 354.65 179.03 352.88 179.09C351.11 179.15 349.38 179.28 347.73 179.47L347.16 178.9V170.9C345.744 173.328 343.807 175.411 341.49 177C338.778 178.915 335.518 179.901 332.2 179.81C328.559 179.872 324.977 178.898 321.87 177C318.801 175.064 316.354 172.287 314.82 169C313.069 165.246 312.204 161.141 312.29 157C312.196 152.797 313.061 148.628 314.82 144.81C316.36 141.476 318.802 138.639 321.87 136.62C324.939 134.617 328.535 133.572 332.2 133.62C335.557 133.469 338.876 134.386 341.68 136.24C344.013 137.856 345.898 140.037 347.16 142.58V113.24L346.59 112.67H339.92V109.34C341.57 109.34 343.3 109.34 345.11 109.34C346.92 109.34 348.72 109.25 350.5 109.15C352.28 109.05 353.99 108.94 355.64 108.82L356.21 109.39V175ZM347.16 164.14V149.35C345.38 145.29 343.333 142.417 341.02 140.73C339.016 139.16 336.563 138.274 334.02 138.2C332.393 138.171 330.782 138.533 329.324 139.255C327.866 139.977 326.602 141.038 325.64 142.35C323.48 145.11 322.4 149.603 322.4 155.83C322.4 162.057 323.48 166.867 325.64 170.26C327.8 173.66 330.593 175.36 334.02 175.36C336.57 175.285 339.026 174.383 341.02 172.79C343.333 171.07 345.38 168.18 347.16 164.12V164.14Z" fill="#186EB6"/>
<path d="M369.83 178.88V175.55H376.41L376.98 174.98V138.59L376.41 137.92H369.83V134.58C371.48 134.58 373.2 134.58 374.98 134.58C376.76 134.58 378.53 134.5 380.31 134.43C382.09 134.36 383.81 134.24 385.46 134.05L386.03 134.62V175L386.6 175.57H393.17V178.9L369.83 178.88ZM381.08 125.25C379.909 125.251 378.764 124.904 377.791 124.253C376.818 123.601 376.061 122.675 375.616 121.592C375.171 120.509 375.058 119.318 375.292 118.171C375.526 117.024 376.096 115.972 376.93 115.15C378.037 114.047 379.537 113.428 381.1 113.428C382.663 113.428 384.162 114.047 385.27 115.15C385.826 115.695 386.264 116.347 386.558 117.068C386.852 117.789 386.996 118.562 386.98 119.34C386.986 120.111 386.838 120.875 386.544 121.588C386.25 122.3 385.817 122.947 385.27 123.49C384.731 124.057 384.081 124.507 383.359 124.81C382.638 125.113 381.862 125.263 381.08 125.25Z" fill="#186EB6"/>
<path d="M427.089 171L429.659 173.19C428.513 174.97 427.081 176.548 425.419 177.86C423.414 179.292 420.98 179.998 418.52 179.86C416.58 179.865 414.661 179.46 412.889 178.67C411.081 177.844 409.557 176.501 408.509 174.81C407.287 172.686 406.694 170.258 406.799 167.81V138.59L406.229 137.92H398.229V134.58C400.167 134.433 402.052 133.877 403.76 132.95C405.468 132.023 406.96 130.745 408.139 129.2C410.679 126 412.14 121.283 412.52 115.05H415.859V134.58H428.719V137.92H416.419L415.849 138.59V168.78C415.724 170.468 416.214 172.145 417.229 173.5C417.67 174.012 418.219 174.418 418.836 174.69C419.454 174.962 420.125 175.091 420.799 175.07C421.989 175.09 423.156 174.74 424.139 174.07C425.291 173.223 426.289 172.185 427.089 171Z" fill="#186EB6"/>
<path d="M499.489 118.39V115.05H519.019V118.39H512.729L512.069 118.96V155.54C512.184 160.057 511.152 164.53 509.069 168.54C507.22 172.042 504.414 174.948 500.979 176.92C497.375 178.951 493.296 179.987 489.159 179.92C483.446 179.92 478.683 178.887 474.869 176.82C471.258 174.956 468.29 172.051 466.349 168.48C464.444 164.875 463.478 160.847 463.539 156.77V119L462.959 118.43H455.959V115.09H481.289V118.43H474.139L473.569 119V155.39C473.507 158.864 474.139 162.315 475.429 165.54C476.561 168.368 478.498 170.802 480.999 172.54C483.772 174.341 487.035 175.239 490.339 175.11C493.427 175.147 496.468 174.36 499.149 172.83C501.834 171.246 504.015 168.933 505.439 166.16C507.074 162.878 507.874 159.245 507.769 155.58V119L507.199 118.43L499.489 118.39Z" fill="#186EB6"/>
<path d="M572.469 175L573.039 175.57H579.709V178.9H556.289V175.57H562.859L563.439 175V147.73C563.439 144.623 562.899 142.257 561.819 140.63C560.739 139.01 558.819 138.2 556.199 138.2C553.596 138.244 551.081 139.152 549.049 140.78C546.769 142.49 544.379 145.44 541.909 149.64V175L542.479 175.57H549.049V178.9H525.689V175.57H532.289L532.869 175V138.59L532.289 137.92H525.689V134.58C527.339 134.58 529.009 134.58 530.689 134.58C532.369 134.58 534.059 134.5 535.739 134.43C537.419 134.36 539.089 134.24 540.739 134.05L541.309 134.62V143.48H541.889C543.608 140.686 545.894 138.284 548.599 136.43C551.687 134.483 555.293 133.52 558.939 133.67C561.705 133.54 564.457 134.114 566.939 135.34C568.801 136.335 570.289 137.907 571.179 139.82C572.059 141.781 572.499 143.911 572.469 146.06V175Z" fill="#186EB6"/>
<path d="M586.85 178.88V175.55H593.43L594 174.98V138.59L593.43 137.92H586.85V134.58C588.5 134.58 590.22 134.58 592 134.58C593.78 134.58 595.55 134.5 597.33 134.43C599.11 134.36 600.82 134.24 602.48 134.05L603.05 134.62V175L603.62 175.57H610.19V178.9L586.85 178.88ZM598.09 125.25C596.531 125.224 595.044 124.593 593.943 123.49C592.841 122.387 592.213 120.898 592.19 119.34C592.174 118.557 592.322 117.78 592.625 117.058C592.929 116.337 593.38 115.687 593.95 115.15C595.057 114.047 596.557 113.428 598.12 113.428C599.683 113.428 601.182 114.047 602.29 115.15C602.846 115.695 603.284 116.347 603.578 117.068C603.872 117.789 604.016 118.562 604 119.34C604.006 120.111 603.858 120.875 603.564 121.588C603.27 122.3 602.837 122.947 602.29 123.49C601.749 124.058 601.097 124.507 600.374 124.81C599.651 125.113 598.873 125.263 598.09 125.25Z" fill="#186EB6"/>
<path d="M640.68 133.63C644.622 133.584 648.509 134.551 651.97 136.44C655.361 138.315 658.176 141.081 660.11 144.44C662.113 148.245 663.159 152.48 663.159 156.78C663.159 161.08 662.113 165.315 660.11 169.12C658.186 172.473 655.367 175.226 651.97 177.07C648.501 178.889 644.642 179.84 640.725 179.84C636.807 179.84 632.949 178.889 629.48 177.07C626.082 175.226 623.263 172.473 621.34 169.12C619.336 165.315 618.29 161.08 618.29 156.78C618.29 152.48 619.336 148.245 621.34 144.44C623.273 141.081 626.088 138.315 629.48 136.44C632.911 134.56 636.767 133.592 640.68 133.63ZM641.16 176.5C642.439 176.565 643.719 176.371 644.922 175.929C646.124 175.487 647.226 174.807 648.16 173.93C650.01 171.976 651.295 169.557 651.88 166.93C652.677 163.688 653.06 160.358 653.02 157.02C653.089 153.436 652.51 149.868 651.31 146.49C650.372 143.811 648.785 141.406 646.69 139.49C644.901 137.869 642.573 136.971 640.16 136.97C638.888 136.914 637.619 137.112 636.425 137.553C635.232 137.995 634.138 138.67 633.21 139.54C631.311 141.466 630.002 143.895 629.44 146.54C628.68 149.771 628.314 153.081 628.35 156.4C628.28 159.984 628.859 163.552 630.06 166.93C631.004 169.606 632.59 172.01 634.68 173.93C636.441 175.568 638.754 176.486 641.16 176.5Z" fill="#186EB6"/>
<path d="M718.03 175L718.61 175.57H725.29V178.9H701.84V175.57H708.41L708.98 175V147.73C708.98 144.623 708.44 142.257 707.36 140.63C706.28 139.003 704.406 138.193 701.74 138.2C699.139 138.244 696.627 139.152 694.6 140.78C692.313 142.493 689.93 145.447 687.45 149.64V175L688.03 175.57H694.6V178.9H671.29V175.57H677.86L678.43 175V138.59L677.86 137.92H671.29V134.58C672.94 134.58 674.61 134.58 676.29 134.58C677.97 134.58 679.66 134.5 681.29 134.43C682.92 134.36 684.64 134.24 686.29 134.05L686.86 134.62V143.48H687.43C689.154 140.688 691.443 138.286 694.15 136.43C697.237 134.483 700.843 133.52 704.49 133.67C707.255 133.54 710.008 134.114 712.49 135.34C714.351 136.335 715.839 137.907 716.73 139.82C717.605 141.782 718.042 143.912 718.01 146.06L718.03 175Z" fill="#186EB6"/>
<path d="M224.29 200H201.87L194 207.91H216.42L224.29 200Z" fill="#B21825"/>
<path d="M270.96 200H248.54L240.67 207.91H263.09L270.96 200Z" fill="#186EB6"/>
<path d="M316.96 200H294.54L286.67 207.91H309.09L316.96 200Z" fill="#B21825"/>
<path d="M362.96 200H340.54L332.67 207.91H355.09L362.96 200Z" fill="#186EB6"/>
<path d="M408.96 200H386.54L378.67 207.91H401.09L408.96 200Z" fill="#B21825"/>
<path d="M454.96 200H432.54L424.67 207.91H447.09L454.96 200Z" fill="#186EB6"/>
<path d="M500.96 200H478.54L470.67 207.91H493.09L500.96 200Z" fill="#B21825"/>
<path d="M546.96 200H524.54L516.67 207.91H539.09L546.96 200Z" fill="#186EB6"/>
<path d="M592.96 200H570.54L562.67 207.91H585.09L592.96 200Z" fill="#B21825"/>
<path d="M638.96 200H616.54L608.67 207.91H631.09L638.96 200Z" fill="#186EB6"/>
<path d="M684.96 200H662.54L654.67 207.91H677.08L684.96 200Z" fill="#B21825"/>
<path d="M110.49 93.93V94.25H93.5801C93.1201 92.51 92.5734 90.51 91.9401 88.25C91.3068 85.99 90.6401 83.5933 89.9401 81.06H68.4201C67.0868 86.14 65.8601 90.53 64.7401 94.23H47.8401V94L68.2201 25.35H90.1001L110.49 93.93ZM79.0001 37.76C78.3334 41.46 77.3734 45.96 76.1201 51.26C74.8668 56.56 73.5334 61.9666 72.1201 67.48H86.3201C84.8601 61.96 83.5001 56.5533 82.2401 51.26C80.9801 45.9666 80.0201 41.4666 79.3601 37.76H79.0001Z" fill="#B21825"/>
<path d="M137 94.25H120.59V25.35H137V94.25Z" fill="#B21825"/>
<path d="M168.19 43.88C174.75 43.88 180.03 44.56 184.06 45.88C185.963 46.4811 187.726 47.4559 189.248 48.7471C190.769 50.0384 192.018 51.6202 192.92 53.4C194.793 57.06 195.73 62.3333 195.73 69.22V94.22H180.89L180.38 89.51H180.07C178.494 91.4119 176.415 92.8326 174.07 93.61C170.636 94.7369 167.032 95.2547 163.42 95.14C151.607 95.14 145.703 89.6133 145.71 78.56C145.71 73.8467 147.263 70.1433 150.37 67.45C153.477 64.7567 158.373 63.4233 165.06 63.45H180.21C179.73 60.58 178.51 58.65 176.53 57.66C174.55 56.67 171.17 56.18 166.39 56.18C163.428 56.1772 160.469 56.3978 157.54 56.84C154.63 57.29 152.09 57.78 149.91 58.33L149.6 58.12L149.7 46.25C151.417 45.7622 153.16 45.3682 154.92 45.07C157.04 44.7 159.28 44.4 161.63 44.2C163.98 44 166.15 43.88 168.19 43.88ZM167.58 83.09C171.807 83.09 174.98 82.5633 177.1 81.51C178.082 81.077 178.915 80.3662 179.498 79.4654C180.081 78.5645 180.387 77.5129 180.38 76.44V73.88H168.81C165.81 73.88 163.71 74.31 162.51 75.16C161.946 75.5337 161.486 76.0443 161.173 76.6442C160.86 77.2441 160.704 77.9135 160.72 78.59C160.649 79.2937 160.786 80.0026 161.113 80.6297C161.44 81.2568 161.943 81.7748 162.56 82.12C164.132 82.8397 165.853 83.1723 167.58 83.09Z" fill="#B21825"/>
<path d="M257.06 67.12C257.06 76.34 255.183 83.32 251.43 88.06C247.677 92.8 241.293 95.17 232.28 95.17C227.227 95.17 222.533 94.9833 218.2 94.61C213.87 94.24 210.06 93.77 206.79 93.23L206.48 93.02V25.35H222.86V52.07H223.27C224.196 49.6518 225.848 47.58 228 46.14C230.22 44.6266 233.377 43.8733 237.47 43.88C250.53 43.88 257.06 51.6266 257.06 67.12ZM222.86 68.86V80.86C224.759 81.151 226.679 81.2881 228.6 81.27C231.136 81.3534 233.67 81.0602 236.12 80.4C236.979 80.1575 237.773 79.7265 238.444 79.1383C239.115 78.5501 239.647 77.8196 240 77C240.862 74.6426 241.246 72.1373 241.13 69.63C241.13 65.63 240.54 62.63 239.39 60.72C238.24 58.81 235.84 57.86 232.22 57.86C230.992 57.8121 229.766 58.0084 228.614 58.4375C227.463 58.8666 226.407 59.5201 225.51 60.36C223.743 62.0066 222.86 64.84 222.86 68.86Z" fill="#B21825"/>
<path d="M284.7 43.88C291.247 43.88 296.537 44.5467 300.57 45.88C302.471 46.4823 304.233 47.4576 305.752 48.7488C307.272 50.04 308.519 51.6212 309.42 53.4C311.3 57.06 312.24 62.3333 312.24 69.22V94.22H297.39L296.88 89.51H296.57C294.996 91.4144 292.916 92.8355 290.57 93.61C287.14 94.7371 283.539 95.2549 279.93 95.14C268.117 95.14 262.21 89.6133 262.21 78.56C262.21 73.8467 263.763 70.1433 266.87 67.45C269.977 64.7567 274.873 63.4233 281.56 63.45H296.72C296.24 60.5833 295.01 58.6533 293.03 57.66C291.05 56.6667 287.673 56.1733 282.9 56.18C279.934 56.177 276.973 56.3976 274.04 56.84C271.14 57.29 268.6 57.78 266.41 58.33L266.1 58.12L266.21 46.25C267.927 45.7599 269.669 45.366 271.43 45.07C273.54 44.7 275.78 44.4 278.13 44.2C280.48 44 282.65 43.88 284.7 43.88ZM284.08 83.09C288.31 83.09 291.49 82.56 293.6 81.51C294.582 81.077 295.415 80.3662 295.998 79.4654C296.581 78.5645 296.887 77.5129 296.88 76.44V73.88H285.31C282.31 73.88 280.213 74.3067 279.02 75.16C278.454 75.5325 277.992 76.0426 277.677 76.6426C277.362 77.2425 277.205 77.9126 277.22 78.59C277.152 79.2946 277.29 80.0037 277.619 80.6307C277.948 81.2577 278.452 81.7752 279.07 82.12C280.639 82.8389 282.356 83.1715 284.08 83.09Z" fill="#B21825"/>
<path d="M384.92 43.88C389.967 43.88 393.967 45.5467 396.92 48.88C399.873 52.2134 401.36 58.0134 401.38 66.28V94.28H385L384.89 68.38C384.89 65.04 384.4 62.61 383.41 61.11C382.42 59.61 380.49 58.86 377.62 58.86C374.75 58.86 372.83 59.61 371.84 61.11C370.85 62.61 370.36 65.04 370.36 68.38V94.28H354L353.89 68.38C353.89 65.04 353.4 62.61 352.41 61.11C351.42 59.61 349.49 58.86 346.62 58.86C343.75 58.86 341.83 59.61 340.84 61.11C339.85 62.61 339.36 65.04 339.36 68.38V94.28H323V44.39H338.56L339.38 53.51H339.68C340.43 50.7122 342.064 48.2321 344.34 46.44C346.56 44.74 349.717 43.8867 353.81 43.88C357.903 43.8734 361.13 44.7267 363.49 46.44C365.825 48.1498 367.434 50.6723 368 53.51H368.31C369.088 50.5762 370.931 48.0377 373.48 46.39C376.06 44.7234 379.873 43.8867 384.92 43.88Z" fill="#B21825"/>
<path d="M431.61 43.88C438.163 43.88 443.45 44.5467 447.47 45.88C449.373 46.4811 451.137 47.4559 452.658 48.7471C454.179 50.0384 455.428 51.6202 456.33 53.4C458.21 57.06 459.15 62.3333 459.15 69.22V94.22H444.3L443.79 89.51H443.48C441.906 91.4144 439.826 92.8355 437.48 93.61C434.046 94.7369 430.442 95.2547 426.83 95.14C415.03 95.14 409.127 89.6133 409.12 78.56C409.12 73.8467 410.673 70.1433 413.78 67.45C416.887 64.7567 421.783 63.4233 428.47 63.45H443.62C443.153 60.5833 441.927 58.6533 439.94 57.66C437.953 56.6667 434.573 56.1733 429.8 56.18C426.838 56.1772 423.879 56.3978 420.95 56.84C418.05 57.29 415.5 57.78 413.32 58.33L413.01 58.12L413.12 46.25C414.837 45.7599 416.58 45.366 418.34 45.07C420.45 44.7 422.69 44.4 425.04 44.2C427.39 44 429.56 43.88 431.61 43.88ZM431 83.09C435.23 83.09 438.41 82.56 440.52 81.51C441.502 81.077 442.335 80.3662 442.918 79.4654C443.501 78.5645 443.807 77.5129 443.8 76.44V73.88H432.22C429.22 73.88 427.12 74.3067 425.92 75.16C425.356 75.5337 424.896 76.0443 424.583 76.6442C424.27 77.2441 424.114 77.9135 424.13 78.59C424.064 79.2966 424.205 80.0073 424.538 80.6344C424.87 81.2616 425.378 81.778 426 82.12C427.565 82.8381 429.28 83.1707 431 83.09Z" fill="#B21825"/>
<path d="M517 94.25H500.61V29.45H529.48C535.96 29.45 541.147 30.2333 545.04 31.7999C548.724 33.1795 551.731 35.9319 553.43 39.4799C555.143 43.0333 556 47.8466 556 53.9199C556 59.6466 555.147 64.3133 553.44 67.9199C551.709 71.5131 548.699 74.3305 545 75.82C541.107 77.5333 535.92 78.3866 529.44 78.3799H517V94.25ZM526.82 42.86H517V65H526.82C531.673 65 534.917 64.1833 536.55 62.5499C538.183 60.9166 539.003 58.05 539.01 53.95C539.01 50.05 538.19 47.24 536.55 45.5C534.91 43.76 531.66 42.86 526.81 42.86H526.82Z" fill="#B21825"/>
<path d="M561.11 69.68C561.11 60.54 563.057 53.9533 566.95 49.92C570.843 45.8866 577.427 43.8866 586.7 43.92C592.907 43.92 597.89 44.8066 601.65 46.58C605.305 48.2572 608.206 51.2333 609.79 54.93C611.463 58.7233 612.3 63.6533 612.3 69.72C612.3 75.7866 611.463 80.6666 609.79 84.36C608.201 88.0268 605.297 90.9663 601.65 92.6C597.883 94.3133 592.9 95.17 586.7 95.17C577.42 95.17 570.837 93.17 566.95 89.17C563.063 85.17 561.117 78.6733 561.11 69.68ZM586.7 81.15C590.66 81.15 593.327 80.28 594.7 78.54C596.073 76.8 596.773 73.7433 596.8 69.37C596.8 65.21 596.1 62.21 594.7 60.37C593.3 58.53 590.633 57.6233 586.7 57.65C582.88 57.65 580.237 58.5566 578.77 60.37C577.303 62.1833 576.57 65.1833 576.57 69.37C576.57 73.7366 577.303 76.7933 578.77 78.54C580.237 80.2866 582.88 81.1566 586.7 81.15Z" fill="#B21825"/>
<path d="M618.75 80.12C624.521 81.6874 630.481 82.4479 636.46 82.38C638.818 82.4148 641.175 82.3112 643.52 82.07C644.649 82.0188 645.745 81.6741 646.7 81.07C646.979 80.8202 647.197 80.5104 647.339 80.1641C647.481 79.8177 647.543 79.4436 647.52 79.07C647.564 78.6322 647.463 78.1921 647.231 77.8179C647 77.4437 646.651 77.1562 646.24 77C645.38 76.7333 643.69 76.3567 641.17 75.87L633.08 74.34C627.887 73.3067 624.15 71.6867 621.87 69.48C619.59 67.2733 618.447 63.94 618.44 59.48C618.44 53.48 620.23 49.3867 623.81 47.2C627.39 45.0133 633.12 43.9067 641 43.88C645.16 43.8462 649.316 44.1035 653.44 44.65C656.486 45.0388 659.495 45.6709 662.44 46.54L662.24 58.93L661.93 59.24C656.066 57.4134 649.952 56.5158 643.81 56.58C641.553 56.4714 639.293 56.6937 637.1 57.24C636.535 57.3943 636.039 57.7373 635.695 58.212C635.351 58.6867 635.18 59.2647 635.21 59.85C635.181 60.4481 635.381 61.0347 635.77 61.49C636.534 62.0849 637.429 62.4894 638.38 62.67C639.75 63.04 641.9 63.51 644.83 64.05L652.3 65.48C656.467 66.3667 659.54 67.8367 661.52 69.89C663.52 71.89 664.52 75.18 664.52 79.61C664.52 83.4967 663.803 86.5867 662.37 88.88C660.937 91.1733 658.48 92.7933 655 93.74C650.417 94.8319 645.709 95.3127 641 95.17C636.844 95.189 632.691 94.9687 628.56 94.51C624.77 94.06 621.37 93.51 618.37 92.92V80.33L618.75 80.12Z" fill="#B21825"/>
<path d="M674.13 79.3001V57.8101H668V44.5001H675.68L678.75 32.3101H690.52V44.5001H701.68V57.8101H690.51V75.7201C690.393 77.0742 690.642 78.4349 691.23 79.6601C691.71 80.3801 692.8 80.7401 694.51 80.7401C695.6 80.7401 696.76 80.7401 697.99 80.5801C699.22 80.4201 700.44 80.3601 701.67 80.2301L701.98 80.4301V93.7401C697.733 94.8111 693.358 95.2923 688.98 95.1701C683.58 95.1701 679.757 93.9434 677.51 91.4901C675.263 89.0367 674.137 84.9734 674.13 79.3001Z" fill="#B21825"/>
<path d="M730.13 43.88C736.677 43.88 741.967 44.5467 746 45.88C747.903 46.4811 749.667 47.4559 751.188 48.7471C752.709 50.0384 753.958 51.6202 754.86 53.4C756.727 57.06 757.663 62.3333 757.67 69.22V94.22H742.83L742.32 89.51H742C740.424 91.4119 738.345 92.8326 736 93.61C732.566 94.7369 728.962 95.2547 725.35 95.14C713.537 95.14 707.633 89.6133 707.64 78.56C707.64 73.8467 709.193 70.1433 712.3 67.45C715.407 64.7567 720.303 63.4233 726.99 63.45H742.14C741.66 60.5833 740.433 58.6533 738.46 57.66C736.46 56.66 733.1 56.18 728.32 56.18C725.354 56.177 722.393 56.3976 719.46 56.84C716.56 57.29 714.02 57.78 711.84 58.33L711.53 58.12L711.63 46.25C713.347 45.7622 715.09 45.3682 716.85 45.07C718.97 44.7 721.2 44.4 723.56 44.2C725.92 44 728.08 43.88 730.13 43.88ZM729.52 83.09C733.753 83.09 736.927 82.5633 739.04 81.51C740.02 81.0749 740.852 80.3636 741.435 79.4633C742.017 78.5629 742.325 77.5124 742.32 76.44V73.88H730.75C727.743 73.88 725.643 74.3067 724.45 75.16C723.886 75.5337 723.426 76.0443 723.113 76.6442C722.8 77.2441 722.644 77.9135 722.66 78.59C722.59 79.2937 722.726 80.0026 723.053 80.6297C723.38 81.2568 723.883 81.7748 724.5 82.12C726.072 82.8397 727.793 83.1723 729.52 83.09Z" fill="#B21825"/>
<path d="M784.8 94.25H768.42V25.35H784.8V94.25Z" fill="#B21825"/>
</svg>
