<svg width="186" height="41" viewBox="0 0 186 41" fill="none" xmlns="http://www.w3.org/2000/svg">
<path fill-rule="evenodd" clip-rule="evenodd" d="M23.7135 24.7147C24.8481 24.6056 28.4471 24.5084 31.1421 27.1977C33.836 29.8862 33.7388 33.4784 33.6295 34.6112C33.6087 34.8245 33.4402 34.9926 33.2265 35.0136C32.0922 35.122 28.4926 35.2194 25.7979 32.5307C23.1035 29.8411 23.201 26.2494 23.3105 25.1171C23.3313 24.9038 23.4998 24.7358 23.7135 24.7147ZM8.12011 27.2098C10.835 24.501 14.4127 24.5512 15.5394 24.6452C15.7517 24.6631 15.917 24.8281 15.9352 25.04C16.0293 26.1645 16.0795 29.7351 13.3649 32.4444C10.6511 35.1527 7.07286 35.1028 5.94555 35.009C5.73326 34.9911 5.56799 34.8261 5.54978 34.6142C5.45651 33.4899 5.406 29.9189 8.12011 27.2098ZM25.8105 9.55511C28.5243 6.84678 32.1025 6.89674 33.2298 6.99048C33.4421 7.0084 33.6074 7.17342 33.6256 7.38527C33.7188 8.50958 33.7694 12.0806 31.0552 14.7897C28.3404 17.4985 24.7627 17.4483 23.6359 17.3543C23.4236 17.3364 23.2583 17.1714 23.2401 16.9596C23.1461 15.835 23.0958 12.2645 25.8105 9.55511ZM5.94889 6.9859C7.08319 6.87756 10.6828 6.78008 13.3774 9.46886C16.0718 12.1584 15.9744 15.7502 15.8649 16.8824C15.8441 17.0957 15.6756 17.2638 15.4618 17.2848C14.3272 17.3939 10.7282 17.4912 8.03329 14.8018C5.33937 12.1134 5.4366 8.52108 5.54584 7.38833C5.56667 7.175 5.73515 7.00696 5.94889 6.9859Z" fill="white"/>
<path fill-rule="evenodd" clip-rule="evenodd" d="M19.2522 26.5931C19.4119 26.46 19.6433 26.4625 19.806 26.5987C20.6679 27.3237 23.2323 29.7956 23.272 33.5595C23.3115 37.3221 20.7983 39.7414 19.9513 40.4488C19.7916 40.5818 19.5602 40.5793 19.3975 40.4431C18.5364 39.7179 15.9714 37.2457 15.9315 33.4824C15.8923 29.7187 18.4054 27.2999 19.2522 26.5931ZM32.0942 17.3525C35.8645 17.3919 38.3419 19.9514 39.0687 20.8118C39.2054 20.974 39.2078 21.2049 39.0747 21.3644C38.3658 22.2088 35.9419 24.7174 32.1709 24.6783C28.3995 24.6384 25.9226 22.0792 25.1964 21.219C25.0597 21.0568 25.0574 20.8259 25.1905 20.6663C25.899 19.8212 28.3227 17.3132 32.0942 17.3525ZM7.00201 17.3218C10.7734 17.3617 13.2503 19.9209 13.9765 20.7811C14.1132 20.9433 14.1155 21.1742 13.9824 21.3338C13.2739 22.1789 10.8502 24.6869 7.07865 24.6476C3.30838 24.6082 0.830955 22.0487 0.10417 21.1883C-0.032524 21.0261 -0.03488 20.7952 0.0982329 20.6357C0.807077 19.7913 3.231 17.2827 7.00201 17.3218ZM19.2216 1.55129C19.3813 1.41824 19.6127 1.42074 19.7754 1.55695C20.6365 2.28222 23.2015 4.75437 23.2414 8.51773C23.2806 12.2814 20.7675 14.7001 19.9207 15.407C19.761 15.5401 19.5296 15.5376 19.3669 15.4014C18.5051 14.6764 15.9406 12.2045 15.9009 8.44058C15.8614 4.67797 18.3746 2.25871 19.2216 1.55129Z" fill="white"/>
<path d="M62.4495 17.4548C65.2993 17.4548 68.4656 16.3488 68.4656 13.0083C68.4656 10.9317 67.0634 9.37429 64.96 9.10344V9.0583C66.611 8.53916 67.7193 7.32032 67.7193 5.5372C67.7193 2.06124 64.666 1.47439 61.8615 1.47439H55.8907V17.4548H62.4495ZM61.9746 7.86203H59.4189V4.45378H61.8163C62.9245 4.45378 64.191 4.79235 64.191 6.12405C64.191 7.4106 63.0602 7.86203 61.9746 7.86203ZM62.5852 14.4754H59.4189V10.8414H62.0877C63.2411 10.8414 64.9374 11.0897 64.9374 12.602C64.9374 14.0014 63.6935 14.4754 62.5852 14.4754ZM75.6326 17.7256C77.3967 17.7256 79.1834 16.9356 80.269 15.5588L77.8943 13.8208C77.3289 14.5882 76.5825 15.1525 75.4743 15.1525C74.1625 15.1525 73.19 14.3174 72.9186 13.0308H80.7892V11.97C80.7892 8.47145 78.7989 6.21433 75.6326 6.21433C72.2401 6.21433 69.5261 8.47145 69.5261 11.97C69.5261 15.4685 72.2401 17.7256 75.6326 17.7256ZM77.3967 10.7286H72.9186C73.0091 9.66772 73.8233 8.65202 75.316 8.65202C76.5373 8.65202 77.4193 9.60001 77.3967 10.7286ZM85.966 17.7256C87.3456 17.7256 88.7026 17.2516 89.4489 16.0779H89.4942V17.4548H92.6153V11.8797C92.6153 8.22316 91.5523 6.21433 87.5944 6.21433C85.8076 6.21433 83.9983 6.80118 82.7544 7.97488L84.5637 9.82572C85.2875 9.01315 86.2147 8.51659 87.323 8.51659C88.499 8.51659 89.4942 9.28401 89.4942 10.4803C86.6671 10.4803 82.0533 10.548 82.0533 14.3399C82.0533 16.5519 83.9078 17.7256 85.966 17.7256ZM86.9159 15.4234C86.1695 15.4234 85.3101 15.0397 85.3101 14.2271C85.3101 12.7374 87.617 12.6471 88.6573 12.6471H89.4942V13.3694C89.4942 14.7237 88.2502 15.4234 86.9159 15.4234ZM98.561 17.7256C100.212 17.7256 101.32 16.8228 101.773 15.9651H101.818V17.4548H105.075V6.48519H101.682V11.9474C101.682 13.3694 101.411 14.7462 99.6466 14.7462C97.9563 14.7462 97.8853 13.2153 97.8826 11.9695L97.8825 6.48519H94.49V12.5343C94.49 15.4685 95.1232 17.7256 98.561 17.7256ZM112.332 17.7256C113.124 17.7256 113.96 17.6579 114.707 17.3871V14.5657C114.413 14.8365 113.689 14.8817 113.327 14.8817C111.882 14.8817 111.726 14.0528 111.722 12.9097L111.721 9.19372H114.707V6.48519H111.721V3.23494H108.329V6.48519H106.158V9.19372H108.329V14.4077C108.329 16.8002 110.07 17.7256 112.332 17.7256ZM117.916 4.99549C119.002 4.99549 119.884 4.11521 119.884 3.0318C119.884 1.94838 119.002 1.06811 117.916 1.06811C116.83 1.06811 115.948 1.94838 115.948 3.0318C115.948 4.11521 116.83 4.99549 117.916 4.99549ZM119.612 17.4548V6.48519H116.22V17.4548H119.612ZM126.372 17.4548V9.19372H128.883V6.48519H126.372V4.74721C126.372 3.30265 126.915 2.96408 128 2.96408C128.408 2.96408 128.724 3.05437 129.109 3.1898L129.267 0.323258C128.634 0.16526 127.955 0.120117 127.277 0.120117C123.627 0.120117 122.992 2.1111 122.98 4.4724L122.98 6.48519H120.74V9.19372H122.98V17.4548H126.372ZM133.991 17.7256C135.642 17.7256 136.751 16.8228 137.203 15.9651H137.248V17.4548H140.505V6.48519H137.113V11.9474C137.113 13.3694 136.841 14.7462 135.077 14.7462C133.387 14.7462 133.316 13.2153 133.313 11.9695L133.313 6.48519H129.92V12.5343C129.92 15.4685 130.554 17.7256 133.991 17.7256ZM146.089 17.4548V0.390971H142.696V17.4548H146.089ZM63.6708 40.4322C65.8647 40.4322 68.1264 39.5519 69.4607 37.656L66.5206 35.4666C65.7968 36.55 64.6434 37.182 63.2185 37.182C60.6628 37.182 58.6952 35.0151 58.6952 32.0357C58.6952 29.0563 60.6628 26.8895 63.3316 26.8895C64.6434 26.8895 65.6611 27.3635 66.3622 28.1986L69.0763 25.9867C67.7192 24.2487 65.4576 23.6393 63.6708 23.6393C58.6725 23.6393 55.0312 26.9121 55.0312 32.0357C55.0312 37.1594 58.6725 40.4322 63.6708 40.4322ZM74.0947 40.0259V35.444C74.0947 33.2546 74.4113 31.7649 76.9896 31.7649C77.4872 31.7649 77.9621 31.8552 78.4371 31.9906V28.8983C78.1204 28.8081 77.6907 28.7855 77.3062 28.7855C75.8135 28.7855 74.8636 29.4852 74.1399 30.8169H74.0947V29.0563H70.7022V40.0259H74.0947ZM85.016 40.2968C86.7802 40.2968 88.5669 39.5068 89.6525 38.13L87.2777 36.392C86.7123 37.1594 85.966 37.7237 84.8577 37.7237C83.546 37.7237 82.5734 36.8885 82.302 35.602H90.1727V34.5411C90.1727 31.0426 88.1824 28.7855 85.016 28.7855C81.6235 28.7855 78.9095 31.0426 78.9095 34.5411C78.9095 38.0397 81.6235 40.2968 85.016 40.2968ZM86.7802 33.2997H82.302C82.3925 32.2389 83.2067 31.2232 84.6994 31.2232C85.9207 31.2232 86.8028 32.1712 86.7802 33.2997ZM96.9778 40.2968C98.5157 40.2968 99.8275 39.3714 100.348 38.5814H100.393V40.0259H103.514V22.9621H100.122V30.23H100.076C99.3073 29.1692 97.9956 28.7855 96.5933 28.7855C93.4722 28.7855 91.5724 31.5843 91.5724 34.6314C91.5724 37.9494 93.721 40.2968 96.9778 40.2968ZM97.6789 37.3174C95.9827 37.3174 94.9649 36.1888 94.9649 34.5411C94.9649 32.8934 95.9827 31.7649 97.6789 31.7649C99.3752 31.7649 100.393 32.8934 100.393 34.5411C100.393 36.1888 99.3752 37.3174 97.6789 37.3174ZM107.718 27.5667C108.804 27.5667 109.686 26.6864 109.686 25.603C109.686 24.5195 108.804 23.6393 107.718 23.6393C106.633 23.6393 105.751 24.5195 105.751 25.603C105.751 26.6864 106.633 27.5667 107.718 27.5667ZM109.415 40.0259V29.0563H106.022V40.0259H109.415ZM116.717 40.2968C117.509 40.2968 118.346 40.2291 119.092 39.9582V37.1368C118.798 37.4077 118.074 37.4528 117.712 37.4528C116.267 37.4528 116.112 36.6239 116.107 35.4808L116.107 31.7649H119.092V29.0563H116.107V25.8061H112.714V29.0563H110.543V31.7649H112.714V36.9788C112.714 39.3714 114.456 40.2968 116.717 40.2968ZM134.195 40.4322C138.628 40.4322 140.935 37.6334 140.935 33.864V24.0455H137.407V33.7286C137.407 35.6923 136.05 37.182 134.195 37.182C132.318 37.182 130.961 35.6923 130.961 33.7286V24.0455H127.433V33.864C127.433 37.6334 129.739 40.4322 134.195 40.4322ZM146.903 40.0259V34.5637C146.903 33.1417 147.174 31.7649 148.939 31.7649C150.629 31.7649 150.7 33.2958 150.703 34.5416L150.703 40.0259H154.095V33.9769C154.095 31.0426 153.462 28.7855 150.024 28.7855C148.373 28.7855 147.265 29.6883 146.813 30.546H146.767V29.0563H143.511V40.0259H146.903ZM157.983 27.5667C159.068 27.5667 159.95 26.6864 159.95 25.603C159.95 24.5195 159.068 23.6393 157.983 23.6393C156.897 23.6393 156.015 24.5195 156.015 25.603C156.015 26.6864 156.897 27.5667 157.983 27.5667ZM159.679 40.0259V29.0563H156.286V40.0259H159.679ZM167.57 40.2968C170.962 40.2968 173.676 38.0397 173.676 34.5411C173.676 31.0426 170.962 28.7855 167.57 28.7855C164.177 28.7855 161.463 31.0426 161.463 34.5411C161.463 38.0397 164.177 40.2968 167.57 40.2968ZM167.57 37.3174C165.873 37.3174 164.856 36.1888 164.856 34.5411C164.856 32.8934 165.873 31.7649 167.57 31.7649C169.266 31.7649 170.284 32.8934 170.284 34.5411C170.284 36.1888 169.266 37.3174 167.57 37.3174ZM178.808 40.0259V34.5637C178.808 33.1417 179.079 31.7649 180.843 31.7649C182.534 31.7649 182.605 33.2958 182.607 34.5416L182.607 40.0259H186V33.9769C186 31.0426 185.367 28.7855 181.929 28.7855C180.278 28.7855 179.17 29.6883 178.717 30.546H178.672V29.0563H175.415V40.0259H178.808Z" fill="white"/>
</svg>
