<svg width="20" height="20" viewBox="0 0 20 20" fill="none" xmlns="http://www.w3.org/2000/svg">
<g opacity="1">
<path fill-rule="evenodd" clip-rule="evenodd" d="M5.6401 8.28894C5.27125 8.16044 5.07641 7.75725 5.20492 7.3884C5.6144 6.19618 6.47524 5.21218 7.60244 4.64785C7.68334 4.60677 7.72001 4.51112 7.68731 4.42649L7.24175 3.27581C7.10153 2.91041 7.28407 2.50052 7.64948 2.36029C8.01488 2.22007 8.42477 2.40261 8.56499 2.76802L9.04875 4.03256C9.07833 4.10956 9.1574 4.15571 9.23899 4.14359C9.49169 4.10652 9.7467 4.08737 10.0021 4.08631C10.2556 4.08704 10.5088 4.10619 10.7596 4.14359C10.8409 4.15553 10.9198 4.1098 10.9498 4.03326L11.4449 2.76872C11.4486 2.75844 11.4526 2.74824 11.4568 2.73813C11.607 2.37759 12.0211 2.20709 12.3816 2.35733C12.7422 2.50756 12.9127 2.92163 12.7624 3.28218L12.3148 4.43215C12.2813 4.5166 12.3178 4.61266 12.3989 4.65351C13.5208 5.22081 14.3787 6.20124 14.7922 7.3884C14.8182 7.46291 14.8315 7.54123 14.8316 7.62014C14.8321 8.01073 14.5159 8.3278 14.1253 8.32831H5.87255C5.79341 8.32829 5.71483 8.31498 5.6401 8.28894ZM12.1217 6.38341C12.1217 6.09047 11.8842 5.85299 11.5913 5.85299L11.5913 5.85086L11.5891 5.85087C11.2962 5.85204 11.0597 6.09047 11.0608 6.38341C11.0608 6.67636 11.2983 6.91384 11.5913 6.91384C11.8842 6.91384 12.1217 6.67636 12.1217 6.38341ZM8.93913 6.38341C8.93913 6.09047 8.70165 5.85299 8.4087 5.85299L8.4087 5.85086L8.40657 5.85087C8.11363 5.85204 7.8771 6.09047 7.87827 6.38341C7.87827 6.67636 8.11575 6.91384 8.4087 6.91384C8.70165 6.91384 8.93913 6.67636 8.93913 6.38341ZM13.9167 17.6971H6.0833C5.6071 17.6932 5.22378 17.3048 5.22613 16.8286V9.74067C5.22613 9.44772 5.46361 9.21024 5.75656 9.21024H14.2434C14.5363 9.21024 14.7738 9.44772 14.7738 9.74067V16.8286C14.7762 17.3048 14.3929 17.6932 13.9167 17.6971ZM17.0723 15.0449V10.0943C17.0723 9.70369 16.7557 9.38705 16.3651 9.38705C15.9745 9.38705 15.6579 9.70369 15.6579 10.0943V15.0449C15.6579 15.4355 15.9745 15.7522 16.3651 15.7522C16.7557 15.7522 17.0723 15.4355 17.0723 15.0449ZM2.92761 10.0943C2.92761 9.70369 3.24425 9.38705 3.63485 9.38705C4.02545 9.38705 4.34209 9.70369 4.34209 10.0943V15.0449C4.34209 15.4355 4.02545 15.7522 3.63485 15.7522C3.24425 15.7522 2.92761 15.4355 2.92761 15.0449V10.0943Z" fill="white"/>
</g>
</svg>
