<svg width="21" height="20" viewBox="0 0 21 20" fill="none" xmlns="http://www.w3.org/2000/svg">
<g opacity="1">
<path fill-rule="evenodd" clip-rule="evenodd" d="M13.8385 2.25535C13.7955 3.0581 13.4926 3.82512 12.9756 4.44071C12.4609 5.05921 11.7302 5.45871 10.9317 5.55814C10.917 5.55963 10.9022 5.56019 10.8874 5.55981C10.6921 5.55492 10.5378 5.39269 10.5427 5.19745C10.5966 4.41237 10.9073 3.66681 11.4268 3.07574M13.8385 2.25535C13.8463 2.06021 13.6945 1.89562 13.4994 1.88774L13.8385 2.25535ZM13.4994 1.88774C13.4708 1.88658 13.4422 1.88891 13.4141 1.89465L13.4994 1.88774ZM14.8003 10.8907V10.8907C14.7979 12.1477 15.4961 13.3013 16.6108 13.8823C16.7642 13.9661 16.8334 14.1495 16.7735 14.3137C16.5293 14.9806 16.2038 15.6148 15.8046 16.2021C15.1539 17.1356 14.4396 18.0692 13.407 18.0904C12.9021 18.1008 12.5646 17.9555 12.2134 17.8044C11.8464 17.6465 11.4645 17.4822 10.861 17.4822C10.2362 17.4822 9.8509 17.6484 9.47579 17.8102C9.14178 17.9543 8.81585 18.0949 8.33615 18.1116C7.31773 18.147 6.54684 17.0932 5.90325 16.1596C4.61608 14.2218 3.60474 10.7563 4.96263 8.39416C5.60649 7.22584 6.81894 6.48386 8.15227 6.44219C8.70735 6.44219 9.26243 6.66446 9.75022 6.85979C10.1325 7.01288 10.4735 7.14942 10.7408 7.14942C10.9782 7.14942 11.2965 7.0244 11.6674 6.8787C12.2466 6.65117 12.9542 6.3732 13.6829 6.44219C14.6557 6.48808 15.5699 6.92096 16.2219 7.64447C16.2255 7.64863 16.2289 7.65288 16.2323 7.6572C16.3529 7.81086 16.326 8.03315 16.1724 8.15368C15.308 8.79777 14.7992 9.81274 14.8003 10.8907Z" fill="white"/>
</g>
</svg>
