<svg xmlns="http://www.w3.org/2000/svg" width="20" height="20" viewBox="0 0 20 20">
  <g fill="none" fill-rule="evenodd" stroke="#000" stroke-linecap="round" stroke-linejoin="round" stroke-width="1.5" transform="translate(.455 3.41)">
    <path d="M1.36363636,13.6363636 C0.610527273,13.6363636 1.32338585e-12,13.0258364 1.32338585e-12,12.2727273 L1.32338585e-12,1.36363636 C1.32338585e-12,0.610527273 0.610527273,4.97379915e-14 1.36363636,4.97379915e-14 L17.7272727,4.97379915e-14 C18.4803818,4.97379915e-14 19.0909091,0.610527273 19.0909091,1.36363636 L19.0909091,12.2727273 C19.0909091,13.0258364 18.4803818,13.6363636 17.7272727,13.6363636 L1.36363636,13.6363636 Z"/>
    <path d="M18.7827273,0.5 L11.3790909,6.19454545 L11.379091,6.19454538 C10.298091,7.02613174 8.79281828,7.02613174 7.71181828,6.19454553 L0.308181914,0.5"/>
  </g>
</svg>
