<svg width="16" height="16" viewBox="0 0 16 16" fill="none" xmlns="http://www.w3.org/2000/svg">
<path opacity="1" fill-rule="evenodd" clip-rule="evenodd" d="M12.3097 9.6C12.2906 9.7578 12.1561 9.87615 11.9972 9.875H10.7159C10.5434 9.875 10.4034 10.0149 10.4034 10.1875V15.1875C10.4034 15.3601 10.5434 15.5 10.7159 15.5H14.4659C14.8111 15.5 15.0909 15.2202 15.0909 14.875V1.125C15.0909 0.779822 14.8111 0.5 14.4659 0.5H0.715942C0.370764 0.5 0.0909424 0.779822 0.0909424 1.125V14.875H0.0909424C0.0909423 15.2202 0.370764 15.5 0.715942 15.5H7.59094C7.76353 15.5 7.90344 15.3601 7.90344 15.1875V10.1875C7.90344 10.0149 7.76353 9.875 7.59094 9.875H6.34094C6.16835 9.875 6.02844 9.73509 6.02844 9.5625V7.6875C6.02844 7.51491 6.16835 7.375 6.34094 7.375H7.59094C7.76353 7.375 7.90344 7.23509 7.90344 7.0625V6.24375V6.24375C7.90344 4.27969 9.49563 2.6875 11.4597 2.6875H12.2784C12.451 2.6875 12.5909 2.82741 12.5909 3V4.875C12.5909 5.04759 12.451 5.1875 12.2784 5.1875H11.4597C10.8763 5.1875 10.4034 5.6604 10.4034 6.24375V7.0625C10.4034 7.23509 10.5434 7.375 10.7159 7.375H12.2347C12.4073 7.37375 12.5482 7.51265 12.5494 7.68523C12.5495 7.69852 12.5488 7.7118 12.5472 7.725L12.3097 9.6Z" fill="black"/>
</svg>
