<svg xmlns="http://www.w3.org/2000/svg" width="20" height="20" viewBox="0 0 20 20">
  <g fill="none" fill-rule="evenodd" stroke="#000" stroke-linecap="round" stroke-linejoin="round" stroke-width="1.5" transform="translate(.617 .625)">
    <path d="M5,18.75 C2.2386,18.75 0,16.5114 0,13.75 L0,5 C0,2.2386 2.2386,0 5,0 L13.75,0 C16.5114,0 18.75,2.2386 18.75,5 L18.75,13.75 C18.75,16.5114 16.5114,18.75 13.75,18.75 L5,18.75 Z"/>
    <path d="M12.32125 6.428725C13.9484333 8.05590833 13.9484333 10.6941 12.32125 12.3212833 10.6940667 13.9484667 8.055875 13.9484667 6.42869167 12.3212833 4.80150833 10.6941 4.80150833 8.05590833 6.42869167 6.428725 8.055875 4.80154167 10.6940667 4.80154167 12.32125 6.428725M15.5 3.66666667L15.5 3.66666667C15.5 3.896785 15.3134517 4.08333333 15.0833333 4.08333333 14.853215 4.08333333 14.6666667 3.896785 14.6666667 3.66666667"/>
    <path d="M14.6666667,3.66666667 L14.6666667,3.66666673 C14.6666667,3.4365484 14.853215,3.25000006 15.0833333,3.25000006 C15.3134517,3.25000003 15.5,3.4365484 15.5,3.66666673 C15.5,3.66666673 15.5,3.66666673 15.5,3.66666673"/>
  </g>
</svg>
