<svg width="18" height="17" viewBox="0 0 18 17" fill="none" xmlns="http://www.w3.org/2000/svg">
<g opacity="1">
<path d="M4.69507 6.02075H1.86173C1.66613 6.02075 1.50757 6.17932 1.50757 6.37492V15.5833C1.50757 15.7789 1.66613 15.9374 1.86173 15.9374H4.69507C4.89067 15.9374 5.04923 15.7789 5.04923 15.5833V6.37492C5.04923 6.17932 4.89067 6.02075 4.69507 6.02075Z" fill="white"/>
<path d="M3.26423 4.60417C4.23442 4.60417 5.0209 3.81134 5.0209 2.83333C5.0209 1.85533 4.23442 1.0625 3.26423 1.0625C2.29405 1.0625 1.50757 1.85533 1.50757 2.83333C1.50757 3.81134 2.29405 4.60417 3.26423 4.60417Z" fill="white"/>
<path d="M13.1951 15.9376H15.3201C15.414 15.9376 15.5041 15.9003 15.5705 15.8339C15.637 15.7675 15.6743 15.6774 15.6743 15.5835V9.63345C15.6743 6.96304 14.1655 5.66679 12.0547 5.66679C11.6383 5.65156 11.2234 5.72374 10.8367 5.87869C10.4499 6.03363 10.0999 6.26789 9.80928 6.56637C9.77045 6.61122 9.71883 6.64311 9.66134 6.65775C9.60385 6.67238 9.54326 6.66906 9.48772 6.64823C9.43217 6.6274 9.38434 6.59007 9.35065 6.54124C9.31696 6.49241 9.29903 6.43444 9.29928 6.37512C9.29928 6.28119 9.26196 6.19111 9.19554 6.12469C9.12912 6.05827 9.03904 6.02095 8.94511 6.02095H6.82011C6.72618 6.02095 6.63609 6.05827 6.56968 6.12469C6.50326 6.19111 6.46594 6.28119 6.46594 6.37512V15.5835C6.46594 15.6774 6.50326 15.7675 6.56968 15.8339C6.63609 15.9003 6.72618 15.9376 6.82011 15.9376H8.94511C9.03904 15.9376 9.12912 15.9003 9.19554 15.8339C9.26196 15.7675 9.29928 15.6774 9.29928 15.5835V10.271C9.29928 9.8013 9.48585 9.35088 9.81794 9.01879C10.15 8.68669 10.6005 8.50012 11.0701 8.50012C11.5398 8.50012 11.9902 8.68669 12.3223 9.01879C12.6544 9.35088 12.8409 9.8013 12.8409 10.271V15.5835C12.8409 15.6774 12.8783 15.7675 12.9447 15.8339C13.0111 15.9003 13.1012 15.9376 13.1951 15.9376Z" fill="white"/>
</g>
</svg>
