<svg xmlns="http://www.w3.org/2000/svg" width="20" height="20" viewBox="0 0 20 20">
  <path fill="none" stroke="#000" stroke-linecap="round" stroke-linejoin="round" stroke-width="1.5" d="M12.5333333,18.6583333 L12.5433333,18.6641667 L12.5433336,18.6641668 C14.3666503,19.8250002 16.7516253,19.5634252 18.2800003,18.0350002 L18.9250003,17.3900002 L18.9250002,17.3900002 C19.5248469,16.7894002 19.5248469,15.8164335 18.9250003,15.2158335 L16.2075003,12.5000002 L16.2075003,12.5000002 C15.6069003,11.9001535 14.6339336,11.9001535 14.0333336,12.5000001 L14.0333336,12.5000001 L14.0333336,12.5000001 C13.4339228,13.1001493 12.4614836,13.1007485 11.8613336,12.5013376 C11.8608875,12.500892 11.8604417,12.5004462 11.8599962,12.5000001 L7.51166288,8.15083348 L7.51166292,8.15083353 C6.91181626,7.55023353 6.91181626,6.57726686 7.51166283,5.97666686 L7.51166283,5.97666686 L7.51166285,5.97666684 C8.11181202,5.37725601 8.11241118,4.40481684 7.51300023,3.80466684 C7.5125547,3.80422076 7.5121089,3.80377496 7.51166282,3.80332942 L4.79499615,1.08332942 L4.79499618,1.08332945 C4.19439618,0.483482785 3.22142951,0.483482785 2.62082951,1.0833294 L1.97582951,1.7283294 L1.97582925,1.72832966 C0.44772925,3.25677966 0.185862584,5.64133799 1.34583008,7.46499632 L1.35249675,7.47499632 L1.35249473,7.47499334 C4.3303364,11.8831767 8.12580307,15.6794933 12.5333281,18.6583267 L12.5333333,18.6583333 Z"/>
</svg>
