<svg width="20" height="22" viewBox="0 0 20 22" fill="none" xmlns="http://www.w3.org/2000/svg">
<path d="M11.7678 5.48223C12.7441 6.45854 12.7441 8.04146 11.7678 9.01776C10.7915 9.99407 9.20854 9.99407 8.23223 9.01776C7.25592 8.04146 7.25592 6.45854 8.23223 5.48223C9.20854 4.50592 10.7915 4.50592 11.7678 5.48223" stroke="black" stroke-width="1.5" stroke-linecap="round" stroke-linejoin="round"/>
<path fill-rule="evenodd" clip-rule="evenodd" d="M10 1.625V1.625C13.1066 1.625 15.625 4.1434 15.625 7.25C15.625 9.95917 11.3483 16.0225 10.2533 17.5308V17.5308C10.1507 17.6707 9.95411 17.701 9.8142 17.5984C9.78838 17.5794 9.7656 17.5567 9.74667 17.5308C8.65167 16.0225 4.375 9.95917 4.375 7.25L4.375 7.25C4.375 4.1434 6.8934 1.625 10 1.625V1.625Z" stroke="black" stroke-width="1.5" stroke-linecap="round" stroke-linejoin="round"/>
<path d="M14.9825 15.8203C17.2592 16.2711 18.75 17.0236 18.75 17.8753C18.75 19.2561 14.8333 20.3753 10 20.3753C5.16667 20.3753 1.25 19.2561 1.25 17.8753C1.25 17.0253 2.73417 16.2745 5 15.8228" stroke="black" stroke-width="1.5" stroke-linecap="round" stroke-linejoin="round"/>
</svg>
