<svg xmlns="http://www.w3.org/2000/svg" width="20" height="20" viewBox="0 0 20 20">
  <path fill="#FFFFFF" fill-rule="evenodd" stroke="#000000" d="M9.99999996,-4.68685231e-06 L9.9999999,-4.68685231e-06 C6.31981657,0.00412857988 3.33746657,2.98647865 3.33333324,6.66666198 C3.33333324,9.59166198 7.4999999,16.6874953 9.2899999,19.6033286 L9.28999986,19.6033286 C9.44169819,19.8499019 9.71049819,19.9999953 9.99999986,19.9999953 L9.99999987,19.9999953 C10.2900507,20.0013745 10.5595615,19.8504861 10.7099999,19.6024952 C12.4999999,16.6883286 16.6666668,9.59499524 16.6666668,6.66666191 L16.6666668,6.66687064 C16.6626486,2.98668731 13.6803918,0.0042456435 10.0002084,-4.68685231e-06 L9.99999996,-4.68685231e-06 Z M9.99999996,9.58332865 L9.99999984,9.58332865 C8.3891665,9.58332865 7.08333317,8.27749531 7.08333317,6.66666198 C7.08333317,5.05582865 8.3891665,3.74999531 9.99999984,3.74999531 C11.6108332,3.74999531 12.9166665,5.05582865 12.9166665,6.66666198 L12.9166665,6.66666185 C12.9166665,8.27749519 11.6108332,9.58332865 9.99999984,9.58332865 L9.99999996,9.58332865 Z"/>
</svg>
