<svg width="16" height="12" viewBox="0 0 16 12" fill="none" xmlns="http://www.w3.org/2000/svg">
<path opacity="1" fill-rule="evenodd" clip-rule="evenodd" d="M15.3195 2.50898C15.4523 2.39866 15.4704 2.20163 15.3601 2.06891C15.3174 2.01755 15.2594 1.98121 15.1945 1.96523L14.7008 1.84023C14.5334 1.79832 14.4316 1.62862 14.4735 1.4612C14.4786 1.44106 14.4856 1.42148 14.4945 1.40273L14.7695 0.846484C14.8445 0.691011 14.7792 0.504229 14.6237 0.429297C14.5562 0.396785 14.4794 0.389577 14.407 0.408984L13.157 0.758984C13.0626 0.786525 12.9607 0.768001 12.882 0.708984V0.708984C12.3411 0.30329 11.6832 0.0839844 11.007 0.0839844V0.0839844C9.28114 0.0839845 7.88203 1.4831 7.88203 3.20898V3.43398V3.43399C7.88261 3.51346 7.82343 3.5807 7.74453 3.59023C5.98828 3.79648 4.30703 2.90273 2.49453 0.815235C2.41426 0.726702 2.2912 0.69051 2.17578 0.721485C2.07189 0.769238 2.00238 0.869915 1.99453 0.983985L1.99453 0.983985C1.74419 2.01232 1.84541 3.09487 2.28203 4.05899C2.32094 4.13601 2.29005 4.22999 2.21303 4.26891C2.18417 4.28348 2.15151 4.28875 2.11953 4.28399L1.41953 4.14648C1.24913 4.11909 1.08878 4.23502 1.06139 4.40542C1.05553 4.44185 1.05617 4.47903 1.06328 4.51523L1.06328 4.51523C1.17259 5.48683 1.71759 6.35608 2.54453 6.87773C2.6222 6.91535 2.65466 7.0088 2.61705 7.08647C2.60172 7.11811 2.57617 7.14366 2.54453 7.15898L2.21328 7.29023C2.05309 7.35446 1.97529 7.53638 2.03951 7.69658C2.0429 7.70504 2.04666 7.71335 2.05078 7.72148H2.05078C2.42262 8.53511 3.17011 9.11442 4.05078 9.27148C4.1319 9.30093 4.17379 9.39055 4.14435 9.47167C4.12856 9.51517 4.09429 9.54944 4.05078 9.56523H4.05078C3.20101 9.91669 2.28908 10.0931 1.36953 10.084H1.36953C1.19694 10.0495 1.02905 10.1614 0.994531 10.334C0.960014 10.5066 1.07194 10.6745 1.24453 10.709L1.24453 10.709C2.83674 11.4641 4.57027 11.8752 6.33203 11.9152C7.88169 11.9389 9.40377 11.504 10.707 10.6652C12.8844 9.21178 14.189 6.76438 14.182 4.14648V3.60273V3.60273C14.1828 3.51088 14.2239 3.42402 14.2945 3.36523L15.3195 2.50898Z" fill="white"/>
</svg>
