<svg width="19" height="12" viewBox="0 0 19 12" fill="none" xmlns="http://www.w3.org/2000/svg">
<path opacity="1" d="M17.8482 1.98461C17.65 1.26493 17.0659 0.698126 16.3244 0.505775C14.9804 0.15625 9.59097 0.15625 9.59097 0.15625C9.59097 0.15625 4.20156 0.15625 2.85749 0.505775C2.11599 0.698157 1.53198 1.26493 1.33377 1.98461C0.973633 3.28907 0.973633 6.01072 0.973633 6.01072C0.973633 6.01072 0.973633 8.73236 1.33377 10.0368C1.53198 10.7565 2.11599 11.2997 2.85749 11.492C4.20156 11.8416 9.59097 11.8416 9.59097 11.8416C9.59097 11.8416 14.9804 11.8416 16.3244 11.492C17.0659 11.2997 17.65 10.7565 17.8482 10.0368C18.2083 8.73236 18.2083 6.01072 18.2083 6.01072C18.2083 6.01072 18.2083 3.28907 17.8482 1.98461ZM7.82832 8.48177V3.53967L12.3328 6.01078L7.82832 8.48177Z" fill="white"/>
</svg>
