<svg xmlns="http://www.w3.org/2000/svg" width="62" height="63" viewBox="0 0 62 63">
    <g fill="none" fill-rule="evenodd">
        <g fill="#FFF">
            <g>
                <g>
                    <path d="M128.94 61.19c2.56 0 4.352.778 4.352 3.54 0 2.675-1.622 3.279-4.438 3.279h-3.498V61.19zm20.07 0c1.877 0 2.645.605 2.645 2.158 0 1.122-.597 1.64-1.877 1.813l1.962 2.848h-2.048l-1.962-2.848h-1.792v2.848h-1.878V61.19zm-31.81 0l3.584 4.23v-4.23h1.792v6.819h-2.133l-3.584-4.143v4.143h-1.792v-6.818h2.133zm-17.85 0v5.266l4.864.086v1.467h-6.741v-6.818h1.877zm13.365 0v1.468h-4.608v1.036h3.84v1.38h-3.84v1.468h4.608v1.467h-6.57v-6.818h6.57zm29.163 0v1.468h-4.608v1.036h3.925v1.38h-3.925v1.468h4.608v1.38l-6.485.087v-6.818h6.485zm-12.94 1.465h-1.706v3.884h1.536c1.45 0 2.475-.259 2.475-1.813 0-1.38-1.11-2.07-2.304-2.07zm19.807.01h-2.816v1.036h2.89c.809-.002 1.035-.03 1.035-.518 0-.431-.34-.518-1.11-.518zm-15.936-9.282v3.452c0 1.295.086 1.813.768 1.813.683 0 .768-.346.768-1.727v-3.538h1.195v3.711c0 1.813-.502 2.561-1.868 2.561-1.792 0-2.143-.662-2.143-2.734v-3.538h1.28zm-3.862-.172c1.622 0 2.049.604 2.049 2.157v1.9c0 1.64-.427 2.33-2.049 2.33-1.62 0-2.047-.604-2.047-2.072v-1.985c0-1.64.768-2.33 2.047-2.33zm20.661 0c1.195 0 1.878.604 1.963 1.64l-.854.345c-.085-.604-.426-1.036-1.023-1.036-.854 0-.94.69-.94 1.726v1.381c0 .863.086 1.468.94 1.468.427 0 .597-.26.597-.777v-.69h-.597v-.95h1.792v1.985c0 .669-.386 1.295-1.707 1.295-1.707 0-2.219-.518-2.219-2.33v-1.813c0-1.295.342-2.244 2.048-2.244zm-41.758.172v3.452c0 1.381.086 1.726.768 1.726.598 0 .768-.345.768-1.553v-3.625h1.195v3.714c-.008 1.616-.153 2.5-2.048 2.5-1.707 0-1.877-.777-1.877-2.503v-3.711h1.194zm30.264-.172c1.28 0 1.878.69 1.963 1.553l-.853.346c-.256-.518-.512-.863-1.025-.863-.34 0-.682.172-.682.517 0 .95 2.73 1.64 2.73 3.108 0 .95-1.023 1.726-2.133 1.726-1.365 0-1.962-.777-1.962-1.726l1.024-.173c.17.604.512.95 1.023.95.513 0 .769-.173.769-.605 0-1.122-2.731-1.554-2.731-3.28 0-1.035.853-1.553 1.877-1.553zm3.87.173v6.128h-1.11v-6.128h1.11zm-41.526 0v.95h-1.877v1.64h1.707v.862H98.58v1.726h1.877v.95h-3.072v-6.128h3.072zm22.913 0v2.33h1.45v-2.33h1.195v6.128h-1.194V56.75h-1.451v2.762h-1.195v-6.128h1.195zm-9.366 0l1.707 6.128h-1.33l-.377-1.38h-1.536l-.378 1.38h-1.244l1.707-6.128h1.451zm30.547 0l1.365 3.797v-3.797h1.024v6.128h-1.536l-1.45-4.143v4.143h-1.025v-6.128h1.622zm-27.275 0v5.178h1.792v.95h-2.816v-6.128h1.024zm-13.896-.171c1.706 0 2.047 1.036 2.047 2.503v1.295c0 .776-.085 1.122-.34 1.64l1.023.345-.085.431c-3.499 0-4.694-.086-4.694-2.157v-1.64c0-1.554.512-2.417 2.049-2.417zm.08 1.034c-.768 0-.854.345-.854 1.467v1.467c0 1.122.17 1.467.768 1.467.683 0 .768-.258.768-1.38v-1.64c0-1.209-.085-1.381-.683-1.381zm25.483-.086c-.682 0-.768.518-.768 1.294v1.9c0 .863.086 1.294.768 1.294.512 0 .768-.345.768-1.381v-1.813c0-.69-.085-1.294-.768-1.294zm-15.7.534l-.512 2.417h1.11l-.598-2.417zm11.491-48.7l29.954 17.607v6.129h-4.78v21.664H98.793V29.731H94.1V23.43l30.636-17.435zm-.002 6.565L105.02 24.126v21.75h39v-21.75L124.732 12.56zm9.912 22.467v5.351h-20.396v-5.351h20.396zm0-7.97v5.351h-20.396v-5.35h20.396z" transform="translate(-1243 -3063) translate(0 2794) translate(1149.782 263)"/>
                </g>
            </g>
        </g>
    </g>
</svg>
